G75*
%MOIN*%
%OFA0B0*%
%FSLAX25Y25*%
%IPPOS*%
%LPD*%
%AMOC8*
5,1,8,0,0,1.08239X$1,22.5*
%
%ADD10C,0.00000*%
%ADD11R,0.03943X0.03156*%
%ADD12R,0.03156X0.03943*%
%ADD13R,0.05000X0.06700*%
%ADD14R,0.00600X0.07200*%
%ADD15R,0.04400X0.04400*%
%ADD16OC8,0.04400*%
%ADD17R,0.06400X0.06400*%
%ADD18OC8,0.06400*%
%ADD19C,0.06109*%
%ADD20OC8,0.07487*%
%ADD21R,0.05746X0.05746*%
%ADD22C,0.09250*%
%ADD23C,0.10450*%
%ADD24R,0.04731X0.04337*%
%ADD25C,0.23400*%
%ADD26R,0.09764X0.13386*%
%ADD27R,0.04337X0.04731*%
%ADD28R,0.08668X0.08668*%
%ADD29OC8,0.08668*%
%ADD30C,0.00138*%
%ADD31R,0.02600X0.05400*%
D10*
X0025625Y0086626D02*
X0025625Y0374126D01*
X0405625Y0374126D01*
X0405625Y0086626D01*
X0025625Y0086626D01*
D11*
X0055625Y0179067D03*
X0055625Y0184186D03*
X0065625Y0189067D03*
X0065625Y0194186D03*
X0055625Y0214067D03*
X0055625Y0219186D03*
X0100625Y0296567D03*
X0100625Y0301686D03*
X0100625Y0311567D03*
X0100625Y0316686D03*
X0066875Y0304186D03*
X0066875Y0299067D03*
X0280625Y0204186D03*
X0280625Y0199067D03*
X0285625Y0154186D03*
X0285625Y0149067D03*
X0290625Y0132936D03*
X0290625Y0127817D03*
X0296875Y0127817D03*
X0296875Y0132936D03*
X0303125Y0132936D03*
X0303125Y0127817D03*
X0371250Y0181567D03*
X0371250Y0186686D03*
X0376875Y0186686D03*
X0376875Y0181567D03*
D12*
X0308184Y0187876D03*
X0303066Y0187876D03*
X0290372Y0170376D03*
X0285253Y0170376D03*
X0268184Y0164126D03*
X0263066Y0164126D03*
X0265372Y0147876D03*
X0260253Y0147876D03*
X0259941Y0141626D03*
X0265059Y0141626D03*
X0303066Y0151626D03*
X0308184Y0151626D03*
X0320566Y0112876D03*
X0325684Y0112876D03*
X0325684Y0107251D03*
X0320566Y0107251D03*
X0128184Y0240376D03*
X0123066Y0240376D03*
X0123066Y0246626D03*
X0128184Y0246626D03*
X0083184Y0224126D03*
X0078066Y0224126D03*
X0075684Y0231626D03*
X0070566Y0231626D03*
X0048184Y0221626D03*
X0043066Y0221626D03*
X0043066Y0214126D03*
X0048184Y0214126D03*
X0070566Y0201626D03*
X0075684Y0201626D03*
X0083066Y0201626D03*
X0088184Y0201626D03*
X0088184Y0176626D03*
X0083066Y0176626D03*
X0048184Y0176626D03*
X0043066Y0176626D03*
X0043066Y0184126D03*
X0048184Y0184126D03*
D13*
X0292938Y0161626D03*
X0298938Y0161626D03*
D14*
X0295938Y0161626D03*
D15*
X0334125Y0101626D03*
D16*
X0339125Y0101626D03*
X0344125Y0101626D03*
X0349125Y0101626D03*
X0354125Y0101626D03*
X0354125Y0111626D03*
X0349125Y0111626D03*
X0344125Y0111626D03*
X0339125Y0111626D03*
X0334125Y0111626D03*
D17*
X0330625Y0196626D03*
X0288125Y0206626D03*
D18*
X0288125Y0196626D03*
X0330625Y0206626D03*
X0340625Y0206626D03*
X0340625Y0196626D03*
X0340625Y0341626D03*
X0330625Y0341626D03*
X0320625Y0341626D03*
X0310625Y0341626D03*
X0300625Y0341626D03*
X0290625Y0341626D03*
X0280625Y0341626D03*
X0280625Y0351626D03*
X0290625Y0351626D03*
X0300625Y0351626D03*
X0310625Y0351626D03*
X0320625Y0351626D03*
X0330625Y0351626D03*
X0340625Y0351626D03*
X0270625Y0351626D03*
X0270625Y0341626D03*
X0260625Y0341626D03*
X0250625Y0341626D03*
X0250625Y0351626D03*
X0260625Y0351626D03*
X0180625Y0351626D03*
X0180625Y0341626D03*
X0170625Y0341626D03*
X0160625Y0341626D03*
X0150625Y0341626D03*
X0140625Y0341626D03*
X0130625Y0341626D03*
X0120625Y0341626D03*
X0110625Y0341626D03*
X0100625Y0341626D03*
X0090625Y0341626D03*
X0090625Y0351626D03*
X0100625Y0351626D03*
X0110625Y0351626D03*
X0120625Y0351626D03*
X0130625Y0351626D03*
X0140625Y0351626D03*
X0150625Y0351626D03*
X0160625Y0351626D03*
X0170625Y0351626D03*
D19*
X0386486Y0181469D03*
X0386486Y0161784D03*
D20*
X0397116Y0157847D03*
X0397116Y0185406D03*
D21*
X0397116Y0175563D03*
X0397116Y0167689D03*
D22*
X0050625Y0156626D03*
X0050625Y0241626D03*
D23*
X0040625Y0231626D03*
X0060625Y0231626D03*
X0060625Y0251626D03*
X0040625Y0251626D03*
X0040625Y0166626D03*
X0060625Y0166626D03*
X0060625Y0146626D03*
X0040625Y0146626D03*
D24*
X0050625Y0163280D03*
X0050625Y0169973D03*
X0050625Y0228280D03*
X0050625Y0234973D03*
X0082279Y0256626D03*
X0088971Y0256626D03*
X0083971Y0267876D03*
X0077279Y0267876D03*
X0077279Y0276626D03*
X0083971Y0276626D03*
X0083971Y0285376D03*
X0077279Y0285376D03*
X0300091Y0170376D03*
X0306784Y0170376D03*
X0387279Y0226626D03*
X0393971Y0226626D03*
X0393971Y0246626D03*
X0387279Y0246626D03*
X0387279Y0316626D03*
X0393971Y0316626D03*
X0393971Y0336626D03*
X0387279Y0336626D03*
D25*
X0390625Y0359126D03*
X0390625Y0101626D03*
X0234625Y0101626D03*
X0040625Y0101626D03*
X0040625Y0359126D03*
D26*
X0081875Y0304126D03*
D27*
X0060625Y0304973D03*
X0054375Y0304973D03*
X0054375Y0298280D03*
X0060625Y0298280D03*
X0048125Y0298280D03*
X0048125Y0304973D03*
X0085625Y0104973D03*
X0085625Y0098280D03*
X0105625Y0098280D03*
X0105625Y0104973D03*
X0175625Y0104973D03*
X0175625Y0098280D03*
X0195625Y0098280D03*
X0195625Y0104973D03*
D28*
X0205625Y0101626D03*
X0160625Y0101626D03*
X0115625Y0101626D03*
X0040625Y0306626D03*
X0390625Y0326626D03*
X0390625Y0281626D03*
X0390625Y0236626D03*
D29*
X0390625Y0216626D03*
X0390625Y0261626D03*
X0390625Y0306626D03*
X0185625Y0101626D03*
X0140625Y0101626D03*
X0095625Y0101626D03*
X0040625Y0326626D03*
D30*
X0042916Y0203956D02*
X0046130Y0203956D01*
X0042916Y0203956D02*
X0042916Y0205202D01*
X0046130Y0205202D01*
X0046130Y0203956D01*
X0046130Y0204093D02*
X0042916Y0204093D01*
X0042916Y0204230D02*
X0046130Y0204230D01*
X0046130Y0204367D02*
X0042916Y0204367D01*
X0042916Y0204504D02*
X0046130Y0204504D01*
X0046130Y0204641D02*
X0042916Y0204641D01*
X0042916Y0204778D02*
X0046130Y0204778D01*
X0046130Y0204915D02*
X0042916Y0204915D01*
X0042916Y0205052D02*
X0046130Y0205052D01*
X0046130Y0205189D02*
X0042916Y0205189D01*
X0042916Y0201988D02*
X0046130Y0201988D01*
X0042916Y0201988D02*
X0042916Y0203234D01*
X0046130Y0203234D01*
X0046130Y0201988D01*
X0046130Y0202125D02*
X0042916Y0202125D01*
X0042916Y0202262D02*
X0046130Y0202262D01*
X0046130Y0202399D02*
X0042916Y0202399D01*
X0042916Y0202536D02*
X0046130Y0202536D01*
X0046130Y0202673D02*
X0042916Y0202673D01*
X0042916Y0202810D02*
X0046130Y0202810D01*
X0046130Y0202947D02*
X0042916Y0202947D01*
X0042916Y0203084D02*
X0046130Y0203084D01*
X0046130Y0203221D02*
X0042916Y0203221D01*
X0042916Y0200019D02*
X0046130Y0200019D01*
X0042916Y0200019D02*
X0042916Y0201265D01*
X0046130Y0201265D01*
X0046130Y0200019D01*
X0046130Y0200156D02*
X0042916Y0200156D01*
X0042916Y0200293D02*
X0046130Y0200293D01*
X0046130Y0200430D02*
X0042916Y0200430D01*
X0042916Y0200567D02*
X0046130Y0200567D01*
X0046130Y0200704D02*
X0042916Y0200704D01*
X0042916Y0200841D02*
X0046130Y0200841D01*
X0046130Y0200978D02*
X0042916Y0200978D01*
X0042916Y0201115D02*
X0046130Y0201115D01*
X0046130Y0201252D02*
X0042916Y0201252D01*
X0042916Y0198051D02*
X0046130Y0198051D01*
X0042916Y0198051D02*
X0042916Y0199297D01*
X0046130Y0199297D01*
X0046130Y0198051D01*
X0046130Y0198188D02*
X0042916Y0198188D01*
X0042916Y0198325D02*
X0046130Y0198325D01*
X0046130Y0198462D02*
X0042916Y0198462D01*
X0042916Y0198599D02*
X0046130Y0198599D01*
X0046130Y0198736D02*
X0042916Y0198736D01*
X0042916Y0198873D02*
X0046130Y0198873D01*
X0046130Y0199010D02*
X0042916Y0199010D01*
X0042916Y0199147D02*
X0046130Y0199147D01*
X0046130Y0199284D02*
X0042916Y0199284D01*
X0055120Y0199297D02*
X0058334Y0199297D01*
X0058334Y0198051D01*
X0055120Y0198051D01*
X0055120Y0199297D01*
X0055120Y0198188D02*
X0058334Y0198188D01*
X0058334Y0198325D02*
X0055120Y0198325D01*
X0055120Y0198462D02*
X0058334Y0198462D01*
X0058334Y0198599D02*
X0055120Y0198599D01*
X0055120Y0198736D02*
X0058334Y0198736D01*
X0058334Y0198873D02*
X0055120Y0198873D01*
X0055120Y0199010D02*
X0058334Y0199010D01*
X0058334Y0199147D02*
X0055120Y0199147D01*
X0055120Y0199284D02*
X0058334Y0199284D01*
X0058334Y0201265D02*
X0055120Y0201265D01*
X0058334Y0201265D02*
X0058334Y0200019D01*
X0055120Y0200019D01*
X0055120Y0201265D01*
X0055120Y0200156D02*
X0058334Y0200156D01*
X0058334Y0200293D02*
X0055120Y0200293D01*
X0055120Y0200430D02*
X0058334Y0200430D01*
X0058334Y0200567D02*
X0055120Y0200567D01*
X0055120Y0200704D02*
X0058334Y0200704D01*
X0058334Y0200841D02*
X0055120Y0200841D01*
X0055120Y0200978D02*
X0058334Y0200978D01*
X0058334Y0201115D02*
X0055120Y0201115D01*
X0055120Y0201252D02*
X0058334Y0201252D01*
X0058334Y0203234D02*
X0055120Y0203234D01*
X0058334Y0203234D02*
X0058334Y0201988D01*
X0055120Y0201988D01*
X0055120Y0203234D01*
X0055120Y0202125D02*
X0058334Y0202125D01*
X0058334Y0202262D02*
X0055120Y0202262D01*
X0055120Y0202399D02*
X0058334Y0202399D01*
X0058334Y0202536D02*
X0055120Y0202536D01*
X0055120Y0202673D02*
X0058334Y0202673D01*
X0058334Y0202810D02*
X0055120Y0202810D01*
X0055120Y0202947D02*
X0058334Y0202947D01*
X0058334Y0203084D02*
X0055120Y0203084D01*
X0055120Y0203221D02*
X0058334Y0203221D01*
X0058334Y0205202D02*
X0055120Y0205202D01*
X0058334Y0205202D02*
X0058334Y0203956D01*
X0055120Y0203956D01*
X0055120Y0205202D01*
X0055120Y0204093D02*
X0058334Y0204093D01*
X0058334Y0204230D02*
X0055120Y0204230D01*
X0055120Y0204367D02*
X0058334Y0204367D01*
X0058334Y0204504D02*
X0055120Y0204504D01*
X0055120Y0204641D02*
X0058334Y0204641D01*
X0058334Y0204778D02*
X0055120Y0204778D01*
X0055120Y0204915D02*
X0058334Y0204915D01*
X0058334Y0205052D02*
X0055120Y0205052D01*
X0055120Y0205189D02*
X0058334Y0205189D01*
D31*
X0071925Y0194226D03*
X0079325Y0194226D03*
X0079325Y0184026D03*
X0075625Y0184026D03*
X0071925Y0184026D03*
M02*
