%
M48
M72
T01C0.01200
T02C0.02000
T03C0.03346
T04C0.03937
T05C0.04000
T06C0.05512
T07C0.05900
T08C0.06700
T09C0.11811
%
T01
X54375Y187876
X58125Y195376
X61875Y199126
X49375Y205376
X54375Y211626
X78125Y249126
X79375Y242876
X88125Y244126
X93125Y254126
X78125Y256626
X78125Y274126
X83125Y279126
X81875Y296449
X77544Y296449
X77544Y301567
X77544Y306686
X77544Y311804
X81875Y311804
X81875Y306686
X81875Y301567
X86206Y301567
X86206Y306686
X86206Y311804
X86206Y296449
X65625Y296626
X65625Y306626
X63875Y310126
X153125Y330376
X94375Y325376
X105625Y314126
X110625Y306626
X136875Y304126
X150625Y291626
X166875Y284126
X169375Y286626
X171875Y284126
X174375Y286626
X166875Y302876
X170625Y314126
X168125Y316626
X164375Y316626
X161875Y319126
X165625Y324126
X194375Y299126
X215625Y291626
X215625Y276626
X214375Y266626
X205625Y256626
X193125Y254126
X166875Y259126
X161875Y256626
X149375Y266626
X150625Y276626
X140625Y256626
X128125Y254126
X123125Y249126
X120625Y241626
X130625Y231626
X138125Y224126
X104375Y202876
X100625Y199126
X89375Y189126
X83125Y184126
X83125Y197876
X86875Y197876
X75625Y196626
X78066Y229126
X93125Y231626
X181875Y175376
X209375Y185376
X216875Y185376
X219375Y182876
X216875Y180376
X216875Y166626
X210625Y166626
X216875Y144126
X213125Y140376
X220325Y137876
X216875Y131626
X201875Y110376
X178125Y111626
X163125Y111626
X269375Y140376
X266875Y144126
X273125Y146626
X278125Y137876
X291225Y137876
X296875Y137876
X301875Y137473
X303125Y151626
X308125Y151626
X306875Y164126
X309375Y172876
X309375Y184126
X300625Y194126
X293125Y185376
X286875Y190376
X280625Y205376
X265625Y216626
X266875Y229126
X263125Y231626
X263125Y236626
X263125Y241626
X266875Y239126
X270625Y244126
X263125Y250376
X258125Y254126
X270625Y256626
X279375Y266626
X280625Y276626
X280625Y289126
X296875Y304126
X281875Y324126
X274375Y330376
X266875Y327876
X240625Y330376
X244375Y327876
X239375Y324126
X233125Y316626
X229375Y316626
X226875Y319126
X235625Y314126
X231875Y302876
X214375Y324126
X214375Y327876
X209375Y330376
X201875Y327876
X255625Y282876
X253125Y280376
X255625Y277876
X253125Y274126
X226875Y256626
X223125Y242876
X225625Y239126
X219375Y236626
X229375Y229126
X233125Y234126
X236875Y231626
X240625Y241626
X266875Y234126
X296875Y251626
X301875Y255376
X304375Y251626
X306875Y255376
X313125Y255376
X309375Y264126
X330625Y236626
X351875Y247876
X351875Y256626
X373125Y269126
X375625Y264126
X375625Y254126
X375625Y246626
X300625Y327876
X375625Y201626
X379375Y176626
X360625Y175376
X354375Y180376
X354375Y212876
X325625Y181626
X320625Y172876
X293125Y162876
X290625Y170376
X285625Y170376
X283125Y164126
X273125Y166626
X270625Y164126
X269375Y167876
X258125Y152876
X255625Y147876
X255625Y143442
X286875Y149126
X285625Y154126
X248125Y174126
X241875Y180376
X244375Y182876
X241875Y185376
X244375Y187876
X286875Y124126
X293125Y124126
X299375Y124126
X305625Y124126
X296875Y104126
X344375Y134126
X354375Y139126
X350625Y145376
X346875Y150376
X360625Y151626
X360625Y160376
X373125Y160376
T02
X334125Y101626
X339125Y101626
X344125Y101626
X349125Y101626
X354125Y101626
X354125Y111626
X349125Y111626
X344125Y111626
X339125Y111626
X334125Y111626
T03
X397116Y175563
X386486Y181469
X386486Y161784
X397116Y167689
T04
X397116Y185406
X397116Y157847
T05
X90625Y351626
X100625Y351626
X110625Y351626
X120625Y351626
X130625Y351626
X140625Y351626
X150625Y351626
X160625Y351626
X170625Y351626
X180625Y351626
X180625Y341626
X170625Y341626
X160625Y341626
X150625Y341626
X140625Y341626
X130625Y341626
X120625Y341626
X110625Y341626
X100625Y341626
X90625Y341626
X288125Y196626
X288125Y206626
X270625Y341626
X280625Y341626
X290625Y341626
X300625Y341626
X310625Y341626
X320625Y341626
X330625Y341626
X340625Y341626
X340625Y351626
X330625Y351626
X320625Y351626
X310625Y351626
X300625Y351626
X290625Y351626
X280625Y351626
X270625Y351626
X260625Y351626
X260625Y341626
X250625Y341626
X250625Y351626
X340625Y196626
X330625Y196626
X330625Y206626
X340625Y206626
T06
X40625Y306626
X40625Y326626
X205625Y101626
X185625Y101626
X160625Y101626
X140625Y101626
X115625Y101626
X95625Y101626
X390625Y236626
X390625Y261626
X390625Y281626
X390625Y306626
X390625Y326626
X390625Y216626
T07
X50625Y156626
X50625Y241626
T08
X40625Y146626
X40625Y166626
X60625Y166626
X60625Y146626
X60625Y231626
X40625Y231626
X40625Y251626
X60625Y251626
T09
X40625Y101626
X40625Y359126
X234625Y101626
X390625Y359126
X390625Y101626
M30
