G75*
%MOIN*%
%OFA0B0*%
%FSLAX25Y25*%
%IPPOS*%
%LPD*%
%AMOC8*
5,1,8,0,0,1.08239X$1,22.5*
%
%ADD10C,0.00000*%
%ADD11C,0.01100*%
%ADD12C,0.00394*%
%ADD13C,0.00500*%
%ADD14C,0.00600*%
%ADD15C,0.00320*%
%ADD16C,0.01000*%
%ADD17C,0.00200*%
%ADD18C,0.01378*%
%ADD19R,0.01575X0.03937*%
%ADD20C,0.00400*%
%ADD21R,0.01969X0.03937*%
%ADD22C,0.00800*%
%ADD23C,0.03482*%
%ADD24R,0.04000X0.03000*%
%ADD25C,0.00300*%
%ADD26R,0.03000X0.04000*%
%ADD27R,0.02000X0.02000*%
%ADD28C,0.00984*%
%ADD29R,0.02400X0.06200*%
D10*
X0025625Y0086626D02*
X0025625Y0374126D01*
X0405625Y0374126D01*
X0405625Y0086626D01*
X0025625Y0086626D01*
D11*
X0192676Y0352176D02*
X0191175Y0353678D01*
X0191175Y0355179D01*
X0192676Y0356680D01*
X0194613Y0355930D02*
X0195363Y0356680D01*
X0196865Y0356680D01*
X0197615Y0355930D01*
X0199769Y0356680D02*
X0201270Y0355179D01*
X0201270Y0353678D01*
X0199769Y0352176D01*
X0197615Y0352927D02*
X0196865Y0352176D01*
X0195363Y0352176D01*
X0194613Y0352927D01*
X0194613Y0355930D01*
X0193427Y0360576D02*
X0191175Y0360576D01*
X0191175Y0365080D01*
X0193427Y0365080D01*
X0194178Y0364330D01*
X0194178Y0361327D01*
X0193427Y0360576D01*
X0196331Y0360576D02*
X0199334Y0360576D01*
X0201488Y0361327D02*
X0204490Y0364330D01*
X0204490Y0361327D01*
X0203740Y0360576D01*
X0202238Y0360576D01*
X0201488Y0361327D01*
X0201488Y0364330D01*
X0202238Y0365080D01*
X0203740Y0365080D01*
X0204490Y0364330D01*
X0206644Y0365080D02*
X0206644Y0360576D01*
X0208145Y0362078D01*
X0209647Y0360576D01*
X0209647Y0365080D01*
X0211801Y0365080D02*
X0211801Y0360576D01*
X0211801Y0362828D02*
X0214803Y0362828D01*
X0214803Y0365080D02*
X0214803Y0360576D01*
X0214270Y0356680D02*
X0215771Y0356680D01*
X0216522Y0355930D01*
X0213519Y0352927D01*
X0214270Y0352176D01*
X0215771Y0352176D01*
X0216522Y0352927D01*
X0216522Y0355930D01*
X0218676Y0355179D02*
X0220177Y0356680D01*
X0220177Y0352176D01*
X0218676Y0352176D02*
X0221678Y0352176D01*
X0223832Y0352927D02*
X0224583Y0352176D01*
X0226084Y0352176D01*
X0226835Y0352927D01*
X0226835Y0355930D01*
X0226084Y0356680D01*
X0224583Y0356680D01*
X0223832Y0355930D01*
X0223832Y0355179D01*
X0224583Y0354428D01*
X0226835Y0354428D01*
X0227270Y0360576D02*
X0228771Y0360576D01*
X0228020Y0360576D02*
X0228020Y0363579D01*
X0227270Y0363579D01*
X0228020Y0365080D02*
X0228020Y0365831D01*
X0230707Y0365080D02*
X0233710Y0365080D01*
X0232209Y0365080D02*
X0232209Y0360576D01*
X0235864Y0361327D02*
X0236614Y0360576D01*
X0238866Y0360576D01*
X0238866Y0363579D01*
X0241020Y0363579D02*
X0243272Y0363579D01*
X0244023Y0362828D01*
X0244023Y0360576D01*
X0246177Y0361327D02*
X0246177Y0362828D01*
X0246927Y0363579D01*
X0248428Y0363579D01*
X0249179Y0362828D01*
X0249179Y0362078D01*
X0246177Y0362078D01*
X0246177Y0361327D02*
X0246927Y0360576D01*
X0248428Y0360576D01*
X0251333Y0360576D02*
X0251333Y0363579D01*
X0252834Y0363579D02*
X0253585Y0363579D01*
X0252834Y0363579D02*
X0251333Y0362078D01*
X0260786Y0361327D02*
X0260786Y0364330D01*
X0261537Y0365080D01*
X0263038Y0365080D01*
X0263789Y0364330D01*
X0265943Y0363579D02*
X0267444Y0363579D01*
X0266693Y0364330D02*
X0266693Y0361327D01*
X0267444Y0360576D01*
X0269380Y0360576D02*
X0269380Y0363579D01*
X0269380Y0362078D02*
X0270882Y0363579D01*
X0271632Y0363579D01*
X0273677Y0365080D02*
X0274428Y0365080D01*
X0274428Y0360576D01*
X0273677Y0360576D02*
X0275179Y0360576D01*
X0282271Y0362078D02*
X0283773Y0360576D01*
X0285274Y0362078D01*
X0285274Y0365080D01*
X0287428Y0363579D02*
X0288929Y0365080D01*
X0288929Y0360576D01*
X0287428Y0360576D02*
X0290430Y0360576D01*
X0292584Y0360576D02*
X0293335Y0360576D01*
X0293335Y0361327D01*
X0292584Y0361327D01*
X0292584Y0360576D01*
X0295162Y0361327D02*
X0298165Y0364330D01*
X0298165Y0361327D01*
X0297414Y0360576D01*
X0295913Y0360576D01*
X0295162Y0361327D01*
X0295162Y0364330D01*
X0295913Y0365080D01*
X0297414Y0365080D01*
X0298165Y0364330D01*
X0282271Y0365080D02*
X0282271Y0362078D01*
X0263789Y0361327D02*
X0263038Y0360576D01*
X0261537Y0360576D01*
X0260786Y0361327D01*
X0241020Y0360576D02*
X0241020Y0363579D01*
X0235864Y0363579D02*
X0235864Y0361327D01*
X0225116Y0361327D02*
X0224365Y0360576D01*
X0222113Y0360576D01*
X0222113Y0365080D01*
X0224365Y0365080D01*
X0225116Y0364330D01*
X0225116Y0363579D01*
X0224365Y0362828D01*
X0222113Y0362828D01*
X0224365Y0362828D02*
X0225116Y0362078D01*
X0225116Y0361327D01*
X0214270Y0356680D02*
X0213519Y0355930D01*
X0213519Y0352927D01*
X0211366Y0352176D02*
X0208363Y0352176D01*
X0211366Y0355179D01*
X0211366Y0355930D01*
X0210615Y0356680D01*
X0209114Y0356680D01*
X0208363Y0355930D01*
X0196331Y0360576D02*
X0196331Y0365080D01*
D12*
X0195620Y0344644D02*
X0194885Y0344520D01*
X0194187Y0344261D01*
X0193549Y0343877D01*
X0192993Y0343382D01*
X0192539Y0342791D01*
X0192204Y0342126D01*
X0191997Y0341410D01*
X0191928Y0340669D01*
X0191997Y0339927D01*
X0192204Y0339212D01*
X0192539Y0338547D01*
X0192993Y0337956D01*
X0193549Y0337461D01*
X0194187Y0337077D01*
X0194885Y0336818D01*
X0195620Y0336694D01*
X0196364Y0336709D01*
X0196364Y0337949D01*
X0195775Y0337925D01*
X0195194Y0338027D01*
X0194648Y0338251D01*
X0194163Y0338586D01*
X0193760Y0339016D01*
X0193458Y0339523D01*
X0193271Y0340083D01*
X0193208Y0340669D01*
X0193271Y0341255D01*
X0193458Y0341815D01*
X0193760Y0342322D01*
X0194163Y0342752D01*
X0194648Y0343087D01*
X0195194Y0343311D01*
X0195775Y0343413D01*
X0196364Y0343389D01*
X0196364Y0344629D01*
X0195620Y0344644D01*
X0196364Y0344310D02*
X0194318Y0344310D01*
X0193616Y0343918D02*
X0196364Y0343918D01*
X0196364Y0343525D02*
X0193154Y0343525D01*
X0192802Y0343133D02*
X0194760Y0343133D01*
X0194152Y0342741D02*
X0192514Y0342741D01*
X0192316Y0342349D02*
X0193785Y0342349D01*
X0193542Y0341957D02*
X0192155Y0341957D01*
X0192042Y0341564D02*
X0193374Y0341564D01*
X0193262Y0341172D02*
X0191975Y0341172D01*
X0191938Y0340780D02*
X0193220Y0340780D01*
X0193238Y0340388D02*
X0191954Y0340388D01*
X0191991Y0339995D02*
X0193300Y0339995D01*
X0193431Y0339603D02*
X0192091Y0339603D01*
X0192204Y0339211D02*
X0193644Y0339211D01*
X0193944Y0338819D02*
X0192402Y0338819D01*
X0192632Y0338427D02*
X0194393Y0338427D01*
X0195176Y0338034D02*
X0192933Y0338034D01*
X0193345Y0337642D02*
X0196364Y0337642D01*
X0196364Y0337250D02*
X0193899Y0337250D01*
X0194778Y0336858D02*
X0196364Y0336858D01*
X0199279Y0338564D02*
X0199732Y0337963D01*
X0200288Y0337457D01*
X0200929Y0337062D01*
X0201632Y0336794D01*
X0202372Y0336662D01*
X0203124Y0336669D01*
X0203124Y0337869D01*
X0202537Y0337873D01*
X0201961Y0337994D01*
X0201421Y0338226D01*
X0200938Y0338561D01*
X0200531Y0338984D01*
X0200215Y0339480D01*
X0200004Y0340029D01*
X0202324Y0340029D01*
X0202324Y0341269D01*
X0200084Y0341269D01*
X0200236Y0341766D01*
X0200481Y0342224D01*
X0200812Y0342626D01*
X0201214Y0342955D01*
X0201672Y0343200D01*
X0202170Y0343350D01*
X0202687Y0343400D01*
X0203204Y0343349D01*
X0203204Y0344669D01*
X0202452Y0344691D01*
X0201709Y0344574D01*
X0201001Y0344320D01*
X0200353Y0343938D01*
X0199786Y0343443D01*
X0199322Y0342851D01*
X0198976Y0342183D01*
X0198761Y0341462D01*
X0198683Y0340714D01*
X0198746Y0339964D01*
X0198947Y0339239D01*
X0199279Y0338564D01*
X0199383Y0338427D02*
X0201131Y0338427D01*
X0200690Y0338819D02*
X0199154Y0338819D01*
X0198961Y0339211D02*
X0200386Y0339211D01*
X0200168Y0339603D02*
X0198846Y0339603D01*
X0198743Y0339995D02*
X0200017Y0339995D01*
X0198710Y0340388D02*
X0202324Y0340388D01*
X0202324Y0340780D02*
X0198690Y0340780D01*
X0198730Y0341172D02*
X0202324Y0341172D01*
X0200952Y0342741D02*
X0199265Y0342741D01*
X0199062Y0342349D02*
X0200584Y0342349D01*
X0200338Y0341957D02*
X0198909Y0341957D01*
X0198791Y0341564D02*
X0200174Y0341564D01*
X0199544Y0343133D02*
X0201548Y0343133D01*
X0200985Y0344310D02*
X0203204Y0344310D01*
X0203204Y0343918D02*
X0200329Y0343918D01*
X0199881Y0343525D02*
X0203204Y0343525D01*
X0201867Y0338034D02*
X0199678Y0338034D01*
X0200084Y0337642D02*
X0203124Y0337642D01*
X0203124Y0337250D02*
X0200624Y0337250D01*
X0201465Y0336858D02*
X0203124Y0336858D01*
D13*
X0183748Y0331251D02*
X0181947Y0331251D01*
X0182847Y0331251D02*
X0182847Y0333954D01*
X0181947Y0333053D01*
X0180802Y0333053D02*
X0180802Y0333503D01*
X0180351Y0333954D01*
X0179450Y0333954D01*
X0179000Y0333503D01*
X0180802Y0333053D02*
X0179000Y0331251D01*
X0180802Y0331251D01*
X0180802Y0360001D02*
X0179000Y0360001D01*
X0180802Y0361803D01*
X0180802Y0362253D01*
X0180351Y0362704D01*
X0179450Y0362704D01*
X0179000Y0362253D01*
X0181947Y0362253D02*
X0182397Y0362704D01*
X0183298Y0362704D01*
X0183748Y0362253D01*
X0183748Y0361803D01*
X0181947Y0360001D01*
X0183748Y0360001D01*
X0239000Y0353503D02*
X0239450Y0353954D01*
X0240351Y0353954D01*
X0240802Y0353503D01*
X0240802Y0353053D01*
X0239000Y0351251D01*
X0240802Y0351251D01*
X0241947Y0351702D02*
X0242397Y0351251D01*
X0243298Y0351251D01*
X0243748Y0351702D01*
X0243748Y0352152D01*
X0243298Y0352603D01*
X0242847Y0352603D01*
X0243298Y0352603D02*
X0243748Y0353053D01*
X0243748Y0353503D01*
X0243298Y0353954D01*
X0242397Y0353954D01*
X0241947Y0353503D01*
X0249450Y0333954D02*
X0249000Y0333503D01*
X0249450Y0333954D02*
X0250351Y0333954D01*
X0250802Y0333503D01*
X0250802Y0333053D01*
X0249000Y0331251D01*
X0250802Y0331251D01*
X0251947Y0331251D02*
X0253748Y0333053D01*
X0253748Y0333503D01*
X0253298Y0333954D01*
X0252397Y0333954D01*
X0251947Y0333503D01*
X0251947Y0331251D02*
X0253748Y0331251D01*
X0261334Y0281390D02*
X0261336Y0281491D01*
X0261342Y0281592D01*
X0261352Y0281693D01*
X0261366Y0281793D01*
X0261384Y0281892D01*
X0261406Y0281991D01*
X0261431Y0282089D01*
X0261461Y0282186D01*
X0261494Y0282281D01*
X0261531Y0282375D01*
X0261572Y0282468D01*
X0261616Y0282559D01*
X0261664Y0282648D01*
X0261716Y0282735D01*
X0261771Y0282820D01*
X0261829Y0282902D01*
X0261890Y0282983D01*
X0261955Y0283061D01*
X0262022Y0283136D01*
X0262092Y0283208D01*
X0262166Y0283278D01*
X0262242Y0283345D01*
X0262320Y0283409D01*
X0262401Y0283469D01*
X0262484Y0283526D01*
X0262570Y0283580D01*
X0262658Y0283631D01*
X0262747Y0283678D01*
X0262838Y0283722D01*
X0262931Y0283761D01*
X0263026Y0283798D01*
X0263121Y0283830D01*
X0263218Y0283859D01*
X0263317Y0283883D01*
X0263415Y0283904D01*
X0263515Y0283921D01*
X0263615Y0283934D01*
X0263716Y0283943D01*
X0263817Y0283948D01*
X0263918Y0283949D01*
X0264019Y0283946D01*
X0264120Y0283939D01*
X0264221Y0283928D01*
X0264321Y0283913D01*
X0264420Y0283894D01*
X0264519Y0283871D01*
X0264616Y0283845D01*
X0264713Y0283814D01*
X0264808Y0283780D01*
X0264901Y0283742D01*
X0264994Y0283700D01*
X0265084Y0283655D01*
X0265173Y0283606D01*
X0265259Y0283554D01*
X0265343Y0283498D01*
X0265426Y0283439D01*
X0265505Y0283377D01*
X0265583Y0283312D01*
X0265657Y0283244D01*
X0265729Y0283172D01*
X0265798Y0283099D01*
X0265864Y0283022D01*
X0265927Y0282943D01*
X0265987Y0282861D01*
X0266043Y0282777D01*
X0266096Y0282691D01*
X0266146Y0282603D01*
X0266192Y0282513D01*
X0266235Y0282422D01*
X0266274Y0282328D01*
X0266309Y0282233D01*
X0266340Y0282137D01*
X0266368Y0282040D01*
X0266392Y0281942D01*
X0266412Y0281843D01*
X0266428Y0281743D01*
X0266440Y0281642D01*
X0266448Y0281542D01*
X0266452Y0281441D01*
X0266452Y0281339D01*
X0266448Y0281238D01*
X0266440Y0281138D01*
X0266428Y0281037D01*
X0266412Y0280937D01*
X0266392Y0280838D01*
X0266368Y0280740D01*
X0266340Y0280643D01*
X0266309Y0280547D01*
X0266274Y0280452D01*
X0266235Y0280358D01*
X0266192Y0280267D01*
X0266146Y0280177D01*
X0266096Y0280089D01*
X0266043Y0280003D01*
X0265987Y0279919D01*
X0265927Y0279837D01*
X0265864Y0279758D01*
X0265798Y0279681D01*
X0265729Y0279608D01*
X0265657Y0279536D01*
X0265583Y0279468D01*
X0265505Y0279403D01*
X0265426Y0279341D01*
X0265343Y0279282D01*
X0265259Y0279226D01*
X0265172Y0279174D01*
X0265084Y0279125D01*
X0264994Y0279080D01*
X0264901Y0279038D01*
X0264808Y0279000D01*
X0264713Y0278966D01*
X0264616Y0278935D01*
X0264519Y0278909D01*
X0264420Y0278886D01*
X0264321Y0278867D01*
X0264221Y0278852D01*
X0264120Y0278841D01*
X0264019Y0278834D01*
X0263918Y0278831D01*
X0263817Y0278832D01*
X0263716Y0278837D01*
X0263615Y0278846D01*
X0263515Y0278859D01*
X0263415Y0278876D01*
X0263317Y0278897D01*
X0263218Y0278921D01*
X0263121Y0278950D01*
X0263026Y0278982D01*
X0262931Y0279019D01*
X0262838Y0279058D01*
X0262747Y0279102D01*
X0262658Y0279149D01*
X0262570Y0279200D01*
X0262484Y0279254D01*
X0262401Y0279311D01*
X0262320Y0279371D01*
X0262242Y0279435D01*
X0262166Y0279502D01*
X0262092Y0279572D01*
X0262022Y0279644D01*
X0261955Y0279719D01*
X0261890Y0279797D01*
X0261829Y0279878D01*
X0261771Y0279960D01*
X0261716Y0280045D01*
X0261664Y0280132D01*
X0261616Y0280221D01*
X0261572Y0280312D01*
X0261531Y0280405D01*
X0261494Y0280499D01*
X0261461Y0280594D01*
X0261431Y0280691D01*
X0261406Y0280789D01*
X0261384Y0280888D01*
X0261366Y0280987D01*
X0261352Y0281087D01*
X0261342Y0281188D01*
X0261336Y0281289D01*
X0261334Y0281390D01*
X0196334Y0281390D02*
X0196336Y0281491D01*
X0196342Y0281592D01*
X0196352Y0281693D01*
X0196366Y0281793D01*
X0196384Y0281892D01*
X0196406Y0281991D01*
X0196431Y0282089D01*
X0196461Y0282186D01*
X0196494Y0282281D01*
X0196531Y0282375D01*
X0196572Y0282468D01*
X0196616Y0282559D01*
X0196664Y0282648D01*
X0196716Y0282735D01*
X0196771Y0282820D01*
X0196829Y0282902D01*
X0196890Y0282983D01*
X0196955Y0283061D01*
X0197022Y0283136D01*
X0197092Y0283208D01*
X0197166Y0283278D01*
X0197242Y0283345D01*
X0197320Y0283409D01*
X0197401Y0283469D01*
X0197484Y0283526D01*
X0197570Y0283580D01*
X0197658Y0283631D01*
X0197747Y0283678D01*
X0197838Y0283722D01*
X0197931Y0283761D01*
X0198026Y0283798D01*
X0198121Y0283830D01*
X0198218Y0283859D01*
X0198317Y0283883D01*
X0198415Y0283904D01*
X0198515Y0283921D01*
X0198615Y0283934D01*
X0198716Y0283943D01*
X0198817Y0283948D01*
X0198918Y0283949D01*
X0199019Y0283946D01*
X0199120Y0283939D01*
X0199221Y0283928D01*
X0199321Y0283913D01*
X0199420Y0283894D01*
X0199519Y0283871D01*
X0199616Y0283845D01*
X0199713Y0283814D01*
X0199808Y0283780D01*
X0199901Y0283742D01*
X0199994Y0283700D01*
X0200084Y0283655D01*
X0200173Y0283606D01*
X0200259Y0283554D01*
X0200343Y0283498D01*
X0200426Y0283439D01*
X0200505Y0283377D01*
X0200583Y0283312D01*
X0200657Y0283244D01*
X0200729Y0283172D01*
X0200798Y0283099D01*
X0200864Y0283022D01*
X0200927Y0282943D01*
X0200987Y0282861D01*
X0201043Y0282777D01*
X0201096Y0282691D01*
X0201146Y0282603D01*
X0201192Y0282513D01*
X0201235Y0282422D01*
X0201274Y0282328D01*
X0201309Y0282233D01*
X0201340Y0282137D01*
X0201368Y0282040D01*
X0201392Y0281942D01*
X0201412Y0281843D01*
X0201428Y0281743D01*
X0201440Y0281642D01*
X0201448Y0281542D01*
X0201452Y0281441D01*
X0201452Y0281339D01*
X0201448Y0281238D01*
X0201440Y0281138D01*
X0201428Y0281037D01*
X0201412Y0280937D01*
X0201392Y0280838D01*
X0201368Y0280740D01*
X0201340Y0280643D01*
X0201309Y0280547D01*
X0201274Y0280452D01*
X0201235Y0280358D01*
X0201192Y0280267D01*
X0201146Y0280177D01*
X0201096Y0280089D01*
X0201043Y0280003D01*
X0200987Y0279919D01*
X0200927Y0279837D01*
X0200864Y0279758D01*
X0200798Y0279681D01*
X0200729Y0279608D01*
X0200657Y0279536D01*
X0200583Y0279468D01*
X0200505Y0279403D01*
X0200426Y0279341D01*
X0200343Y0279282D01*
X0200259Y0279226D01*
X0200172Y0279174D01*
X0200084Y0279125D01*
X0199994Y0279080D01*
X0199901Y0279038D01*
X0199808Y0279000D01*
X0199713Y0278966D01*
X0199616Y0278935D01*
X0199519Y0278909D01*
X0199420Y0278886D01*
X0199321Y0278867D01*
X0199221Y0278852D01*
X0199120Y0278841D01*
X0199019Y0278834D01*
X0198918Y0278831D01*
X0198817Y0278832D01*
X0198716Y0278837D01*
X0198615Y0278846D01*
X0198515Y0278859D01*
X0198415Y0278876D01*
X0198317Y0278897D01*
X0198218Y0278921D01*
X0198121Y0278950D01*
X0198026Y0278982D01*
X0197931Y0279019D01*
X0197838Y0279058D01*
X0197747Y0279102D01*
X0197658Y0279149D01*
X0197570Y0279200D01*
X0197484Y0279254D01*
X0197401Y0279311D01*
X0197320Y0279371D01*
X0197242Y0279435D01*
X0197166Y0279502D01*
X0197092Y0279572D01*
X0197022Y0279644D01*
X0196955Y0279719D01*
X0196890Y0279797D01*
X0196829Y0279878D01*
X0196771Y0279960D01*
X0196716Y0280045D01*
X0196664Y0280132D01*
X0196616Y0280221D01*
X0196572Y0280312D01*
X0196531Y0280405D01*
X0196494Y0280499D01*
X0196461Y0280594D01*
X0196431Y0280691D01*
X0196406Y0280789D01*
X0196384Y0280888D01*
X0196366Y0280987D01*
X0196352Y0281087D01*
X0196342Y0281188D01*
X0196336Y0281289D01*
X0196334Y0281390D01*
X0131334Y0281390D02*
X0131336Y0281491D01*
X0131342Y0281592D01*
X0131352Y0281693D01*
X0131366Y0281793D01*
X0131384Y0281892D01*
X0131406Y0281991D01*
X0131431Y0282089D01*
X0131461Y0282186D01*
X0131494Y0282281D01*
X0131531Y0282375D01*
X0131572Y0282468D01*
X0131616Y0282559D01*
X0131664Y0282648D01*
X0131716Y0282735D01*
X0131771Y0282820D01*
X0131829Y0282902D01*
X0131890Y0282983D01*
X0131955Y0283061D01*
X0132022Y0283136D01*
X0132092Y0283208D01*
X0132166Y0283278D01*
X0132242Y0283345D01*
X0132320Y0283409D01*
X0132401Y0283469D01*
X0132484Y0283526D01*
X0132570Y0283580D01*
X0132658Y0283631D01*
X0132747Y0283678D01*
X0132838Y0283722D01*
X0132931Y0283761D01*
X0133026Y0283798D01*
X0133121Y0283830D01*
X0133218Y0283859D01*
X0133317Y0283883D01*
X0133415Y0283904D01*
X0133515Y0283921D01*
X0133615Y0283934D01*
X0133716Y0283943D01*
X0133817Y0283948D01*
X0133918Y0283949D01*
X0134019Y0283946D01*
X0134120Y0283939D01*
X0134221Y0283928D01*
X0134321Y0283913D01*
X0134420Y0283894D01*
X0134519Y0283871D01*
X0134616Y0283845D01*
X0134713Y0283814D01*
X0134808Y0283780D01*
X0134901Y0283742D01*
X0134994Y0283700D01*
X0135084Y0283655D01*
X0135173Y0283606D01*
X0135259Y0283554D01*
X0135343Y0283498D01*
X0135426Y0283439D01*
X0135505Y0283377D01*
X0135583Y0283312D01*
X0135657Y0283244D01*
X0135729Y0283172D01*
X0135798Y0283099D01*
X0135864Y0283022D01*
X0135927Y0282943D01*
X0135987Y0282861D01*
X0136043Y0282777D01*
X0136096Y0282691D01*
X0136146Y0282603D01*
X0136192Y0282513D01*
X0136235Y0282422D01*
X0136274Y0282328D01*
X0136309Y0282233D01*
X0136340Y0282137D01*
X0136368Y0282040D01*
X0136392Y0281942D01*
X0136412Y0281843D01*
X0136428Y0281743D01*
X0136440Y0281642D01*
X0136448Y0281542D01*
X0136452Y0281441D01*
X0136452Y0281339D01*
X0136448Y0281238D01*
X0136440Y0281138D01*
X0136428Y0281037D01*
X0136412Y0280937D01*
X0136392Y0280838D01*
X0136368Y0280740D01*
X0136340Y0280643D01*
X0136309Y0280547D01*
X0136274Y0280452D01*
X0136235Y0280358D01*
X0136192Y0280267D01*
X0136146Y0280177D01*
X0136096Y0280089D01*
X0136043Y0280003D01*
X0135987Y0279919D01*
X0135927Y0279837D01*
X0135864Y0279758D01*
X0135798Y0279681D01*
X0135729Y0279608D01*
X0135657Y0279536D01*
X0135583Y0279468D01*
X0135505Y0279403D01*
X0135426Y0279341D01*
X0135343Y0279282D01*
X0135259Y0279226D01*
X0135172Y0279174D01*
X0135084Y0279125D01*
X0134994Y0279080D01*
X0134901Y0279038D01*
X0134808Y0279000D01*
X0134713Y0278966D01*
X0134616Y0278935D01*
X0134519Y0278909D01*
X0134420Y0278886D01*
X0134321Y0278867D01*
X0134221Y0278852D01*
X0134120Y0278841D01*
X0134019Y0278834D01*
X0133918Y0278831D01*
X0133817Y0278832D01*
X0133716Y0278837D01*
X0133615Y0278846D01*
X0133515Y0278859D01*
X0133415Y0278876D01*
X0133317Y0278897D01*
X0133218Y0278921D01*
X0133121Y0278950D01*
X0133026Y0278982D01*
X0132931Y0279019D01*
X0132838Y0279058D01*
X0132747Y0279102D01*
X0132658Y0279149D01*
X0132570Y0279200D01*
X0132484Y0279254D01*
X0132401Y0279311D01*
X0132320Y0279371D01*
X0132242Y0279435D01*
X0132166Y0279502D01*
X0132092Y0279572D01*
X0132022Y0279644D01*
X0131955Y0279719D01*
X0131890Y0279797D01*
X0131829Y0279878D01*
X0131771Y0279960D01*
X0131716Y0280045D01*
X0131664Y0280132D01*
X0131616Y0280221D01*
X0131572Y0280312D01*
X0131531Y0280405D01*
X0131494Y0280499D01*
X0131461Y0280594D01*
X0131431Y0280691D01*
X0131406Y0280789D01*
X0131384Y0280888D01*
X0131366Y0280987D01*
X0131352Y0281087D01*
X0131342Y0281188D01*
X0131336Y0281289D01*
X0131334Y0281390D01*
X0093686Y0283969D02*
X0093686Y0285937D01*
X0070064Y0285937D01*
X0070064Y0283969D01*
X0070064Y0264284D02*
X0070064Y0262315D01*
X0093686Y0262315D01*
X0093686Y0264284D01*
X0091531Y0247532D02*
X0090546Y0247532D01*
X0091531Y0247532D02*
X0091531Y0235721D01*
X0090546Y0235721D01*
X0080704Y0235721D02*
X0079719Y0235721D01*
X0079719Y0247532D01*
X0080704Y0247532D01*
X0103017Y0237926D02*
X0120733Y0237926D01*
X0120733Y0225327D02*
X0103017Y0225327D01*
X0056963Y0257376D02*
X0055161Y0257376D01*
X0056062Y0257376D02*
X0056062Y0260079D01*
X0055161Y0259178D01*
X0054016Y0257376D02*
X0052215Y0257376D01*
X0053115Y0257376D02*
X0053115Y0260079D01*
X0052215Y0259178D01*
X0051070Y0258728D02*
X0051070Y0257827D01*
X0050619Y0257376D01*
X0049718Y0257376D01*
X0049268Y0257827D01*
X0049268Y0258728D02*
X0050169Y0259178D01*
X0050619Y0259178D01*
X0051070Y0258728D01*
X0051070Y0260079D02*
X0049268Y0260079D01*
X0049268Y0258728D01*
X0048123Y0257376D02*
X0046322Y0257376D01*
X0047222Y0257376D02*
X0047222Y0260079D01*
X0046322Y0259178D01*
X0045177Y0260079D02*
X0043375Y0257376D01*
X0045177Y0257376D02*
X0043375Y0260079D01*
X0043822Y0290876D02*
X0045623Y0292678D01*
X0045623Y0293128D01*
X0045173Y0293579D01*
X0044272Y0293579D01*
X0043822Y0293128D01*
X0041776Y0293579D02*
X0041776Y0290876D01*
X0040875Y0290876D02*
X0042677Y0290876D01*
X0043822Y0290876D02*
X0045623Y0290876D01*
X0046768Y0291777D02*
X0047669Y0290876D01*
X0048570Y0291777D01*
X0048570Y0293579D01*
X0046768Y0293579D02*
X0046768Y0291777D01*
X0041776Y0293579D02*
X0040875Y0292678D01*
X0052048Y0310626D02*
X0054750Y0312428D01*
X0054750Y0313573D02*
X0054750Y0315375D01*
X0054750Y0314474D02*
X0052048Y0314474D01*
X0052948Y0313573D01*
X0052048Y0312428D02*
X0054750Y0310626D01*
X0054750Y0316519D02*
X0052948Y0318321D01*
X0052498Y0318321D01*
X0052048Y0317871D01*
X0052048Y0316970D01*
X0052498Y0316519D01*
X0054750Y0316519D02*
X0054750Y0318321D01*
X0054750Y0319466D02*
X0054750Y0321268D01*
X0054750Y0320367D02*
X0052048Y0320367D01*
X0052948Y0319466D01*
X0052948Y0322413D02*
X0052048Y0323313D01*
X0054750Y0323313D01*
X0054750Y0322413D02*
X0054750Y0324214D01*
X0080173Y0340001D02*
X0082875Y0341803D01*
X0082875Y0342948D02*
X0082875Y0344750D01*
X0082875Y0343849D02*
X0080173Y0343849D01*
X0081073Y0342948D01*
X0080173Y0341803D02*
X0082875Y0340001D01*
X0082425Y0345894D02*
X0082875Y0346345D01*
X0082875Y0347246D01*
X0082425Y0347696D01*
X0081974Y0347696D01*
X0081524Y0347246D01*
X0081524Y0345894D01*
X0082425Y0345894D01*
X0081524Y0345894D02*
X0080623Y0346795D01*
X0080173Y0347696D01*
X0080623Y0348841D02*
X0080173Y0349291D01*
X0080173Y0350192D01*
X0080623Y0350643D01*
X0082425Y0348841D01*
X0082875Y0349291D01*
X0082875Y0350192D01*
X0082425Y0350643D01*
X0080623Y0350643D01*
X0081073Y0351788D02*
X0080173Y0352688D01*
X0082875Y0352688D01*
X0082875Y0351788D02*
X0082875Y0353589D01*
X0082425Y0348841D02*
X0080623Y0348841D01*
X0090250Y0360001D02*
X0092052Y0361803D01*
X0092052Y0362253D01*
X0091601Y0362704D01*
X0090700Y0362704D01*
X0090250Y0362253D01*
X0090250Y0360001D02*
X0092052Y0360001D01*
X0091151Y0333954D02*
X0091151Y0331251D01*
X0090250Y0331251D02*
X0092052Y0331251D01*
X0090250Y0333053D02*
X0091151Y0333954D01*
X0250172Y0191626D02*
X0250174Y0191734D01*
X0250180Y0191843D01*
X0250190Y0191951D01*
X0250204Y0192058D01*
X0250222Y0192165D01*
X0250243Y0192272D01*
X0250269Y0192377D01*
X0250299Y0192482D01*
X0250332Y0192585D01*
X0250369Y0192687D01*
X0250410Y0192787D01*
X0250454Y0192886D01*
X0250503Y0192984D01*
X0250554Y0193079D01*
X0250609Y0193172D01*
X0250668Y0193264D01*
X0250730Y0193353D01*
X0250795Y0193440D01*
X0250863Y0193524D01*
X0250934Y0193606D01*
X0251008Y0193685D01*
X0251085Y0193761D01*
X0251165Y0193835D01*
X0251248Y0193905D01*
X0251333Y0193973D01*
X0251420Y0194037D01*
X0251510Y0194098D01*
X0251602Y0194156D01*
X0251696Y0194210D01*
X0251792Y0194261D01*
X0251889Y0194308D01*
X0251989Y0194352D01*
X0252090Y0194392D01*
X0252192Y0194428D01*
X0252295Y0194460D01*
X0252400Y0194489D01*
X0252506Y0194513D01*
X0252612Y0194534D01*
X0252719Y0194551D01*
X0252827Y0194564D01*
X0252935Y0194573D01*
X0253044Y0194578D01*
X0253152Y0194579D01*
X0253261Y0194576D01*
X0253369Y0194569D01*
X0253477Y0194558D01*
X0253584Y0194543D01*
X0253691Y0194524D01*
X0253797Y0194501D01*
X0253902Y0194475D01*
X0254007Y0194444D01*
X0254109Y0194410D01*
X0254211Y0194372D01*
X0254311Y0194330D01*
X0254410Y0194285D01*
X0254507Y0194236D01*
X0254601Y0194183D01*
X0254694Y0194127D01*
X0254785Y0194068D01*
X0254874Y0194005D01*
X0254960Y0193940D01*
X0255044Y0193871D01*
X0255125Y0193799D01*
X0255203Y0193724D01*
X0255279Y0193646D01*
X0255352Y0193565D01*
X0255422Y0193482D01*
X0255488Y0193397D01*
X0255552Y0193309D01*
X0255612Y0193218D01*
X0255669Y0193126D01*
X0255722Y0193031D01*
X0255772Y0192935D01*
X0255818Y0192837D01*
X0255861Y0192737D01*
X0255900Y0192636D01*
X0255935Y0192533D01*
X0255967Y0192430D01*
X0255994Y0192325D01*
X0256018Y0192219D01*
X0256038Y0192112D01*
X0256054Y0192005D01*
X0256066Y0191897D01*
X0256074Y0191789D01*
X0256078Y0191680D01*
X0256078Y0191572D01*
X0256074Y0191463D01*
X0256066Y0191355D01*
X0256054Y0191247D01*
X0256038Y0191140D01*
X0256018Y0191033D01*
X0255994Y0190927D01*
X0255967Y0190822D01*
X0255935Y0190719D01*
X0255900Y0190616D01*
X0255861Y0190515D01*
X0255818Y0190415D01*
X0255772Y0190317D01*
X0255722Y0190221D01*
X0255669Y0190126D01*
X0255612Y0190034D01*
X0255552Y0189943D01*
X0255488Y0189855D01*
X0255422Y0189770D01*
X0255352Y0189687D01*
X0255279Y0189606D01*
X0255203Y0189528D01*
X0255125Y0189453D01*
X0255044Y0189381D01*
X0254960Y0189312D01*
X0254874Y0189247D01*
X0254785Y0189184D01*
X0254694Y0189125D01*
X0254602Y0189069D01*
X0254507Y0189016D01*
X0254410Y0188967D01*
X0254311Y0188922D01*
X0254211Y0188880D01*
X0254109Y0188842D01*
X0254007Y0188808D01*
X0253902Y0188777D01*
X0253797Y0188751D01*
X0253691Y0188728D01*
X0253584Y0188709D01*
X0253477Y0188694D01*
X0253369Y0188683D01*
X0253261Y0188676D01*
X0253152Y0188673D01*
X0253044Y0188674D01*
X0252935Y0188679D01*
X0252827Y0188688D01*
X0252719Y0188701D01*
X0252612Y0188718D01*
X0252506Y0188739D01*
X0252400Y0188763D01*
X0252295Y0188792D01*
X0252192Y0188824D01*
X0252090Y0188860D01*
X0251989Y0188900D01*
X0251889Y0188944D01*
X0251792Y0188991D01*
X0251696Y0189042D01*
X0251602Y0189096D01*
X0251510Y0189154D01*
X0251420Y0189215D01*
X0251333Y0189279D01*
X0251248Y0189347D01*
X0251165Y0189417D01*
X0251085Y0189491D01*
X0251008Y0189567D01*
X0250934Y0189646D01*
X0250863Y0189728D01*
X0250795Y0189812D01*
X0250730Y0189899D01*
X0250668Y0189988D01*
X0250609Y0190080D01*
X0250554Y0190173D01*
X0250503Y0190268D01*
X0250454Y0190366D01*
X0250410Y0190465D01*
X0250369Y0190565D01*
X0250332Y0190667D01*
X0250299Y0190770D01*
X0250269Y0190875D01*
X0250243Y0190980D01*
X0250222Y0191087D01*
X0250204Y0191194D01*
X0250190Y0191301D01*
X0250180Y0191409D01*
X0250174Y0191518D01*
X0250172Y0191626D01*
X0251156Y0191626D02*
X0251158Y0191714D01*
X0251164Y0191802D01*
X0251174Y0191890D01*
X0251188Y0191978D01*
X0251205Y0192064D01*
X0251227Y0192150D01*
X0251252Y0192234D01*
X0251282Y0192318D01*
X0251314Y0192400D01*
X0251351Y0192480D01*
X0251391Y0192559D01*
X0251435Y0192636D01*
X0251482Y0192711D01*
X0251532Y0192783D01*
X0251586Y0192854D01*
X0251642Y0192921D01*
X0251702Y0192987D01*
X0251764Y0193049D01*
X0251830Y0193109D01*
X0251897Y0193165D01*
X0251968Y0193219D01*
X0252040Y0193269D01*
X0252115Y0193316D01*
X0252192Y0193360D01*
X0252271Y0193400D01*
X0252351Y0193437D01*
X0252433Y0193469D01*
X0252517Y0193499D01*
X0252601Y0193524D01*
X0252687Y0193546D01*
X0252773Y0193563D01*
X0252861Y0193577D01*
X0252949Y0193587D01*
X0253037Y0193593D01*
X0253125Y0193595D01*
X0253213Y0193593D01*
X0253301Y0193587D01*
X0253389Y0193577D01*
X0253477Y0193563D01*
X0253563Y0193546D01*
X0253649Y0193524D01*
X0253733Y0193499D01*
X0253817Y0193469D01*
X0253899Y0193437D01*
X0253979Y0193400D01*
X0254058Y0193360D01*
X0254135Y0193316D01*
X0254210Y0193269D01*
X0254282Y0193219D01*
X0254353Y0193165D01*
X0254420Y0193109D01*
X0254486Y0193049D01*
X0254548Y0192987D01*
X0254608Y0192921D01*
X0254664Y0192854D01*
X0254718Y0192783D01*
X0254768Y0192711D01*
X0254815Y0192636D01*
X0254859Y0192559D01*
X0254899Y0192480D01*
X0254936Y0192400D01*
X0254968Y0192318D01*
X0254998Y0192234D01*
X0255023Y0192150D01*
X0255045Y0192064D01*
X0255062Y0191978D01*
X0255076Y0191890D01*
X0255086Y0191802D01*
X0255092Y0191714D01*
X0255094Y0191626D01*
X0255092Y0191538D01*
X0255086Y0191450D01*
X0255076Y0191362D01*
X0255062Y0191274D01*
X0255045Y0191188D01*
X0255023Y0191102D01*
X0254998Y0191018D01*
X0254968Y0190934D01*
X0254936Y0190852D01*
X0254899Y0190772D01*
X0254859Y0190693D01*
X0254815Y0190616D01*
X0254768Y0190541D01*
X0254718Y0190469D01*
X0254664Y0190398D01*
X0254608Y0190331D01*
X0254548Y0190265D01*
X0254486Y0190203D01*
X0254420Y0190143D01*
X0254353Y0190087D01*
X0254282Y0190033D01*
X0254210Y0189983D01*
X0254135Y0189936D01*
X0254058Y0189892D01*
X0253979Y0189852D01*
X0253899Y0189815D01*
X0253817Y0189783D01*
X0253733Y0189753D01*
X0253649Y0189728D01*
X0253563Y0189706D01*
X0253477Y0189689D01*
X0253389Y0189675D01*
X0253301Y0189665D01*
X0253213Y0189659D01*
X0253125Y0189657D01*
X0253037Y0189659D01*
X0252949Y0189665D01*
X0252861Y0189675D01*
X0252773Y0189689D01*
X0252687Y0189706D01*
X0252601Y0189728D01*
X0252517Y0189753D01*
X0252433Y0189783D01*
X0252351Y0189815D01*
X0252271Y0189852D01*
X0252192Y0189892D01*
X0252115Y0189936D01*
X0252040Y0189983D01*
X0251968Y0190033D01*
X0251897Y0190087D01*
X0251830Y0190143D01*
X0251764Y0190203D01*
X0251702Y0190265D01*
X0251642Y0190331D01*
X0251586Y0190398D01*
X0251532Y0190469D01*
X0251482Y0190541D01*
X0251435Y0190616D01*
X0251391Y0190693D01*
X0251351Y0190772D01*
X0251314Y0190852D01*
X0251282Y0190934D01*
X0251252Y0191018D01*
X0251227Y0191102D01*
X0251205Y0191188D01*
X0251188Y0191274D01*
X0251174Y0191362D01*
X0251164Y0191450D01*
X0251158Y0191538D01*
X0251156Y0191626D01*
X0282125Y0213751D02*
X0283476Y0213751D01*
X0283927Y0214202D01*
X0283927Y0214652D01*
X0283476Y0215103D01*
X0282125Y0215103D01*
X0282125Y0216454D02*
X0282125Y0213751D01*
X0283476Y0215103D02*
X0283927Y0215553D01*
X0283927Y0216003D01*
X0283476Y0216454D01*
X0282125Y0216454D01*
X0285072Y0216003D02*
X0285072Y0214202D01*
X0285522Y0213751D01*
X0286423Y0213751D01*
X0286873Y0214202D01*
X0286873Y0216003D01*
X0286423Y0216454D01*
X0285522Y0216454D01*
X0285072Y0216003D01*
X0288018Y0216003D02*
X0288018Y0214202D01*
X0288468Y0213751D01*
X0289369Y0213751D01*
X0289820Y0214202D01*
X0289820Y0216003D01*
X0289369Y0216454D01*
X0288468Y0216454D01*
X0288018Y0216003D01*
X0290965Y0216454D02*
X0292766Y0216454D01*
X0291865Y0216454D02*
X0291865Y0213751D01*
X0293911Y0214202D02*
X0295713Y0216003D01*
X0295713Y0214202D01*
X0295262Y0213751D01*
X0294361Y0213751D01*
X0293911Y0214202D01*
X0293911Y0216003D01*
X0294361Y0216454D01*
X0295262Y0216454D01*
X0295713Y0216003D01*
X0295748Y0207589D02*
X0295298Y0207139D01*
X0295298Y0206238D01*
X0295748Y0205788D01*
X0295748Y0204643D02*
X0295298Y0204192D01*
X0295298Y0203291D01*
X0295748Y0202841D01*
X0295748Y0201696D02*
X0295298Y0201246D01*
X0295298Y0200345D01*
X0295748Y0199894D01*
X0295748Y0198750D02*
X0295298Y0198299D01*
X0295298Y0197398D01*
X0295748Y0196948D01*
X0297550Y0196948D01*
X0295748Y0198750D01*
X0297550Y0198750D01*
X0298000Y0198299D01*
X0298000Y0197398D01*
X0297550Y0196948D01*
X0298000Y0195803D02*
X0295298Y0194001D01*
X0295298Y0195803D02*
X0298000Y0194001D01*
X0298000Y0199894D02*
X0296198Y0201696D01*
X0295748Y0201696D01*
X0298000Y0201696D02*
X0298000Y0199894D01*
X0298000Y0202841D02*
X0296198Y0204643D01*
X0295748Y0204643D01*
X0298000Y0204643D02*
X0298000Y0202841D01*
X0298000Y0205788D02*
X0296198Y0207589D01*
X0295748Y0207589D01*
X0298000Y0207589D02*
X0298000Y0205788D01*
X0329548Y0187769D02*
X0332250Y0187769D01*
X0332250Y0189571D01*
X0331800Y0186625D02*
X0332250Y0186174D01*
X0332250Y0185273D01*
X0331800Y0184823D01*
X0329998Y0184823D01*
X0329548Y0185273D01*
X0329548Y0186174D01*
X0329998Y0186625D01*
X0329998Y0183678D02*
X0329548Y0183228D01*
X0329548Y0182327D01*
X0329998Y0181876D01*
X0330448Y0181876D01*
X0330899Y0182327D01*
X0330899Y0183228D01*
X0331349Y0183678D01*
X0331800Y0183678D01*
X0332250Y0183228D01*
X0332250Y0182327D01*
X0331800Y0181876D01*
X0339548Y0182327D02*
X0339998Y0181876D01*
X0340448Y0181876D01*
X0340899Y0182327D01*
X0340899Y0183228D01*
X0341349Y0183678D01*
X0341800Y0183678D01*
X0342250Y0183228D01*
X0342250Y0182327D01*
X0341800Y0181876D01*
X0339548Y0182327D02*
X0339548Y0183228D01*
X0339998Y0183678D01*
X0339548Y0184823D02*
X0339548Y0186174D01*
X0339998Y0186625D01*
X0341800Y0186625D01*
X0342250Y0186174D01*
X0342250Y0184823D01*
X0339548Y0184823D01*
X0340448Y0187769D02*
X0339548Y0188670D01*
X0340448Y0189571D01*
X0342250Y0189571D01*
X0340899Y0189571D02*
X0340899Y0187769D01*
X0340448Y0187769D02*
X0342250Y0187769D01*
X0347673Y0194376D02*
X0350375Y0196178D01*
X0349925Y0197323D02*
X0348123Y0199125D01*
X0349925Y0199125D01*
X0350375Y0198674D01*
X0350375Y0197773D01*
X0349925Y0197323D01*
X0348123Y0197323D01*
X0347673Y0197773D01*
X0347673Y0198674D01*
X0348123Y0199125D01*
X0349024Y0200269D02*
X0349024Y0201621D01*
X0349474Y0202071D01*
X0349925Y0202071D01*
X0350375Y0201621D01*
X0350375Y0200720D01*
X0349925Y0200269D01*
X0349024Y0200269D01*
X0348123Y0201170D01*
X0347673Y0202071D01*
X0348123Y0203216D02*
X0347673Y0203666D01*
X0347673Y0204567D01*
X0348123Y0205018D01*
X0349925Y0203216D01*
X0350375Y0203666D01*
X0350375Y0204567D01*
X0349925Y0205018D01*
X0348123Y0205018D01*
X0348573Y0206163D02*
X0347673Y0207063D01*
X0350375Y0207063D01*
X0350375Y0206163D02*
X0350375Y0207964D01*
X0349925Y0203216D02*
X0348123Y0203216D01*
X0347673Y0196178D02*
X0350375Y0194376D01*
X0338387Y0213751D02*
X0338837Y0214202D01*
X0338387Y0213751D02*
X0337486Y0213751D01*
X0337036Y0214202D01*
X0337036Y0216003D01*
X0337486Y0216454D01*
X0338387Y0216454D01*
X0338837Y0216003D01*
X0335891Y0216003D02*
X0335440Y0216454D01*
X0334540Y0216454D01*
X0334089Y0216003D01*
X0333026Y0216454D02*
X0332125Y0216454D01*
X0332575Y0216454D02*
X0332575Y0213751D01*
X0332125Y0213751D02*
X0333026Y0213751D01*
X0334089Y0213751D02*
X0335891Y0215553D01*
X0335891Y0216003D01*
X0335891Y0213751D02*
X0334089Y0213751D01*
X0374548Y0213573D02*
X0374548Y0215375D01*
X0374548Y0214474D02*
X0377250Y0214474D01*
X0377250Y0216519D02*
X0374548Y0216519D01*
X0374548Y0217871D01*
X0374998Y0218321D01*
X0375899Y0218321D01*
X0376349Y0217871D01*
X0376349Y0216519D01*
X0376349Y0217420D02*
X0377250Y0218321D01*
X0377250Y0212428D02*
X0376349Y0211527D01*
X0376349Y0211978D02*
X0376349Y0210626D01*
X0377250Y0210626D02*
X0374548Y0210626D01*
X0374548Y0211978D01*
X0374998Y0212428D01*
X0375899Y0212428D01*
X0376349Y0211978D01*
X0384000Y0204579D02*
X0385802Y0201876D01*
X0386947Y0201876D02*
X0388748Y0201876D01*
X0387847Y0201876D02*
X0387847Y0204579D01*
X0386947Y0203678D01*
X0385802Y0204579D02*
X0384000Y0201876D01*
X0389893Y0202327D02*
X0391695Y0204128D01*
X0391695Y0202327D01*
X0391244Y0201876D01*
X0390343Y0201876D01*
X0389893Y0202327D01*
X0389893Y0204128D01*
X0390343Y0204579D01*
X0391244Y0204579D01*
X0391695Y0204128D01*
X0392840Y0204579D02*
X0392840Y0203228D01*
X0393740Y0203678D01*
X0394191Y0203678D01*
X0394641Y0203228D01*
X0394641Y0202327D01*
X0394191Y0201876D01*
X0393290Y0201876D01*
X0392840Y0202327D01*
X0392840Y0204579D02*
X0394641Y0204579D01*
X0395786Y0204128D02*
X0396236Y0204579D01*
X0397137Y0204579D01*
X0397588Y0204128D01*
X0397588Y0203678D01*
X0397137Y0203228D01*
X0397588Y0202777D01*
X0397588Y0202327D01*
X0397137Y0201876D01*
X0396236Y0201876D01*
X0395786Y0202327D01*
X0396687Y0203228D02*
X0397137Y0203228D01*
X0376800Y0230626D02*
X0377250Y0231077D01*
X0377250Y0231978D01*
X0376800Y0232428D01*
X0376800Y0230626D02*
X0374998Y0230626D01*
X0374548Y0231077D01*
X0374548Y0231978D01*
X0374998Y0232428D01*
X0374548Y0233573D02*
X0374548Y0235375D01*
X0374548Y0234474D02*
X0377250Y0234474D01*
X0376800Y0236519D02*
X0377250Y0236970D01*
X0377250Y0237871D01*
X0376800Y0238321D01*
X0376349Y0238321D01*
X0375899Y0237871D01*
X0375899Y0236970D01*
X0375448Y0236519D01*
X0374998Y0236519D01*
X0374548Y0236970D01*
X0374548Y0237871D01*
X0374998Y0238321D01*
X0384000Y0248126D02*
X0385802Y0250829D01*
X0386947Y0249928D02*
X0387847Y0250829D01*
X0387847Y0248126D01*
X0386947Y0248126D02*
X0388748Y0248126D01*
X0389893Y0248577D02*
X0391695Y0250378D01*
X0391695Y0248577D01*
X0391244Y0248126D01*
X0390343Y0248126D01*
X0389893Y0248577D01*
X0389893Y0250378D01*
X0390343Y0250829D01*
X0391244Y0250829D01*
X0391695Y0250378D01*
X0392840Y0250829D02*
X0392840Y0249478D01*
X0393740Y0249928D01*
X0394191Y0249928D01*
X0394641Y0249478D01*
X0394641Y0248577D01*
X0394191Y0248126D01*
X0393290Y0248126D01*
X0392840Y0248577D01*
X0392840Y0250829D02*
X0394641Y0250829D01*
X0395786Y0250378D02*
X0396236Y0250829D01*
X0397137Y0250829D01*
X0397588Y0250378D01*
X0397588Y0249928D01*
X0395786Y0248126D01*
X0397588Y0248126D01*
X0385802Y0248126D02*
X0384000Y0250829D01*
X0376800Y0261876D02*
X0377250Y0262327D01*
X0377250Y0263228D01*
X0376800Y0263678D01*
X0375899Y0263678D01*
X0375899Y0262777D01*
X0374998Y0261876D02*
X0376800Y0261876D01*
X0374998Y0261876D02*
X0374548Y0262327D01*
X0374548Y0263228D01*
X0374998Y0263678D01*
X0374548Y0264823D02*
X0377250Y0266625D01*
X0374548Y0266625D01*
X0374548Y0267769D02*
X0374548Y0269121D01*
X0374998Y0269571D01*
X0376800Y0269571D01*
X0377250Y0269121D01*
X0377250Y0267769D01*
X0374548Y0267769D01*
X0374548Y0264823D02*
X0377250Y0264823D01*
X0376800Y0275626D02*
X0377250Y0276077D01*
X0377250Y0276978D01*
X0376800Y0277428D01*
X0375899Y0277428D01*
X0375899Y0276527D01*
X0374998Y0275626D02*
X0376800Y0275626D01*
X0374998Y0275626D02*
X0374548Y0276077D01*
X0374548Y0276978D01*
X0374998Y0277428D01*
X0374548Y0278573D02*
X0377250Y0280375D01*
X0374548Y0280375D01*
X0374548Y0281519D02*
X0374548Y0282871D01*
X0374998Y0283321D01*
X0376800Y0283321D01*
X0377250Y0282871D01*
X0377250Y0281519D01*
X0374548Y0281519D01*
X0374548Y0278573D02*
X0377250Y0278573D01*
X0384000Y0293126D02*
X0385802Y0295829D01*
X0386947Y0294928D02*
X0387847Y0295829D01*
X0387847Y0293126D01*
X0386947Y0293126D02*
X0388748Y0293126D01*
X0389893Y0293577D02*
X0391695Y0295378D01*
X0391695Y0293577D01*
X0391244Y0293126D01*
X0390343Y0293126D01*
X0389893Y0293577D01*
X0389893Y0295378D01*
X0390343Y0295829D01*
X0391244Y0295829D01*
X0391695Y0295378D01*
X0392840Y0295829D02*
X0392840Y0294478D01*
X0393740Y0294928D01*
X0394191Y0294928D01*
X0394641Y0294478D01*
X0394641Y0293577D01*
X0394191Y0293126D01*
X0393290Y0293126D01*
X0392840Y0293577D01*
X0392840Y0295829D02*
X0394641Y0295829D01*
X0395786Y0294928D02*
X0396687Y0295829D01*
X0396687Y0293126D01*
X0395786Y0293126D02*
X0397588Y0293126D01*
X0385802Y0293126D02*
X0384000Y0295829D01*
X0377250Y0301527D02*
X0374548Y0301527D01*
X0374548Y0300626D02*
X0374548Y0302428D01*
X0374548Y0303573D02*
X0377250Y0305375D01*
X0377250Y0306519D02*
X0377250Y0307871D01*
X0376800Y0308321D01*
X0374998Y0308321D01*
X0374548Y0307871D01*
X0374548Y0306519D01*
X0377250Y0306519D01*
X0374548Y0305375D02*
X0377250Y0303573D01*
X0377250Y0320626D02*
X0374548Y0320626D01*
X0374548Y0321978D01*
X0374998Y0322428D01*
X0375899Y0322428D01*
X0376349Y0321978D01*
X0376349Y0320626D01*
X0376349Y0321527D02*
X0377250Y0322428D01*
X0377250Y0323573D02*
X0374548Y0325375D01*
X0374548Y0326519D02*
X0374548Y0327871D01*
X0374998Y0328321D01*
X0376800Y0328321D01*
X0377250Y0327871D01*
X0377250Y0326519D01*
X0374548Y0326519D01*
X0377250Y0325375D02*
X0374548Y0323573D01*
X0350375Y0340001D02*
X0347673Y0341803D01*
X0348573Y0342948D02*
X0347673Y0343849D01*
X0350375Y0343849D01*
X0350375Y0342948D02*
X0350375Y0344750D01*
X0349925Y0345894D02*
X0350375Y0346345D01*
X0350375Y0347246D01*
X0349925Y0347696D01*
X0349474Y0347696D01*
X0349024Y0347246D01*
X0349024Y0345894D01*
X0349925Y0345894D01*
X0349024Y0345894D02*
X0348123Y0346795D01*
X0347673Y0347696D01*
X0348123Y0348841D02*
X0347673Y0349291D01*
X0347673Y0350192D01*
X0348123Y0350643D01*
X0349925Y0348841D01*
X0350375Y0349291D01*
X0350375Y0350192D01*
X0349925Y0350643D01*
X0348123Y0350643D01*
X0348123Y0351788D02*
X0347673Y0352238D01*
X0347673Y0353139D01*
X0348123Y0353589D01*
X0348573Y0353589D01*
X0350375Y0351788D01*
X0350375Y0353589D01*
X0349925Y0348841D02*
X0348123Y0348841D01*
X0350375Y0341803D02*
X0347673Y0340001D01*
X0345445Y0333954D02*
X0345445Y0332152D01*
X0344544Y0331251D01*
X0343643Y0332152D01*
X0343643Y0333954D01*
X0342498Y0333503D02*
X0342048Y0333954D01*
X0341147Y0333954D01*
X0340697Y0333503D01*
X0342498Y0333503D02*
X0342498Y0333053D01*
X0340697Y0331251D01*
X0342498Y0331251D01*
X0339552Y0331251D02*
X0337750Y0331251D01*
X0338651Y0331251D02*
X0338651Y0333954D01*
X0337750Y0333053D01*
X0335445Y0332152D02*
X0335445Y0333954D01*
X0335445Y0332152D02*
X0334544Y0331251D01*
X0333643Y0332152D01*
X0333643Y0333954D01*
X0332498Y0333503D02*
X0332048Y0333954D01*
X0331147Y0333954D01*
X0330697Y0333503D01*
X0332498Y0333503D02*
X0332498Y0333053D01*
X0330697Y0331251D01*
X0332498Y0331251D01*
X0329552Y0331251D02*
X0327750Y0331251D01*
X0328651Y0331251D02*
X0328651Y0333954D01*
X0327750Y0333053D01*
X0323748Y0332603D02*
X0323748Y0331702D01*
X0323298Y0331251D01*
X0322397Y0331251D01*
X0321947Y0331702D01*
X0321947Y0332603D02*
X0322847Y0333053D01*
X0323298Y0333053D01*
X0323748Y0332603D01*
X0323748Y0333954D02*
X0321947Y0333954D01*
X0321947Y0332603D01*
X0320802Y0333053D02*
X0320351Y0332603D01*
X0320802Y0332152D01*
X0320802Y0331702D01*
X0320351Y0331251D01*
X0319450Y0331251D01*
X0319000Y0331702D01*
X0319901Y0332603D02*
X0320351Y0332603D01*
X0320802Y0333053D02*
X0320802Y0333503D01*
X0320351Y0333954D01*
X0319450Y0333954D01*
X0319000Y0333503D01*
X0319450Y0360001D02*
X0319000Y0360452D01*
X0319450Y0360001D02*
X0320351Y0360001D01*
X0320802Y0360452D01*
X0320802Y0360902D01*
X0320351Y0361353D01*
X0319901Y0361353D01*
X0320351Y0361353D02*
X0320802Y0361803D01*
X0320802Y0362253D01*
X0320351Y0362704D01*
X0319450Y0362704D01*
X0319000Y0362253D01*
X0321947Y0361353D02*
X0323298Y0361353D01*
X0323748Y0360902D01*
X0323748Y0360452D01*
X0323298Y0360001D01*
X0322397Y0360001D01*
X0321947Y0360452D01*
X0321947Y0361353D01*
X0322847Y0362253D01*
X0323748Y0362704D01*
X0327750Y0361803D02*
X0328651Y0362704D01*
X0328651Y0360001D01*
X0327750Y0360001D02*
X0329552Y0360001D01*
X0330697Y0360001D02*
X0332498Y0361803D01*
X0332498Y0362253D01*
X0332048Y0362704D01*
X0331147Y0362704D01*
X0330697Y0362253D01*
X0330697Y0360001D02*
X0332498Y0360001D01*
X0333643Y0360902D02*
X0334544Y0360001D01*
X0335445Y0360902D01*
X0335445Y0362704D01*
X0333643Y0362704D02*
X0333643Y0360902D01*
X0337750Y0360001D02*
X0339552Y0360001D01*
X0338651Y0360001D02*
X0338651Y0362704D01*
X0337750Y0361803D01*
X0340697Y0362253D02*
X0341147Y0362704D01*
X0342048Y0362704D01*
X0342498Y0362253D01*
X0342498Y0361803D01*
X0340697Y0360001D01*
X0342498Y0360001D01*
X0343643Y0360902D02*
X0344544Y0360001D01*
X0345445Y0360902D01*
X0345445Y0362704D01*
X0343643Y0362704D02*
X0343643Y0360902D01*
X0385875Y0152079D02*
X0387677Y0149376D01*
X0388822Y0149376D02*
X0390623Y0149376D01*
X0389722Y0149376D02*
X0389722Y0152079D01*
X0388822Y0151178D01*
X0387677Y0152079D02*
X0385875Y0149376D01*
X0391768Y0150728D02*
X0393570Y0150728D01*
X0393119Y0152079D02*
X0391768Y0150728D01*
X0393119Y0152079D02*
X0393119Y0149376D01*
X0394715Y0149827D02*
X0396516Y0151628D01*
X0396516Y0149827D01*
X0396066Y0149376D01*
X0395165Y0149376D01*
X0394715Y0149827D01*
X0394715Y0151628D01*
X0395165Y0152079D01*
X0396066Y0152079D01*
X0396516Y0151628D01*
X0397661Y0151178D02*
X0398562Y0152079D01*
X0398562Y0149376D01*
X0397661Y0149376D02*
X0399463Y0149376D01*
X0348829Y0096629D02*
X0348829Y0093926D01*
X0347928Y0093926D02*
X0349730Y0093926D01*
X0347928Y0095728D02*
X0348829Y0096629D01*
X0346784Y0096178D02*
X0344982Y0094377D01*
X0345432Y0093926D01*
X0346333Y0093926D01*
X0346784Y0094377D01*
X0346784Y0096178D01*
X0346333Y0096629D01*
X0345432Y0096629D01*
X0344982Y0096178D01*
X0344982Y0094377D01*
X0343837Y0093926D02*
X0342035Y0093926D01*
X0343837Y0095728D01*
X0343837Y0096178D01*
X0343387Y0096629D01*
X0342486Y0096629D01*
X0342035Y0096178D01*
X0340890Y0096178D02*
X0339089Y0094377D01*
X0339539Y0093926D01*
X0340440Y0093926D01*
X0340890Y0094377D01*
X0340890Y0096178D01*
X0340440Y0096629D01*
X0339539Y0096629D01*
X0339089Y0096178D01*
X0339089Y0094377D01*
X0337944Y0093926D02*
X0336142Y0096629D01*
X0337944Y0096629D02*
X0336142Y0093926D01*
X0288213Y0096454D02*
X0286411Y0096454D01*
X0287312Y0096454D02*
X0287312Y0093751D01*
X0285266Y0093751D02*
X0283465Y0093751D01*
X0283465Y0096454D01*
X0285266Y0096454D01*
X0284365Y0095103D02*
X0283465Y0095103D01*
X0282320Y0094652D02*
X0282320Y0094202D01*
X0281869Y0093751D01*
X0280968Y0093751D01*
X0280518Y0094202D01*
X0280968Y0095103D02*
X0280518Y0095553D01*
X0280518Y0096003D01*
X0280968Y0096454D01*
X0281869Y0096454D01*
X0282320Y0096003D01*
X0281869Y0095103D02*
X0282320Y0094652D01*
X0281869Y0095103D02*
X0280968Y0095103D01*
X0279373Y0096454D02*
X0277572Y0096454D01*
X0277572Y0093751D01*
X0279373Y0093751D01*
X0278472Y0095103D02*
X0277572Y0095103D01*
X0276427Y0095103D02*
X0275976Y0094652D01*
X0274625Y0094652D01*
X0274625Y0093751D02*
X0274625Y0096454D01*
X0275976Y0096454D01*
X0276427Y0096003D01*
X0276427Y0095103D01*
X0275526Y0094652D02*
X0276427Y0093751D01*
X0219750Y0094376D02*
X0217048Y0096178D01*
X0217948Y0097323D02*
X0217048Y0098224D01*
X0219750Y0098224D01*
X0219750Y0097323D02*
X0219750Y0099125D01*
X0219750Y0100269D02*
X0219750Y0102071D01*
X0219750Y0101170D02*
X0217048Y0101170D01*
X0217948Y0100269D01*
X0218399Y0103216D02*
X0217948Y0104117D01*
X0217948Y0104567D01*
X0218399Y0105018D01*
X0219300Y0105018D01*
X0219750Y0104567D01*
X0219750Y0103666D01*
X0219300Y0103216D01*
X0218399Y0103216D02*
X0217048Y0103216D01*
X0217048Y0105018D01*
X0217948Y0106163D02*
X0217048Y0107063D01*
X0219750Y0107063D01*
X0219750Y0106163D02*
X0219750Y0107964D01*
X0207320Y0115452D02*
X0207320Y0117253D01*
X0206869Y0117704D01*
X0205518Y0117704D01*
X0205518Y0115001D01*
X0206869Y0115001D01*
X0207320Y0115452D01*
X0204373Y0115001D02*
X0202572Y0117704D01*
X0201427Y0117253D02*
X0201427Y0116353D01*
X0200976Y0115902D01*
X0199625Y0115902D01*
X0199625Y0115001D02*
X0199625Y0117704D01*
X0200976Y0117704D01*
X0201427Y0117253D01*
X0200526Y0115902D02*
X0201427Y0115001D01*
X0202572Y0115001D02*
X0204373Y0117704D01*
X0188570Y0117253D02*
X0188119Y0117704D01*
X0186768Y0117704D01*
X0186768Y0115001D01*
X0188119Y0115001D01*
X0188570Y0115452D01*
X0188570Y0117253D01*
X0185623Y0117704D02*
X0183822Y0115001D01*
X0185623Y0115001D02*
X0183822Y0117704D01*
X0182677Y0117704D02*
X0180875Y0117704D01*
X0181776Y0117704D02*
X0181776Y0115001D01*
X0174125Y0107964D02*
X0174125Y0106163D01*
X0172323Y0107964D01*
X0171873Y0107964D01*
X0171423Y0107514D01*
X0171423Y0106613D01*
X0171873Y0106163D01*
X0171423Y0105018D02*
X0171423Y0103216D01*
X0172774Y0103216D01*
X0172323Y0104117D01*
X0172323Y0104567D01*
X0172774Y0105018D01*
X0173675Y0105018D01*
X0174125Y0104567D01*
X0174125Y0103666D01*
X0173675Y0103216D01*
X0174125Y0102071D02*
X0174125Y0100269D01*
X0174125Y0101170D02*
X0171423Y0101170D01*
X0172323Y0100269D01*
X0174125Y0099125D02*
X0174125Y0097323D01*
X0174125Y0098224D02*
X0171423Y0098224D01*
X0172323Y0097323D01*
X0171423Y0096178D02*
X0174125Y0094376D01*
X0174125Y0096178D02*
X0171423Y0094376D01*
X0159369Y0115001D02*
X0159820Y0115452D01*
X0159820Y0117253D01*
X0159369Y0117704D01*
X0158018Y0117704D01*
X0158018Y0115001D01*
X0159369Y0115001D01*
X0156873Y0115001D02*
X0156873Y0117704D01*
X0155072Y0117704D02*
X0156873Y0115001D01*
X0155072Y0115001D02*
X0155072Y0117704D01*
X0153927Y0117253D02*
X0153476Y0117704D01*
X0152575Y0117704D01*
X0152125Y0117253D01*
X0152125Y0115452D01*
X0152575Y0115001D01*
X0153476Y0115001D01*
X0153927Y0115452D01*
X0153927Y0116353D01*
X0153026Y0116353D01*
X0142320Y0117253D02*
X0141869Y0117704D01*
X0140518Y0117704D01*
X0140518Y0115001D01*
X0141869Y0115001D01*
X0142320Y0115452D01*
X0142320Y0117253D01*
X0139373Y0117704D02*
X0139373Y0115001D01*
X0137572Y0117704D01*
X0137572Y0115001D01*
X0136427Y0115452D02*
X0136427Y0116353D01*
X0135526Y0116353D01*
X0136427Y0117253D02*
X0135976Y0117704D01*
X0135075Y0117704D01*
X0134625Y0117253D01*
X0134625Y0115452D01*
X0135075Y0115001D01*
X0135976Y0115001D01*
X0136427Y0115452D01*
X0128675Y0107964D02*
X0129125Y0107514D01*
X0129125Y0106613D01*
X0128675Y0106163D01*
X0128675Y0105018D02*
X0127774Y0105018D01*
X0127323Y0104567D01*
X0127323Y0104117D01*
X0127774Y0103216D01*
X0126423Y0103216D01*
X0126423Y0105018D01*
X0126873Y0106163D02*
X0126423Y0106613D01*
X0126423Y0107514D01*
X0126873Y0107964D01*
X0127323Y0107964D01*
X0127774Y0107514D01*
X0128224Y0107964D01*
X0128675Y0107964D01*
X0127774Y0107514D02*
X0127774Y0107063D01*
X0128675Y0105018D02*
X0129125Y0104567D01*
X0129125Y0103666D01*
X0128675Y0103216D01*
X0129125Y0102071D02*
X0129125Y0100269D01*
X0129125Y0101170D02*
X0126423Y0101170D01*
X0127323Y0100269D01*
X0129125Y0099125D02*
X0129125Y0097323D01*
X0129125Y0098224D02*
X0126423Y0098224D01*
X0127323Y0097323D01*
X0126423Y0096178D02*
X0129125Y0094376D01*
X0129125Y0096178D02*
X0126423Y0094376D01*
X0116869Y0115001D02*
X0115968Y0115001D01*
X0115518Y0115452D01*
X0115968Y0116353D02*
X0116869Y0116353D01*
X0117320Y0115902D01*
X0117320Y0115452D01*
X0116869Y0115001D01*
X0115968Y0116353D02*
X0115518Y0116803D01*
X0115518Y0117253D01*
X0115968Y0117704D01*
X0116869Y0117704D01*
X0117320Y0117253D01*
X0114373Y0117704D02*
X0112572Y0117704D01*
X0113472Y0117704D02*
X0113472Y0115001D01*
X0111427Y0115452D02*
X0110976Y0115001D01*
X0110075Y0115001D01*
X0109625Y0115452D01*
X0109625Y0117253D01*
X0110075Y0117704D01*
X0110976Y0117704D01*
X0111427Y0117253D01*
X0097320Y0117253D02*
X0097320Y0116353D01*
X0096869Y0115902D01*
X0095518Y0115902D01*
X0095518Y0115001D02*
X0095518Y0117704D01*
X0096869Y0117704D01*
X0097320Y0117253D01*
X0096419Y0115902D02*
X0097320Y0115001D01*
X0093472Y0115001D02*
X0093472Y0117704D01*
X0092572Y0117704D02*
X0094373Y0117704D01*
X0091427Y0117253D02*
X0091427Y0116353D01*
X0090976Y0115902D01*
X0089625Y0115902D01*
X0089625Y0115001D02*
X0089625Y0117704D01*
X0090976Y0117704D01*
X0091427Y0117253D01*
X0090526Y0115902D02*
X0091427Y0115001D01*
X0056963Y0173626D02*
X0055161Y0173626D01*
X0056062Y0173626D02*
X0056062Y0176329D01*
X0055161Y0175428D01*
X0054016Y0175878D02*
X0053566Y0176329D01*
X0052665Y0176329D01*
X0052215Y0175878D01*
X0052215Y0174077D01*
X0054016Y0175878D01*
X0054016Y0174077D01*
X0053566Y0173626D01*
X0052665Y0173626D01*
X0052215Y0174077D01*
X0051070Y0174077D02*
X0050619Y0173626D01*
X0049718Y0173626D01*
X0049268Y0174077D01*
X0049268Y0174978D02*
X0050169Y0175428D01*
X0050619Y0175428D01*
X0051070Y0174978D01*
X0051070Y0174077D01*
X0049268Y0174978D02*
X0049268Y0176329D01*
X0051070Y0176329D01*
X0047222Y0176329D02*
X0047222Y0173626D01*
X0046322Y0173626D02*
X0048123Y0173626D01*
X0046322Y0175428D02*
X0047222Y0176329D01*
X0045177Y0176329D02*
X0043375Y0173626D01*
X0045177Y0173626D02*
X0043375Y0176329D01*
X0217048Y0094376D02*
X0219750Y0096178D01*
D14*
X0215625Y0091626D02*
X0215625Y0086626D01*
X0195625Y0086626D01*
X0175625Y0086626D01*
X0175625Y0091626D01*
X0195625Y0091626D01*
X0195625Y0086626D01*
X0195625Y0091626D02*
X0215625Y0091626D01*
X0215625Y0111626D01*
X0195625Y0111626D01*
X0175625Y0111626D01*
X0175625Y0091626D01*
X0170625Y0091626D02*
X0170625Y0086626D01*
X0150625Y0086626D01*
X0130625Y0086626D01*
X0130625Y0091626D01*
X0150625Y0091626D01*
X0150625Y0086626D01*
X0150625Y0091626D02*
X0170625Y0091626D01*
X0170625Y0111626D01*
X0150625Y0111626D01*
X0130625Y0111626D01*
X0130625Y0091626D01*
X0125625Y0091626D02*
X0125625Y0086626D01*
X0105625Y0086626D01*
X0085625Y0086626D01*
X0085625Y0091626D01*
X0105625Y0091626D01*
X0105625Y0086626D01*
X0105625Y0091626D02*
X0125625Y0091626D01*
X0125625Y0111626D01*
X0105625Y0111626D01*
X0085625Y0111626D01*
X0085625Y0091626D01*
X0105625Y0091626D02*
X0105625Y0111626D01*
X0104076Y0121926D02*
X0104076Y0128332D01*
X0101941Y0128332D02*
X0106211Y0128332D01*
X0099766Y0126197D02*
X0099766Y0121926D01*
X0099766Y0125129D02*
X0095495Y0125129D01*
X0095495Y0126197D02*
X0095495Y0121926D01*
X0093320Y0122994D02*
X0092253Y0121926D01*
X0090118Y0121926D01*
X0089050Y0122994D01*
X0089050Y0127264D01*
X0090118Y0128332D01*
X0092253Y0128332D01*
X0093320Y0127264D01*
X0095495Y0126197D02*
X0097631Y0128332D01*
X0099766Y0126197D01*
X0114832Y0128332D02*
X0116967Y0128332D01*
X0115900Y0128332D02*
X0115900Y0121926D01*
X0116967Y0121926D02*
X0114832Y0121926D01*
X0119129Y0125129D02*
X0121264Y0125129D01*
X0123426Y0125129D02*
X0124494Y0126197D01*
X0127696Y0126197D01*
X0129871Y0122994D02*
X0130939Y0122994D01*
X0130939Y0121926D01*
X0129871Y0121926D01*
X0129871Y0122994D01*
X0127696Y0121926D02*
X0124494Y0121926D01*
X0123426Y0122994D01*
X0123426Y0125129D01*
X0121264Y0128332D02*
X0120197Y0127264D01*
X0120197Y0121926D01*
X0150625Y0111626D02*
X0150625Y0091626D01*
X0195625Y0091626D02*
X0195625Y0111626D01*
X0221125Y0101626D02*
X0221129Y0101957D01*
X0221141Y0102288D01*
X0221162Y0102619D01*
X0221190Y0102949D01*
X0221227Y0103279D01*
X0221271Y0103607D01*
X0221324Y0103934D01*
X0221384Y0104260D01*
X0221453Y0104584D01*
X0221530Y0104906D01*
X0221614Y0105227D01*
X0221706Y0105545D01*
X0221806Y0105861D01*
X0221914Y0106174D01*
X0222030Y0106485D01*
X0222153Y0106792D01*
X0222283Y0107097D01*
X0222421Y0107398D01*
X0222566Y0107696D01*
X0222719Y0107990D01*
X0222879Y0108280D01*
X0223046Y0108566D01*
X0223219Y0108848D01*
X0223400Y0109126D01*
X0223588Y0109399D01*
X0223782Y0109668D01*
X0223982Y0109932D01*
X0224189Y0110190D01*
X0224403Y0110444D01*
X0224622Y0110692D01*
X0224848Y0110935D01*
X0225079Y0111172D01*
X0225316Y0111403D01*
X0225559Y0111629D01*
X0225807Y0111848D01*
X0226061Y0112062D01*
X0226319Y0112269D01*
X0226583Y0112469D01*
X0226852Y0112663D01*
X0227125Y0112851D01*
X0227403Y0113032D01*
X0227685Y0113205D01*
X0227971Y0113372D01*
X0228261Y0113532D01*
X0228555Y0113685D01*
X0228853Y0113830D01*
X0229154Y0113968D01*
X0229459Y0114098D01*
X0229766Y0114221D01*
X0230077Y0114337D01*
X0230390Y0114445D01*
X0230706Y0114545D01*
X0231024Y0114637D01*
X0231345Y0114721D01*
X0231667Y0114798D01*
X0231991Y0114867D01*
X0232317Y0114927D01*
X0232644Y0114980D01*
X0232972Y0115024D01*
X0233302Y0115061D01*
X0233632Y0115089D01*
X0233963Y0115110D01*
X0234294Y0115122D01*
X0234625Y0115126D01*
X0234956Y0115122D01*
X0235287Y0115110D01*
X0235618Y0115089D01*
X0235948Y0115061D01*
X0236278Y0115024D01*
X0236606Y0114980D01*
X0236933Y0114927D01*
X0237259Y0114867D01*
X0237583Y0114798D01*
X0237905Y0114721D01*
X0238226Y0114637D01*
X0238544Y0114545D01*
X0238860Y0114445D01*
X0239173Y0114337D01*
X0239484Y0114221D01*
X0239791Y0114098D01*
X0240096Y0113968D01*
X0240397Y0113830D01*
X0240695Y0113685D01*
X0240989Y0113532D01*
X0241279Y0113372D01*
X0241565Y0113205D01*
X0241847Y0113032D01*
X0242125Y0112851D01*
X0242398Y0112663D01*
X0242667Y0112469D01*
X0242931Y0112269D01*
X0243189Y0112062D01*
X0243443Y0111848D01*
X0243691Y0111629D01*
X0243934Y0111403D01*
X0244171Y0111172D01*
X0244402Y0110935D01*
X0244628Y0110692D01*
X0244847Y0110444D01*
X0245061Y0110190D01*
X0245268Y0109932D01*
X0245468Y0109668D01*
X0245662Y0109399D01*
X0245850Y0109126D01*
X0246031Y0108848D01*
X0246204Y0108566D01*
X0246371Y0108280D01*
X0246531Y0107990D01*
X0246684Y0107696D01*
X0246829Y0107398D01*
X0246967Y0107097D01*
X0247097Y0106792D01*
X0247220Y0106485D01*
X0247336Y0106174D01*
X0247444Y0105861D01*
X0247544Y0105545D01*
X0247636Y0105227D01*
X0247720Y0104906D01*
X0247797Y0104584D01*
X0247866Y0104260D01*
X0247926Y0103934D01*
X0247979Y0103607D01*
X0248023Y0103279D01*
X0248060Y0102949D01*
X0248088Y0102619D01*
X0248109Y0102288D01*
X0248121Y0101957D01*
X0248125Y0101626D01*
X0248121Y0101295D01*
X0248109Y0100964D01*
X0248088Y0100633D01*
X0248060Y0100303D01*
X0248023Y0099973D01*
X0247979Y0099645D01*
X0247926Y0099318D01*
X0247866Y0098992D01*
X0247797Y0098668D01*
X0247720Y0098346D01*
X0247636Y0098025D01*
X0247544Y0097707D01*
X0247444Y0097391D01*
X0247336Y0097078D01*
X0247220Y0096767D01*
X0247097Y0096460D01*
X0246967Y0096155D01*
X0246829Y0095854D01*
X0246684Y0095556D01*
X0246531Y0095262D01*
X0246371Y0094972D01*
X0246204Y0094686D01*
X0246031Y0094404D01*
X0245850Y0094126D01*
X0245662Y0093853D01*
X0245468Y0093584D01*
X0245268Y0093320D01*
X0245061Y0093062D01*
X0244847Y0092808D01*
X0244628Y0092560D01*
X0244402Y0092317D01*
X0244171Y0092080D01*
X0243934Y0091849D01*
X0243691Y0091623D01*
X0243443Y0091404D01*
X0243189Y0091190D01*
X0242931Y0090983D01*
X0242667Y0090783D01*
X0242398Y0090589D01*
X0242125Y0090401D01*
X0241847Y0090220D01*
X0241565Y0090047D01*
X0241279Y0089880D01*
X0240989Y0089720D01*
X0240695Y0089567D01*
X0240397Y0089422D01*
X0240096Y0089284D01*
X0239791Y0089154D01*
X0239484Y0089031D01*
X0239173Y0088915D01*
X0238860Y0088807D01*
X0238544Y0088707D01*
X0238226Y0088615D01*
X0237905Y0088531D01*
X0237583Y0088454D01*
X0237259Y0088385D01*
X0236933Y0088325D01*
X0236606Y0088272D01*
X0236278Y0088228D01*
X0235948Y0088191D01*
X0235618Y0088163D01*
X0235287Y0088142D01*
X0234956Y0088130D01*
X0234625Y0088126D01*
X0234294Y0088130D01*
X0233963Y0088142D01*
X0233632Y0088163D01*
X0233302Y0088191D01*
X0232972Y0088228D01*
X0232644Y0088272D01*
X0232317Y0088325D01*
X0231991Y0088385D01*
X0231667Y0088454D01*
X0231345Y0088531D01*
X0231024Y0088615D01*
X0230706Y0088707D01*
X0230390Y0088807D01*
X0230077Y0088915D01*
X0229766Y0089031D01*
X0229459Y0089154D01*
X0229154Y0089284D01*
X0228853Y0089422D01*
X0228555Y0089567D01*
X0228261Y0089720D01*
X0227971Y0089880D01*
X0227685Y0090047D01*
X0227403Y0090220D01*
X0227125Y0090401D01*
X0226852Y0090589D01*
X0226583Y0090783D01*
X0226319Y0090983D01*
X0226061Y0091190D01*
X0225807Y0091404D01*
X0225559Y0091623D01*
X0225316Y0091849D01*
X0225079Y0092080D01*
X0224848Y0092317D01*
X0224622Y0092560D01*
X0224403Y0092808D01*
X0224189Y0093062D01*
X0223982Y0093320D01*
X0223782Y0093584D01*
X0223588Y0093853D01*
X0223400Y0094126D01*
X0223219Y0094404D01*
X0223046Y0094686D01*
X0222879Y0094972D01*
X0222719Y0095262D01*
X0222566Y0095556D01*
X0222421Y0095854D01*
X0222283Y0096155D01*
X0222153Y0096460D01*
X0222030Y0096767D01*
X0221914Y0097078D01*
X0221806Y0097391D01*
X0221706Y0097707D01*
X0221614Y0098025D01*
X0221530Y0098346D01*
X0221453Y0098668D01*
X0221384Y0098992D01*
X0221324Y0099318D01*
X0221271Y0099645D01*
X0221227Y0099973D01*
X0221190Y0100303D01*
X0221162Y0100633D01*
X0221141Y0100964D01*
X0221129Y0101295D01*
X0221125Y0101626D01*
X0285625Y0191626D02*
X0283125Y0194126D01*
X0283125Y0209126D01*
X0285625Y0211626D01*
X0290625Y0211626D01*
X0293125Y0209126D01*
X0293125Y0194126D01*
X0290625Y0191626D01*
X0285625Y0191626D01*
X0325625Y0194126D02*
X0328125Y0191626D01*
X0333125Y0191626D01*
X0335625Y0194126D01*
X0335625Y0209126D01*
X0338125Y0211626D01*
X0343125Y0211626D01*
X0345625Y0209126D01*
X0345625Y0194126D01*
X0343125Y0191626D01*
X0338125Y0191626D01*
X0335625Y0194126D01*
X0325625Y0194126D02*
X0325625Y0209126D01*
X0328125Y0211626D01*
X0333125Y0211626D01*
X0335625Y0209126D01*
X0380625Y0206626D02*
X0400625Y0206626D01*
X0405625Y0206626D01*
X0405625Y0226626D01*
X0405625Y0246626D01*
X0400625Y0246626D01*
X0380625Y0246626D01*
X0380625Y0226626D01*
X0380625Y0206626D01*
X0400625Y0206626D02*
X0400625Y0226626D01*
X0405625Y0226626D01*
X0400625Y0226626D02*
X0400625Y0246626D01*
X0400625Y0251626D02*
X0405625Y0251626D01*
X0405625Y0271626D01*
X0405625Y0291626D01*
X0400625Y0291626D01*
X0380625Y0291626D01*
X0380625Y0271626D01*
X0380625Y0251626D01*
X0400625Y0251626D01*
X0400625Y0271626D01*
X0405625Y0271626D01*
X0400625Y0271626D02*
X0400625Y0291626D01*
X0400625Y0296626D02*
X0405625Y0296626D01*
X0405625Y0316626D01*
X0405625Y0336626D01*
X0400625Y0336626D01*
X0380625Y0336626D01*
X0380625Y0316626D01*
X0380625Y0296626D01*
X0400625Y0296626D01*
X0400625Y0316626D01*
X0405625Y0316626D01*
X0400625Y0316626D02*
X0400625Y0336626D01*
X0400625Y0316626D02*
X0380625Y0316626D01*
X0369700Y0314817D02*
X0365430Y0319088D01*
X0364362Y0319088D01*
X0363295Y0318020D01*
X0363295Y0315885D01*
X0364362Y0314817D01*
X0364362Y0312642D02*
X0363295Y0311575D01*
X0363295Y0309440D01*
X0364362Y0308372D01*
X0365430Y0308372D01*
X0366497Y0309440D01*
X0366497Y0311575D01*
X0367565Y0312642D01*
X0368632Y0312642D01*
X0369700Y0311575D01*
X0369700Y0309440D01*
X0368632Y0308372D01*
X0369700Y0306197D02*
X0367565Y0304062D01*
X0367565Y0305129D02*
X0367565Y0301926D01*
X0369700Y0301926D02*
X0363295Y0301926D01*
X0363295Y0305129D01*
X0364362Y0306197D01*
X0366497Y0306197D01*
X0367565Y0305129D01*
X0369700Y0314817D02*
X0369700Y0319088D01*
X0368632Y0321263D02*
X0369700Y0322331D01*
X0369700Y0324466D01*
X0368632Y0325533D01*
X0367565Y0325533D01*
X0366497Y0324466D01*
X0366497Y0323398D01*
X0366497Y0324466D02*
X0365430Y0325533D01*
X0364362Y0325533D01*
X0363295Y0324466D01*
X0363295Y0322331D01*
X0364362Y0321263D01*
X0364362Y0327708D02*
X0363295Y0328776D01*
X0363295Y0330911D01*
X0364362Y0331979D01*
X0365430Y0331979D01*
X0369700Y0327708D01*
X0369700Y0331979D01*
X0345625Y0339126D02*
X0345625Y0354126D01*
X0343125Y0356626D01*
X0338125Y0356626D01*
X0335625Y0354126D01*
X0335625Y0339126D01*
X0333125Y0336626D01*
X0328125Y0336626D01*
X0325625Y0339126D01*
X0325625Y0354126D01*
X0328125Y0356626D01*
X0333125Y0356626D01*
X0335625Y0354126D01*
X0325625Y0354126D02*
X0323125Y0356626D01*
X0318125Y0356626D01*
X0315625Y0354126D01*
X0315625Y0339126D01*
X0313125Y0336626D01*
X0308125Y0336626D01*
X0305625Y0339126D01*
X0305625Y0354126D01*
X0308125Y0356626D01*
X0313125Y0356626D01*
X0315625Y0354126D01*
X0305625Y0354126D02*
X0303125Y0356626D01*
X0298125Y0356626D01*
X0295625Y0354126D01*
X0295625Y0339126D01*
X0298125Y0336626D01*
X0303125Y0336626D01*
X0305625Y0339126D01*
X0305926Y0331457D02*
X0302723Y0331457D01*
X0302723Y0325051D01*
X0305926Y0325051D01*
X0306993Y0326119D01*
X0306993Y0327187D01*
X0305926Y0328254D01*
X0302723Y0328254D01*
X0305926Y0328254D02*
X0306993Y0329322D01*
X0306993Y0330389D01*
X0305926Y0331457D01*
X0315625Y0339126D02*
X0318125Y0336626D01*
X0323125Y0336626D01*
X0325625Y0339126D01*
X0335625Y0339126D02*
X0338125Y0336626D01*
X0343125Y0336626D01*
X0345625Y0339126D01*
X0377125Y0359126D02*
X0377129Y0359457D01*
X0377141Y0359788D01*
X0377162Y0360119D01*
X0377190Y0360449D01*
X0377227Y0360779D01*
X0377271Y0361107D01*
X0377324Y0361434D01*
X0377384Y0361760D01*
X0377453Y0362084D01*
X0377530Y0362406D01*
X0377614Y0362727D01*
X0377706Y0363045D01*
X0377806Y0363361D01*
X0377914Y0363674D01*
X0378030Y0363985D01*
X0378153Y0364292D01*
X0378283Y0364597D01*
X0378421Y0364898D01*
X0378566Y0365196D01*
X0378719Y0365490D01*
X0378879Y0365780D01*
X0379046Y0366066D01*
X0379219Y0366348D01*
X0379400Y0366626D01*
X0379588Y0366899D01*
X0379782Y0367168D01*
X0379982Y0367432D01*
X0380189Y0367690D01*
X0380403Y0367944D01*
X0380622Y0368192D01*
X0380848Y0368435D01*
X0381079Y0368672D01*
X0381316Y0368903D01*
X0381559Y0369129D01*
X0381807Y0369348D01*
X0382061Y0369562D01*
X0382319Y0369769D01*
X0382583Y0369969D01*
X0382852Y0370163D01*
X0383125Y0370351D01*
X0383403Y0370532D01*
X0383685Y0370705D01*
X0383971Y0370872D01*
X0384261Y0371032D01*
X0384555Y0371185D01*
X0384853Y0371330D01*
X0385154Y0371468D01*
X0385459Y0371598D01*
X0385766Y0371721D01*
X0386077Y0371837D01*
X0386390Y0371945D01*
X0386706Y0372045D01*
X0387024Y0372137D01*
X0387345Y0372221D01*
X0387667Y0372298D01*
X0387991Y0372367D01*
X0388317Y0372427D01*
X0388644Y0372480D01*
X0388972Y0372524D01*
X0389302Y0372561D01*
X0389632Y0372589D01*
X0389963Y0372610D01*
X0390294Y0372622D01*
X0390625Y0372626D01*
X0390956Y0372622D01*
X0391287Y0372610D01*
X0391618Y0372589D01*
X0391948Y0372561D01*
X0392278Y0372524D01*
X0392606Y0372480D01*
X0392933Y0372427D01*
X0393259Y0372367D01*
X0393583Y0372298D01*
X0393905Y0372221D01*
X0394226Y0372137D01*
X0394544Y0372045D01*
X0394860Y0371945D01*
X0395173Y0371837D01*
X0395484Y0371721D01*
X0395791Y0371598D01*
X0396096Y0371468D01*
X0396397Y0371330D01*
X0396695Y0371185D01*
X0396989Y0371032D01*
X0397279Y0370872D01*
X0397565Y0370705D01*
X0397847Y0370532D01*
X0398125Y0370351D01*
X0398398Y0370163D01*
X0398667Y0369969D01*
X0398931Y0369769D01*
X0399189Y0369562D01*
X0399443Y0369348D01*
X0399691Y0369129D01*
X0399934Y0368903D01*
X0400171Y0368672D01*
X0400402Y0368435D01*
X0400628Y0368192D01*
X0400847Y0367944D01*
X0401061Y0367690D01*
X0401268Y0367432D01*
X0401468Y0367168D01*
X0401662Y0366899D01*
X0401850Y0366626D01*
X0402031Y0366348D01*
X0402204Y0366066D01*
X0402371Y0365780D01*
X0402531Y0365490D01*
X0402684Y0365196D01*
X0402829Y0364898D01*
X0402967Y0364597D01*
X0403097Y0364292D01*
X0403220Y0363985D01*
X0403336Y0363674D01*
X0403444Y0363361D01*
X0403544Y0363045D01*
X0403636Y0362727D01*
X0403720Y0362406D01*
X0403797Y0362084D01*
X0403866Y0361760D01*
X0403926Y0361434D01*
X0403979Y0361107D01*
X0404023Y0360779D01*
X0404060Y0360449D01*
X0404088Y0360119D01*
X0404109Y0359788D01*
X0404121Y0359457D01*
X0404125Y0359126D01*
X0404121Y0358795D01*
X0404109Y0358464D01*
X0404088Y0358133D01*
X0404060Y0357803D01*
X0404023Y0357473D01*
X0403979Y0357145D01*
X0403926Y0356818D01*
X0403866Y0356492D01*
X0403797Y0356168D01*
X0403720Y0355846D01*
X0403636Y0355525D01*
X0403544Y0355207D01*
X0403444Y0354891D01*
X0403336Y0354578D01*
X0403220Y0354267D01*
X0403097Y0353960D01*
X0402967Y0353655D01*
X0402829Y0353354D01*
X0402684Y0353056D01*
X0402531Y0352762D01*
X0402371Y0352472D01*
X0402204Y0352186D01*
X0402031Y0351904D01*
X0401850Y0351626D01*
X0401662Y0351353D01*
X0401468Y0351084D01*
X0401268Y0350820D01*
X0401061Y0350562D01*
X0400847Y0350308D01*
X0400628Y0350060D01*
X0400402Y0349817D01*
X0400171Y0349580D01*
X0399934Y0349349D01*
X0399691Y0349123D01*
X0399443Y0348904D01*
X0399189Y0348690D01*
X0398931Y0348483D01*
X0398667Y0348283D01*
X0398398Y0348089D01*
X0398125Y0347901D01*
X0397847Y0347720D01*
X0397565Y0347547D01*
X0397279Y0347380D01*
X0396989Y0347220D01*
X0396695Y0347067D01*
X0396397Y0346922D01*
X0396096Y0346784D01*
X0395791Y0346654D01*
X0395484Y0346531D01*
X0395173Y0346415D01*
X0394860Y0346307D01*
X0394544Y0346207D01*
X0394226Y0346115D01*
X0393905Y0346031D01*
X0393583Y0345954D01*
X0393259Y0345885D01*
X0392933Y0345825D01*
X0392606Y0345772D01*
X0392278Y0345728D01*
X0391948Y0345691D01*
X0391618Y0345663D01*
X0391287Y0345642D01*
X0390956Y0345630D01*
X0390625Y0345626D01*
X0390294Y0345630D01*
X0389963Y0345642D01*
X0389632Y0345663D01*
X0389302Y0345691D01*
X0388972Y0345728D01*
X0388644Y0345772D01*
X0388317Y0345825D01*
X0387991Y0345885D01*
X0387667Y0345954D01*
X0387345Y0346031D01*
X0387024Y0346115D01*
X0386706Y0346207D01*
X0386390Y0346307D01*
X0386077Y0346415D01*
X0385766Y0346531D01*
X0385459Y0346654D01*
X0385154Y0346784D01*
X0384853Y0346922D01*
X0384555Y0347067D01*
X0384261Y0347220D01*
X0383971Y0347380D01*
X0383685Y0347547D01*
X0383403Y0347720D01*
X0383125Y0347901D01*
X0382852Y0348089D01*
X0382583Y0348283D01*
X0382319Y0348483D01*
X0382061Y0348690D01*
X0381807Y0348904D01*
X0381559Y0349123D01*
X0381316Y0349349D01*
X0381079Y0349580D01*
X0380848Y0349817D01*
X0380622Y0350060D01*
X0380403Y0350308D01*
X0380189Y0350562D01*
X0379982Y0350820D01*
X0379782Y0351084D01*
X0379588Y0351353D01*
X0379400Y0351626D01*
X0379219Y0351904D01*
X0379046Y0352186D01*
X0378879Y0352472D01*
X0378719Y0352762D01*
X0378566Y0353056D01*
X0378421Y0353354D01*
X0378283Y0353655D01*
X0378153Y0353960D01*
X0378030Y0354267D01*
X0377914Y0354578D01*
X0377806Y0354891D01*
X0377706Y0355207D01*
X0377614Y0355525D01*
X0377530Y0355846D01*
X0377453Y0356168D01*
X0377384Y0356492D01*
X0377324Y0356818D01*
X0377271Y0357145D01*
X0377227Y0357473D01*
X0377190Y0357803D01*
X0377162Y0358133D01*
X0377141Y0358464D01*
X0377129Y0358795D01*
X0377125Y0359126D01*
X0295625Y0354126D02*
X0293125Y0356626D01*
X0288125Y0356626D01*
X0285625Y0354126D01*
X0285625Y0339126D01*
X0288125Y0336626D01*
X0293125Y0336626D01*
X0295625Y0339126D01*
X0294102Y0331457D02*
X0294102Y0330389D01*
X0291967Y0328254D01*
X0291967Y0325051D01*
X0291967Y0328254D02*
X0289832Y0330389D01*
X0289832Y0331457D01*
X0287657Y0329322D02*
X0287657Y0325051D01*
X0287657Y0328254D02*
X0283386Y0328254D01*
X0283386Y0329322D02*
X0283386Y0325051D01*
X0281211Y0325051D02*
X0276941Y0325051D01*
X0276941Y0331457D01*
X0274766Y0331457D02*
X0270495Y0331457D01*
X0270495Y0325051D01*
X0274766Y0325051D01*
X0272631Y0328254D02*
X0270495Y0328254D01*
X0268320Y0328254D02*
X0267253Y0327187D01*
X0264050Y0327187D01*
X0266185Y0327187D02*
X0268320Y0325051D01*
X0268320Y0328254D02*
X0268320Y0330389D01*
X0267253Y0331457D01*
X0264050Y0331457D01*
X0264050Y0325051D01*
X0263125Y0336626D02*
X0258125Y0336626D01*
X0255625Y0339126D01*
X0255625Y0354126D01*
X0258125Y0356626D01*
X0263125Y0356626D01*
X0265625Y0354126D01*
X0265625Y0339126D01*
X0268125Y0336626D01*
X0273125Y0336626D01*
X0275625Y0339126D01*
X0275625Y0354126D01*
X0278125Y0356626D01*
X0283125Y0356626D01*
X0285625Y0354126D01*
X0275625Y0354126D02*
X0273125Y0356626D01*
X0268125Y0356626D01*
X0265625Y0354126D01*
X0255625Y0354126D02*
X0253125Y0356626D01*
X0248125Y0356626D01*
X0245625Y0354126D01*
X0245625Y0339126D01*
X0248125Y0336626D01*
X0253125Y0336626D01*
X0255625Y0339126D01*
X0263125Y0336626D02*
X0265625Y0339126D01*
X0275625Y0339126D02*
X0278125Y0336626D01*
X0283125Y0336626D01*
X0285625Y0339126D01*
X0285522Y0331457D02*
X0283386Y0329322D01*
X0285522Y0331457D02*
X0287657Y0329322D01*
X0380625Y0271626D02*
X0400625Y0271626D01*
X0400625Y0226626D02*
X0380625Y0226626D01*
X0383425Y0144582D02*
X0383425Y0139244D01*
X0384493Y0138176D01*
X0386628Y0138176D01*
X0387695Y0139244D01*
X0387695Y0144582D01*
X0389870Y0143514D02*
X0389870Y0142447D01*
X0390938Y0141379D01*
X0393073Y0141379D01*
X0394141Y0140312D01*
X0394141Y0139244D01*
X0393073Y0138176D01*
X0390938Y0138176D01*
X0389870Y0139244D01*
X0389870Y0143514D02*
X0390938Y0144582D01*
X0393073Y0144582D01*
X0394141Y0143514D01*
X0396316Y0144582D02*
X0399519Y0144582D01*
X0400586Y0143514D01*
X0400586Y0142447D01*
X0399519Y0141379D01*
X0396316Y0141379D01*
X0396316Y0138176D02*
X0396316Y0144582D01*
X0399519Y0141379D02*
X0400586Y0140312D01*
X0400586Y0139244D01*
X0399519Y0138176D01*
X0396316Y0138176D01*
X0351836Y0128514D02*
X0351836Y0124244D01*
X0350769Y0123176D01*
X0347566Y0123176D01*
X0347566Y0129582D01*
X0350769Y0129582D01*
X0351836Y0128514D01*
X0345391Y0129582D02*
X0345391Y0123176D01*
X0343256Y0125312D01*
X0341120Y0123176D01*
X0341120Y0129582D01*
X0338945Y0128514D02*
X0337878Y0129582D01*
X0335743Y0129582D01*
X0334675Y0128514D01*
X0334675Y0127447D01*
X0335743Y0126379D01*
X0337878Y0126379D01*
X0338945Y0125312D01*
X0338945Y0124244D01*
X0337878Y0123176D01*
X0335743Y0123176D01*
X0334675Y0124244D01*
X0377125Y0101626D02*
X0377129Y0101957D01*
X0377141Y0102288D01*
X0377162Y0102619D01*
X0377190Y0102949D01*
X0377227Y0103279D01*
X0377271Y0103607D01*
X0377324Y0103934D01*
X0377384Y0104260D01*
X0377453Y0104584D01*
X0377530Y0104906D01*
X0377614Y0105227D01*
X0377706Y0105545D01*
X0377806Y0105861D01*
X0377914Y0106174D01*
X0378030Y0106485D01*
X0378153Y0106792D01*
X0378283Y0107097D01*
X0378421Y0107398D01*
X0378566Y0107696D01*
X0378719Y0107990D01*
X0378879Y0108280D01*
X0379046Y0108566D01*
X0379219Y0108848D01*
X0379400Y0109126D01*
X0379588Y0109399D01*
X0379782Y0109668D01*
X0379982Y0109932D01*
X0380189Y0110190D01*
X0380403Y0110444D01*
X0380622Y0110692D01*
X0380848Y0110935D01*
X0381079Y0111172D01*
X0381316Y0111403D01*
X0381559Y0111629D01*
X0381807Y0111848D01*
X0382061Y0112062D01*
X0382319Y0112269D01*
X0382583Y0112469D01*
X0382852Y0112663D01*
X0383125Y0112851D01*
X0383403Y0113032D01*
X0383685Y0113205D01*
X0383971Y0113372D01*
X0384261Y0113532D01*
X0384555Y0113685D01*
X0384853Y0113830D01*
X0385154Y0113968D01*
X0385459Y0114098D01*
X0385766Y0114221D01*
X0386077Y0114337D01*
X0386390Y0114445D01*
X0386706Y0114545D01*
X0387024Y0114637D01*
X0387345Y0114721D01*
X0387667Y0114798D01*
X0387991Y0114867D01*
X0388317Y0114927D01*
X0388644Y0114980D01*
X0388972Y0115024D01*
X0389302Y0115061D01*
X0389632Y0115089D01*
X0389963Y0115110D01*
X0390294Y0115122D01*
X0390625Y0115126D01*
X0390956Y0115122D01*
X0391287Y0115110D01*
X0391618Y0115089D01*
X0391948Y0115061D01*
X0392278Y0115024D01*
X0392606Y0114980D01*
X0392933Y0114927D01*
X0393259Y0114867D01*
X0393583Y0114798D01*
X0393905Y0114721D01*
X0394226Y0114637D01*
X0394544Y0114545D01*
X0394860Y0114445D01*
X0395173Y0114337D01*
X0395484Y0114221D01*
X0395791Y0114098D01*
X0396096Y0113968D01*
X0396397Y0113830D01*
X0396695Y0113685D01*
X0396989Y0113532D01*
X0397279Y0113372D01*
X0397565Y0113205D01*
X0397847Y0113032D01*
X0398125Y0112851D01*
X0398398Y0112663D01*
X0398667Y0112469D01*
X0398931Y0112269D01*
X0399189Y0112062D01*
X0399443Y0111848D01*
X0399691Y0111629D01*
X0399934Y0111403D01*
X0400171Y0111172D01*
X0400402Y0110935D01*
X0400628Y0110692D01*
X0400847Y0110444D01*
X0401061Y0110190D01*
X0401268Y0109932D01*
X0401468Y0109668D01*
X0401662Y0109399D01*
X0401850Y0109126D01*
X0402031Y0108848D01*
X0402204Y0108566D01*
X0402371Y0108280D01*
X0402531Y0107990D01*
X0402684Y0107696D01*
X0402829Y0107398D01*
X0402967Y0107097D01*
X0403097Y0106792D01*
X0403220Y0106485D01*
X0403336Y0106174D01*
X0403444Y0105861D01*
X0403544Y0105545D01*
X0403636Y0105227D01*
X0403720Y0104906D01*
X0403797Y0104584D01*
X0403866Y0104260D01*
X0403926Y0103934D01*
X0403979Y0103607D01*
X0404023Y0103279D01*
X0404060Y0102949D01*
X0404088Y0102619D01*
X0404109Y0102288D01*
X0404121Y0101957D01*
X0404125Y0101626D01*
X0404121Y0101295D01*
X0404109Y0100964D01*
X0404088Y0100633D01*
X0404060Y0100303D01*
X0404023Y0099973D01*
X0403979Y0099645D01*
X0403926Y0099318D01*
X0403866Y0098992D01*
X0403797Y0098668D01*
X0403720Y0098346D01*
X0403636Y0098025D01*
X0403544Y0097707D01*
X0403444Y0097391D01*
X0403336Y0097078D01*
X0403220Y0096767D01*
X0403097Y0096460D01*
X0402967Y0096155D01*
X0402829Y0095854D01*
X0402684Y0095556D01*
X0402531Y0095262D01*
X0402371Y0094972D01*
X0402204Y0094686D01*
X0402031Y0094404D01*
X0401850Y0094126D01*
X0401662Y0093853D01*
X0401468Y0093584D01*
X0401268Y0093320D01*
X0401061Y0093062D01*
X0400847Y0092808D01*
X0400628Y0092560D01*
X0400402Y0092317D01*
X0400171Y0092080D01*
X0399934Y0091849D01*
X0399691Y0091623D01*
X0399443Y0091404D01*
X0399189Y0091190D01*
X0398931Y0090983D01*
X0398667Y0090783D01*
X0398398Y0090589D01*
X0398125Y0090401D01*
X0397847Y0090220D01*
X0397565Y0090047D01*
X0397279Y0089880D01*
X0396989Y0089720D01*
X0396695Y0089567D01*
X0396397Y0089422D01*
X0396096Y0089284D01*
X0395791Y0089154D01*
X0395484Y0089031D01*
X0395173Y0088915D01*
X0394860Y0088807D01*
X0394544Y0088707D01*
X0394226Y0088615D01*
X0393905Y0088531D01*
X0393583Y0088454D01*
X0393259Y0088385D01*
X0392933Y0088325D01*
X0392606Y0088272D01*
X0392278Y0088228D01*
X0391948Y0088191D01*
X0391618Y0088163D01*
X0391287Y0088142D01*
X0390956Y0088130D01*
X0390625Y0088126D01*
X0390294Y0088130D01*
X0389963Y0088142D01*
X0389632Y0088163D01*
X0389302Y0088191D01*
X0388972Y0088228D01*
X0388644Y0088272D01*
X0388317Y0088325D01*
X0387991Y0088385D01*
X0387667Y0088454D01*
X0387345Y0088531D01*
X0387024Y0088615D01*
X0386706Y0088707D01*
X0386390Y0088807D01*
X0386077Y0088915D01*
X0385766Y0089031D01*
X0385459Y0089154D01*
X0385154Y0089284D01*
X0384853Y0089422D01*
X0384555Y0089567D01*
X0384261Y0089720D01*
X0383971Y0089880D01*
X0383685Y0090047D01*
X0383403Y0090220D01*
X0383125Y0090401D01*
X0382852Y0090589D01*
X0382583Y0090783D01*
X0382319Y0090983D01*
X0382061Y0091190D01*
X0381807Y0091404D01*
X0381559Y0091623D01*
X0381316Y0091849D01*
X0381079Y0092080D01*
X0380848Y0092317D01*
X0380622Y0092560D01*
X0380403Y0092808D01*
X0380189Y0093062D01*
X0379982Y0093320D01*
X0379782Y0093584D01*
X0379588Y0093853D01*
X0379400Y0094126D01*
X0379219Y0094404D01*
X0379046Y0094686D01*
X0378879Y0094972D01*
X0378719Y0095262D01*
X0378566Y0095556D01*
X0378421Y0095854D01*
X0378283Y0096155D01*
X0378153Y0096460D01*
X0378030Y0096767D01*
X0377914Y0097078D01*
X0377806Y0097391D01*
X0377706Y0097707D01*
X0377614Y0098025D01*
X0377530Y0098346D01*
X0377453Y0098668D01*
X0377384Y0098992D01*
X0377324Y0099318D01*
X0377271Y0099645D01*
X0377227Y0099973D01*
X0377190Y0100303D01*
X0377162Y0100633D01*
X0377141Y0100964D01*
X0377129Y0101295D01*
X0377125Y0101626D01*
X0156993Y0325051D02*
X0156993Y0329322D01*
X0154858Y0331457D01*
X0152723Y0329322D01*
X0152723Y0325051D01*
X0152723Y0328254D02*
X0156993Y0328254D01*
X0158125Y0336626D02*
X0155625Y0339126D01*
X0155625Y0354126D01*
X0158125Y0356626D01*
X0163125Y0356626D01*
X0165625Y0354126D01*
X0165625Y0339126D01*
X0163125Y0336626D01*
X0158125Y0336626D01*
X0155625Y0339126D02*
X0153125Y0336626D01*
X0148125Y0336626D01*
X0145625Y0339126D01*
X0145625Y0354126D01*
X0148125Y0356626D01*
X0153125Y0356626D01*
X0155625Y0354126D01*
X0145625Y0354126D02*
X0143125Y0356626D01*
X0138125Y0356626D01*
X0135625Y0354126D01*
X0135625Y0339126D01*
X0138125Y0336626D01*
X0143125Y0336626D01*
X0145625Y0339126D01*
X0144102Y0331457D02*
X0144102Y0330389D01*
X0141967Y0328254D01*
X0141967Y0325051D01*
X0141967Y0328254D02*
X0139832Y0330389D01*
X0139832Y0331457D01*
X0137657Y0329322D02*
X0137657Y0325051D01*
X0137657Y0328254D02*
X0133386Y0328254D01*
X0133386Y0329322D02*
X0133386Y0325051D01*
X0131211Y0325051D02*
X0126941Y0325051D01*
X0126941Y0331457D01*
X0124766Y0331457D02*
X0120495Y0331457D01*
X0120495Y0325051D01*
X0124766Y0325051D01*
X0122631Y0328254D02*
X0120495Y0328254D01*
X0118320Y0328254D02*
X0117253Y0327187D01*
X0114050Y0327187D01*
X0116185Y0327187D02*
X0118320Y0325051D01*
X0118320Y0328254D02*
X0118320Y0330389D01*
X0117253Y0331457D01*
X0114050Y0331457D01*
X0114050Y0325051D01*
X0113125Y0336626D02*
X0108125Y0336626D01*
X0105625Y0339126D01*
X0105625Y0354126D01*
X0108125Y0356626D01*
X0113125Y0356626D01*
X0115625Y0354126D01*
X0115625Y0339126D01*
X0118125Y0336626D01*
X0123125Y0336626D01*
X0125625Y0339126D01*
X0125625Y0354126D01*
X0128125Y0356626D01*
X0133125Y0356626D01*
X0135625Y0354126D01*
X0125625Y0354126D02*
X0123125Y0356626D01*
X0118125Y0356626D01*
X0115625Y0354126D01*
X0105625Y0354126D02*
X0103125Y0356626D01*
X0098125Y0356626D01*
X0095625Y0354126D01*
X0095625Y0339126D01*
X0098125Y0336626D01*
X0103125Y0336626D01*
X0105625Y0339126D01*
X0113125Y0336626D02*
X0115625Y0339126D01*
X0125625Y0339126D02*
X0128125Y0336626D01*
X0133125Y0336626D01*
X0135625Y0339126D01*
X0135522Y0331457D02*
X0137657Y0329322D01*
X0135522Y0331457D02*
X0133386Y0329322D01*
X0165625Y0339126D02*
X0168125Y0336626D01*
X0173125Y0336626D01*
X0175625Y0339126D01*
X0175625Y0354126D01*
X0178125Y0356626D01*
X0183125Y0356626D01*
X0185625Y0354126D01*
X0185625Y0339126D01*
X0183125Y0336626D01*
X0178125Y0336626D01*
X0175625Y0339126D01*
X0175625Y0354126D02*
X0173125Y0356626D01*
X0168125Y0356626D01*
X0165625Y0354126D01*
X0095625Y0354126D02*
X0093125Y0356626D01*
X0088125Y0356626D01*
X0085625Y0354126D01*
X0085625Y0339126D01*
X0088125Y0336626D01*
X0093125Y0336626D01*
X0095625Y0339126D01*
X0075586Y0333332D02*
X0071316Y0333332D01*
X0073451Y0333332D02*
X0073451Y0326926D01*
X0069141Y0326926D02*
X0069141Y0331197D01*
X0067006Y0333332D01*
X0064870Y0331197D01*
X0064870Y0326926D01*
X0062695Y0327994D02*
X0062695Y0329062D01*
X0061628Y0330129D01*
X0058425Y0330129D01*
X0058425Y0326926D02*
X0061628Y0326926D01*
X0062695Y0327994D01*
X0061628Y0330129D02*
X0062695Y0331197D01*
X0062695Y0332264D01*
X0061628Y0333332D01*
X0058425Y0333332D01*
X0058425Y0326926D01*
X0064870Y0330129D02*
X0069141Y0330129D01*
X0050625Y0336626D02*
X0050625Y0316626D01*
X0050625Y0296626D01*
X0030625Y0296626D01*
X0025625Y0296626D01*
X0025625Y0316626D01*
X0025625Y0336626D01*
X0030625Y0336626D01*
X0030625Y0316626D01*
X0025625Y0316626D01*
X0030625Y0316626D02*
X0030625Y0296626D01*
X0033685Y0294139D02*
X0033685Y0289869D01*
X0031550Y0292004D02*
X0035820Y0292004D01*
X0043425Y0272082D02*
X0047695Y0272082D01*
X0049870Y0272082D02*
X0049870Y0265676D01*
X0052006Y0267812D01*
X0054141Y0265676D01*
X0054141Y0272082D01*
X0056316Y0272082D02*
X0059519Y0272082D01*
X0060586Y0271014D01*
X0060586Y0266744D01*
X0059519Y0265676D01*
X0056316Y0265676D01*
X0056316Y0272082D01*
X0045560Y0268879D02*
X0043425Y0268879D01*
X0043425Y0265676D02*
X0043425Y0272082D01*
X0045525Y0255426D02*
X0055725Y0255426D01*
X0064425Y0246726D02*
X0064425Y0236526D01*
X0055725Y0227826D02*
X0045525Y0227826D01*
X0035025Y0229226D02*
X0004925Y0229226D01*
X0004925Y0254026D01*
X0035025Y0254026D01*
X0036825Y0246726D02*
X0036825Y0236526D01*
X0045525Y0170426D02*
X0055725Y0170426D01*
X0064425Y0161726D02*
X0064425Y0151526D01*
X0055725Y0142826D02*
X0045525Y0142826D01*
X0046628Y0134582D02*
X0043425Y0134582D01*
X0043425Y0128176D01*
X0043425Y0130312D02*
X0046628Y0130312D01*
X0047695Y0131379D01*
X0047695Y0133514D01*
X0046628Y0134582D01*
X0049870Y0134582D02*
X0049870Y0128176D01*
X0054141Y0128176D01*
X0056316Y0130312D02*
X0058451Y0128176D01*
X0060586Y0130312D01*
X0060586Y0134582D01*
X0056316Y0134582D02*
X0056316Y0130312D01*
X0052006Y0131379D02*
X0049870Y0131379D01*
X0049870Y0134582D02*
X0054141Y0134582D01*
X0047695Y0128176D02*
X0045560Y0130312D01*
X0035025Y0144226D02*
X0004925Y0144226D01*
X0004925Y0169026D01*
X0035025Y0169026D01*
X0036825Y0161726D02*
X0036825Y0151526D01*
X0027125Y0101626D02*
X0027129Y0101957D01*
X0027141Y0102288D01*
X0027162Y0102619D01*
X0027190Y0102949D01*
X0027227Y0103279D01*
X0027271Y0103607D01*
X0027324Y0103934D01*
X0027384Y0104260D01*
X0027453Y0104584D01*
X0027530Y0104906D01*
X0027614Y0105227D01*
X0027706Y0105545D01*
X0027806Y0105861D01*
X0027914Y0106174D01*
X0028030Y0106485D01*
X0028153Y0106792D01*
X0028283Y0107097D01*
X0028421Y0107398D01*
X0028566Y0107696D01*
X0028719Y0107990D01*
X0028879Y0108280D01*
X0029046Y0108566D01*
X0029219Y0108848D01*
X0029400Y0109126D01*
X0029588Y0109399D01*
X0029782Y0109668D01*
X0029982Y0109932D01*
X0030189Y0110190D01*
X0030403Y0110444D01*
X0030622Y0110692D01*
X0030848Y0110935D01*
X0031079Y0111172D01*
X0031316Y0111403D01*
X0031559Y0111629D01*
X0031807Y0111848D01*
X0032061Y0112062D01*
X0032319Y0112269D01*
X0032583Y0112469D01*
X0032852Y0112663D01*
X0033125Y0112851D01*
X0033403Y0113032D01*
X0033685Y0113205D01*
X0033971Y0113372D01*
X0034261Y0113532D01*
X0034555Y0113685D01*
X0034853Y0113830D01*
X0035154Y0113968D01*
X0035459Y0114098D01*
X0035766Y0114221D01*
X0036077Y0114337D01*
X0036390Y0114445D01*
X0036706Y0114545D01*
X0037024Y0114637D01*
X0037345Y0114721D01*
X0037667Y0114798D01*
X0037991Y0114867D01*
X0038317Y0114927D01*
X0038644Y0114980D01*
X0038972Y0115024D01*
X0039302Y0115061D01*
X0039632Y0115089D01*
X0039963Y0115110D01*
X0040294Y0115122D01*
X0040625Y0115126D01*
X0040956Y0115122D01*
X0041287Y0115110D01*
X0041618Y0115089D01*
X0041948Y0115061D01*
X0042278Y0115024D01*
X0042606Y0114980D01*
X0042933Y0114927D01*
X0043259Y0114867D01*
X0043583Y0114798D01*
X0043905Y0114721D01*
X0044226Y0114637D01*
X0044544Y0114545D01*
X0044860Y0114445D01*
X0045173Y0114337D01*
X0045484Y0114221D01*
X0045791Y0114098D01*
X0046096Y0113968D01*
X0046397Y0113830D01*
X0046695Y0113685D01*
X0046989Y0113532D01*
X0047279Y0113372D01*
X0047565Y0113205D01*
X0047847Y0113032D01*
X0048125Y0112851D01*
X0048398Y0112663D01*
X0048667Y0112469D01*
X0048931Y0112269D01*
X0049189Y0112062D01*
X0049443Y0111848D01*
X0049691Y0111629D01*
X0049934Y0111403D01*
X0050171Y0111172D01*
X0050402Y0110935D01*
X0050628Y0110692D01*
X0050847Y0110444D01*
X0051061Y0110190D01*
X0051268Y0109932D01*
X0051468Y0109668D01*
X0051662Y0109399D01*
X0051850Y0109126D01*
X0052031Y0108848D01*
X0052204Y0108566D01*
X0052371Y0108280D01*
X0052531Y0107990D01*
X0052684Y0107696D01*
X0052829Y0107398D01*
X0052967Y0107097D01*
X0053097Y0106792D01*
X0053220Y0106485D01*
X0053336Y0106174D01*
X0053444Y0105861D01*
X0053544Y0105545D01*
X0053636Y0105227D01*
X0053720Y0104906D01*
X0053797Y0104584D01*
X0053866Y0104260D01*
X0053926Y0103934D01*
X0053979Y0103607D01*
X0054023Y0103279D01*
X0054060Y0102949D01*
X0054088Y0102619D01*
X0054109Y0102288D01*
X0054121Y0101957D01*
X0054125Y0101626D01*
X0054121Y0101295D01*
X0054109Y0100964D01*
X0054088Y0100633D01*
X0054060Y0100303D01*
X0054023Y0099973D01*
X0053979Y0099645D01*
X0053926Y0099318D01*
X0053866Y0098992D01*
X0053797Y0098668D01*
X0053720Y0098346D01*
X0053636Y0098025D01*
X0053544Y0097707D01*
X0053444Y0097391D01*
X0053336Y0097078D01*
X0053220Y0096767D01*
X0053097Y0096460D01*
X0052967Y0096155D01*
X0052829Y0095854D01*
X0052684Y0095556D01*
X0052531Y0095262D01*
X0052371Y0094972D01*
X0052204Y0094686D01*
X0052031Y0094404D01*
X0051850Y0094126D01*
X0051662Y0093853D01*
X0051468Y0093584D01*
X0051268Y0093320D01*
X0051061Y0093062D01*
X0050847Y0092808D01*
X0050628Y0092560D01*
X0050402Y0092317D01*
X0050171Y0092080D01*
X0049934Y0091849D01*
X0049691Y0091623D01*
X0049443Y0091404D01*
X0049189Y0091190D01*
X0048931Y0090983D01*
X0048667Y0090783D01*
X0048398Y0090589D01*
X0048125Y0090401D01*
X0047847Y0090220D01*
X0047565Y0090047D01*
X0047279Y0089880D01*
X0046989Y0089720D01*
X0046695Y0089567D01*
X0046397Y0089422D01*
X0046096Y0089284D01*
X0045791Y0089154D01*
X0045484Y0089031D01*
X0045173Y0088915D01*
X0044860Y0088807D01*
X0044544Y0088707D01*
X0044226Y0088615D01*
X0043905Y0088531D01*
X0043583Y0088454D01*
X0043259Y0088385D01*
X0042933Y0088325D01*
X0042606Y0088272D01*
X0042278Y0088228D01*
X0041948Y0088191D01*
X0041618Y0088163D01*
X0041287Y0088142D01*
X0040956Y0088130D01*
X0040625Y0088126D01*
X0040294Y0088130D01*
X0039963Y0088142D01*
X0039632Y0088163D01*
X0039302Y0088191D01*
X0038972Y0088228D01*
X0038644Y0088272D01*
X0038317Y0088325D01*
X0037991Y0088385D01*
X0037667Y0088454D01*
X0037345Y0088531D01*
X0037024Y0088615D01*
X0036706Y0088707D01*
X0036390Y0088807D01*
X0036077Y0088915D01*
X0035766Y0089031D01*
X0035459Y0089154D01*
X0035154Y0089284D01*
X0034853Y0089422D01*
X0034555Y0089567D01*
X0034261Y0089720D01*
X0033971Y0089880D01*
X0033685Y0090047D01*
X0033403Y0090220D01*
X0033125Y0090401D01*
X0032852Y0090589D01*
X0032583Y0090783D01*
X0032319Y0090983D01*
X0032061Y0091190D01*
X0031807Y0091404D01*
X0031559Y0091623D01*
X0031316Y0091849D01*
X0031079Y0092080D01*
X0030848Y0092317D01*
X0030622Y0092560D01*
X0030403Y0092808D01*
X0030189Y0093062D01*
X0029982Y0093320D01*
X0029782Y0093584D01*
X0029588Y0093853D01*
X0029400Y0094126D01*
X0029219Y0094404D01*
X0029046Y0094686D01*
X0028879Y0094972D01*
X0028719Y0095262D01*
X0028566Y0095556D01*
X0028421Y0095854D01*
X0028283Y0096155D01*
X0028153Y0096460D01*
X0028030Y0096767D01*
X0027914Y0097078D01*
X0027806Y0097391D01*
X0027706Y0097707D01*
X0027614Y0098025D01*
X0027530Y0098346D01*
X0027453Y0098668D01*
X0027384Y0098992D01*
X0027324Y0099318D01*
X0027271Y0099645D01*
X0027227Y0099973D01*
X0027190Y0100303D01*
X0027162Y0100633D01*
X0027141Y0100964D01*
X0027129Y0101295D01*
X0027125Y0101626D01*
X0030625Y0316626D02*
X0050625Y0316626D01*
X0050625Y0336626D02*
X0030625Y0336626D01*
X0031550Y0340754D02*
X0035820Y0340754D01*
X0027125Y0359126D02*
X0027129Y0359457D01*
X0027141Y0359788D01*
X0027162Y0360119D01*
X0027190Y0360449D01*
X0027227Y0360779D01*
X0027271Y0361107D01*
X0027324Y0361434D01*
X0027384Y0361760D01*
X0027453Y0362084D01*
X0027530Y0362406D01*
X0027614Y0362727D01*
X0027706Y0363045D01*
X0027806Y0363361D01*
X0027914Y0363674D01*
X0028030Y0363985D01*
X0028153Y0364292D01*
X0028283Y0364597D01*
X0028421Y0364898D01*
X0028566Y0365196D01*
X0028719Y0365490D01*
X0028879Y0365780D01*
X0029046Y0366066D01*
X0029219Y0366348D01*
X0029400Y0366626D01*
X0029588Y0366899D01*
X0029782Y0367168D01*
X0029982Y0367432D01*
X0030189Y0367690D01*
X0030403Y0367944D01*
X0030622Y0368192D01*
X0030848Y0368435D01*
X0031079Y0368672D01*
X0031316Y0368903D01*
X0031559Y0369129D01*
X0031807Y0369348D01*
X0032061Y0369562D01*
X0032319Y0369769D01*
X0032583Y0369969D01*
X0032852Y0370163D01*
X0033125Y0370351D01*
X0033403Y0370532D01*
X0033685Y0370705D01*
X0033971Y0370872D01*
X0034261Y0371032D01*
X0034555Y0371185D01*
X0034853Y0371330D01*
X0035154Y0371468D01*
X0035459Y0371598D01*
X0035766Y0371721D01*
X0036077Y0371837D01*
X0036390Y0371945D01*
X0036706Y0372045D01*
X0037024Y0372137D01*
X0037345Y0372221D01*
X0037667Y0372298D01*
X0037991Y0372367D01*
X0038317Y0372427D01*
X0038644Y0372480D01*
X0038972Y0372524D01*
X0039302Y0372561D01*
X0039632Y0372589D01*
X0039963Y0372610D01*
X0040294Y0372622D01*
X0040625Y0372626D01*
X0040956Y0372622D01*
X0041287Y0372610D01*
X0041618Y0372589D01*
X0041948Y0372561D01*
X0042278Y0372524D01*
X0042606Y0372480D01*
X0042933Y0372427D01*
X0043259Y0372367D01*
X0043583Y0372298D01*
X0043905Y0372221D01*
X0044226Y0372137D01*
X0044544Y0372045D01*
X0044860Y0371945D01*
X0045173Y0371837D01*
X0045484Y0371721D01*
X0045791Y0371598D01*
X0046096Y0371468D01*
X0046397Y0371330D01*
X0046695Y0371185D01*
X0046989Y0371032D01*
X0047279Y0370872D01*
X0047565Y0370705D01*
X0047847Y0370532D01*
X0048125Y0370351D01*
X0048398Y0370163D01*
X0048667Y0369969D01*
X0048931Y0369769D01*
X0049189Y0369562D01*
X0049443Y0369348D01*
X0049691Y0369129D01*
X0049934Y0368903D01*
X0050171Y0368672D01*
X0050402Y0368435D01*
X0050628Y0368192D01*
X0050847Y0367944D01*
X0051061Y0367690D01*
X0051268Y0367432D01*
X0051468Y0367168D01*
X0051662Y0366899D01*
X0051850Y0366626D01*
X0052031Y0366348D01*
X0052204Y0366066D01*
X0052371Y0365780D01*
X0052531Y0365490D01*
X0052684Y0365196D01*
X0052829Y0364898D01*
X0052967Y0364597D01*
X0053097Y0364292D01*
X0053220Y0363985D01*
X0053336Y0363674D01*
X0053444Y0363361D01*
X0053544Y0363045D01*
X0053636Y0362727D01*
X0053720Y0362406D01*
X0053797Y0362084D01*
X0053866Y0361760D01*
X0053926Y0361434D01*
X0053979Y0361107D01*
X0054023Y0360779D01*
X0054060Y0360449D01*
X0054088Y0360119D01*
X0054109Y0359788D01*
X0054121Y0359457D01*
X0054125Y0359126D01*
X0054121Y0358795D01*
X0054109Y0358464D01*
X0054088Y0358133D01*
X0054060Y0357803D01*
X0054023Y0357473D01*
X0053979Y0357145D01*
X0053926Y0356818D01*
X0053866Y0356492D01*
X0053797Y0356168D01*
X0053720Y0355846D01*
X0053636Y0355525D01*
X0053544Y0355207D01*
X0053444Y0354891D01*
X0053336Y0354578D01*
X0053220Y0354267D01*
X0053097Y0353960D01*
X0052967Y0353655D01*
X0052829Y0353354D01*
X0052684Y0353056D01*
X0052531Y0352762D01*
X0052371Y0352472D01*
X0052204Y0352186D01*
X0052031Y0351904D01*
X0051850Y0351626D01*
X0051662Y0351353D01*
X0051468Y0351084D01*
X0051268Y0350820D01*
X0051061Y0350562D01*
X0050847Y0350308D01*
X0050628Y0350060D01*
X0050402Y0349817D01*
X0050171Y0349580D01*
X0049934Y0349349D01*
X0049691Y0349123D01*
X0049443Y0348904D01*
X0049189Y0348690D01*
X0048931Y0348483D01*
X0048667Y0348283D01*
X0048398Y0348089D01*
X0048125Y0347901D01*
X0047847Y0347720D01*
X0047565Y0347547D01*
X0047279Y0347380D01*
X0046989Y0347220D01*
X0046695Y0347067D01*
X0046397Y0346922D01*
X0046096Y0346784D01*
X0045791Y0346654D01*
X0045484Y0346531D01*
X0045173Y0346415D01*
X0044860Y0346307D01*
X0044544Y0346207D01*
X0044226Y0346115D01*
X0043905Y0346031D01*
X0043583Y0345954D01*
X0043259Y0345885D01*
X0042933Y0345825D01*
X0042606Y0345772D01*
X0042278Y0345728D01*
X0041948Y0345691D01*
X0041618Y0345663D01*
X0041287Y0345642D01*
X0040956Y0345630D01*
X0040625Y0345626D01*
X0040294Y0345630D01*
X0039963Y0345642D01*
X0039632Y0345663D01*
X0039302Y0345691D01*
X0038972Y0345728D01*
X0038644Y0345772D01*
X0038317Y0345825D01*
X0037991Y0345885D01*
X0037667Y0345954D01*
X0037345Y0346031D01*
X0037024Y0346115D01*
X0036706Y0346207D01*
X0036390Y0346307D01*
X0036077Y0346415D01*
X0035766Y0346531D01*
X0035459Y0346654D01*
X0035154Y0346784D01*
X0034853Y0346922D01*
X0034555Y0347067D01*
X0034261Y0347220D01*
X0033971Y0347380D01*
X0033685Y0347547D01*
X0033403Y0347720D01*
X0033125Y0347901D01*
X0032852Y0348089D01*
X0032583Y0348283D01*
X0032319Y0348483D01*
X0032061Y0348690D01*
X0031807Y0348904D01*
X0031559Y0349123D01*
X0031316Y0349349D01*
X0031079Y0349580D01*
X0030848Y0349817D01*
X0030622Y0350060D01*
X0030403Y0350308D01*
X0030189Y0350562D01*
X0029982Y0350820D01*
X0029782Y0351084D01*
X0029588Y0351353D01*
X0029400Y0351626D01*
X0029219Y0351904D01*
X0029046Y0352186D01*
X0028879Y0352472D01*
X0028719Y0352762D01*
X0028566Y0353056D01*
X0028421Y0353354D01*
X0028283Y0353655D01*
X0028153Y0353960D01*
X0028030Y0354267D01*
X0027914Y0354578D01*
X0027806Y0354891D01*
X0027706Y0355207D01*
X0027614Y0355525D01*
X0027530Y0355846D01*
X0027453Y0356168D01*
X0027384Y0356492D01*
X0027324Y0356818D01*
X0027271Y0357145D01*
X0027227Y0357473D01*
X0027190Y0357803D01*
X0027162Y0358133D01*
X0027141Y0358464D01*
X0027129Y0358795D01*
X0027125Y0359126D01*
D15*
X0331625Y0115376D02*
X0331625Y0097876D01*
X0338500Y0097876D02*
X0349750Y0097876D01*
X0356625Y0097876D02*
X0356625Y0115376D01*
D16*
X0331625Y0115376D01*
X0331625Y0097876D02*
X0338500Y0097876D01*
X0349750Y0097876D02*
X0356625Y0097876D01*
X0383534Y0154500D02*
X0383534Y0157256D01*
X0383534Y0154500D02*
X0386001Y0154500D01*
X0400187Y0154500D02*
X0402628Y0154500D01*
X0383534Y0185997D02*
X0383534Y0188752D01*
X0386001Y0188752D01*
X0400187Y0188752D02*
X0402628Y0188752D01*
X0258046Y0185327D02*
X0256668Y0185327D01*
X0258046Y0185327D02*
X0258046Y0197926D01*
X0256668Y0197926D01*
X0249582Y0197926D02*
X0248204Y0197926D01*
X0248204Y0185327D01*
X0249582Y0185327D01*
D17*
X0246150Y0187093D02*
X0246150Y0187827D01*
X0245783Y0188194D01*
X0245783Y0188936D02*
X0244315Y0190404D01*
X0245783Y0190404D01*
X0246150Y0190037D01*
X0246150Y0189303D01*
X0245783Y0188936D01*
X0244315Y0188936D01*
X0243948Y0189303D01*
X0243948Y0190037D01*
X0244315Y0190404D01*
X0244315Y0191146D02*
X0243948Y0191513D01*
X0243948Y0192247D01*
X0244315Y0192614D01*
X0244682Y0192614D01*
X0245049Y0192247D01*
X0245416Y0192614D01*
X0245783Y0192614D01*
X0246150Y0192247D01*
X0246150Y0191513D01*
X0245783Y0191146D01*
X0245049Y0191880D02*
X0245049Y0192247D01*
X0244315Y0193356D02*
X0243948Y0193723D01*
X0243948Y0194457D01*
X0244315Y0194824D01*
X0244682Y0194824D01*
X0245049Y0194457D01*
X0245416Y0194824D01*
X0245783Y0194824D01*
X0246150Y0194457D01*
X0246150Y0193723D01*
X0245783Y0193356D01*
X0245049Y0194090D02*
X0245049Y0194457D01*
X0244682Y0195566D02*
X0243948Y0196300D01*
X0246150Y0196300D01*
X0246150Y0195566D02*
X0246150Y0197034D01*
X0244315Y0188194D02*
X0243948Y0187827D01*
X0243948Y0187093D01*
X0244315Y0186726D01*
X0245783Y0186726D01*
X0246150Y0187093D01*
X0260198Y0187183D02*
X0260565Y0186816D01*
X0260198Y0187183D02*
X0260198Y0187917D01*
X0260565Y0188284D01*
X0260932Y0188284D01*
X0262400Y0186816D01*
X0262400Y0188284D01*
X0262033Y0186074D02*
X0262400Y0185707D01*
X0262400Y0184973D01*
X0262033Y0184606D01*
X0262033Y0183864D02*
X0262400Y0183497D01*
X0262400Y0182763D01*
X0262033Y0182396D01*
X0262033Y0181654D02*
X0262400Y0181287D01*
X0262400Y0180553D01*
X0262033Y0180186D01*
X0260565Y0181654D01*
X0262033Y0181654D01*
X0262033Y0180186D02*
X0260565Y0180186D01*
X0260198Y0180553D01*
X0260198Y0181287D01*
X0260565Y0181654D01*
X0260565Y0182396D02*
X0260198Y0182763D01*
X0260198Y0183497D01*
X0260565Y0183864D01*
X0260932Y0183864D01*
X0261299Y0183497D01*
X0261666Y0183864D01*
X0262033Y0183864D01*
X0261299Y0183497D02*
X0261299Y0183130D01*
X0260565Y0184606D02*
X0260198Y0184973D01*
X0260198Y0185707D01*
X0260565Y0186074D01*
X0260932Y0186074D01*
X0261299Y0185707D01*
X0261666Y0186074D01*
X0262033Y0186074D01*
X0261299Y0185707D02*
X0261299Y0185340D01*
X0260565Y0179444D02*
X0260198Y0179077D01*
X0260198Y0178343D01*
X0260565Y0177976D01*
X0262033Y0177976D01*
X0262400Y0178343D01*
X0262400Y0179077D01*
X0262033Y0179444D01*
X0249201Y0170164D02*
X0249201Y0167962D01*
X0248467Y0167962D02*
X0249935Y0167962D01*
X0248467Y0169430D02*
X0249201Y0170164D01*
X0247725Y0169797D02*
X0247358Y0170164D01*
X0246624Y0170164D01*
X0246257Y0169797D01*
X0245515Y0169797D02*
X0245515Y0169430D01*
X0245148Y0169063D01*
X0245515Y0168696D01*
X0245515Y0168329D01*
X0245148Y0167962D01*
X0244414Y0167962D01*
X0244047Y0168329D01*
X0243305Y0168329D02*
X0242938Y0167962D01*
X0242204Y0167962D01*
X0241837Y0168329D01*
X0243305Y0169797D01*
X0243305Y0168329D01*
X0241837Y0168329D02*
X0241837Y0169797D01*
X0242204Y0170164D01*
X0242938Y0170164D01*
X0243305Y0169797D01*
X0244047Y0169797D02*
X0244414Y0170164D01*
X0245148Y0170164D01*
X0245515Y0169797D01*
X0245148Y0169063D02*
X0244781Y0169063D01*
X0246257Y0167962D02*
X0247725Y0169430D01*
X0247725Y0169797D01*
X0247725Y0167962D02*
X0246257Y0167962D01*
X0248948Y0164425D02*
X0251150Y0164425D01*
X0251150Y0163691D02*
X0251150Y0165159D01*
X0249682Y0163691D02*
X0248948Y0164425D01*
X0248948Y0162215D02*
X0251150Y0162215D01*
X0251150Y0161481D02*
X0251150Y0162949D01*
X0249682Y0161481D02*
X0248948Y0162215D01*
X0249315Y0160739D02*
X0249682Y0160739D01*
X0250049Y0160372D01*
X0250416Y0160739D01*
X0250783Y0160739D01*
X0251150Y0160372D01*
X0251150Y0159638D01*
X0250783Y0159271D01*
X0250783Y0158529D02*
X0251150Y0158162D01*
X0251150Y0157428D01*
X0250783Y0157061D01*
X0249315Y0158529D01*
X0250783Y0158529D01*
X0250783Y0157061D02*
X0249315Y0157061D01*
X0248948Y0157428D01*
X0248948Y0158162D01*
X0249315Y0158529D01*
X0249315Y0159271D02*
X0248948Y0159638D01*
X0248948Y0160372D01*
X0249315Y0160739D01*
X0250049Y0160372D02*
X0250049Y0160005D01*
X0249315Y0156319D02*
X0248948Y0155952D01*
X0248948Y0155218D01*
X0249315Y0154851D01*
X0250783Y0154851D01*
X0251150Y0155218D01*
X0251150Y0155952D01*
X0250783Y0156319D01*
X0249996Y0152678D02*
X0248895Y0151577D01*
X0250363Y0151577D01*
X0251105Y0151577D02*
X0252573Y0151577D01*
X0253315Y0151944D02*
X0254048Y0152678D01*
X0254048Y0150476D01*
X0253315Y0150476D02*
X0254782Y0150476D01*
X0252206Y0150476D02*
X0252206Y0152678D01*
X0251105Y0151577D01*
X0249996Y0150476D02*
X0249996Y0152678D01*
X0248153Y0152311D02*
X0246685Y0150843D01*
X0247052Y0150476D01*
X0247786Y0150476D01*
X0248153Y0150843D01*
X0248153Y0152311D01*
X0247786Y0152678D01*
X0247052Y0152678D01*
X0246685Y0152311D01*
X0246685Y0150843D01*
X0245943Y0150476D02*
X0245209Y0151210D01*
X0245576Y0151210D02*
X0244475Y0151210D01*
X0244475Y0150476D02*
X0244475Y0152678D01*
X0245576Y0152678D01*
X0245943Y0152311D01*
X0245943Y0151577D01*
X0245576Y0151210D01*
X0244475Y0147678D02*
X0244475Y0145476D01*
X0245943Y0145476D01*
X0246685Y0145843D02*
X0248153Y0147311D01*
X0248153Y0145843D01*
X0247786Y0145476D01*
X0247052Y0145476D01*
X0246685Y0145843D01*
X0246685Y0147311D01*
X0247052Y0147678D01*
X0247786Y0147678D01*
X0248153Y0147311D01*
X0248895Y0146577D02*
X0250363Y0146577D01*
X0251105Y0146944D02*
X0251839Y0147678D01*
X0251839Y0145476D01*
X0251105Y0145476D02*
X0252573Y0145476D01*
X0253315Y0145476D02*
X0254782Y0145476D01*
X0254048Y0145476D02*
X0254048Y0147678D01*
X0253315Y0146944D01*
X0249996Y0147678D02*
X0248895Y0146577D01*
X0249996Y0145476D02*
X0249996Y0147678D01*
X0250286Y0135178D02*
X0250653Y0134811D01*
X0249185Y0133343D01*
X0249552Y0132976D01*
X0250286Y0132976D01*
X0250653Y0133343D01*
X0250653Y0134811D01*
X0250286Y0135178D02*
X0249552Y0135178D01*
X0249185Y0134811D01*
X0249185Y0133343D01*
X0248443Y0132976D02*
X0247709Y0133710D01*
X0248076Y0133710D02*
X0246975Y0133710D01*
X0246975Y0132976D02*
X0246975Y0135178D01*
X0248076Y0135178D01*
X0248443Y0134811D01*
X0248443Y0134077D01*
X0248076Y0133710D01*
X0251395Y0133343D02*
X0251762Y0132976D01*
X0252496Y0132976D01*
X0252863Y0133343D01*
X0252863Y0134811D01*
X0252496Y0135178D01*
X0251762Y0135178D01*
X0251395Y0134811D01*
X0251395Y0134444D01*
X0251762Y0134077D01*
X0252863Y0134077D01*
X0253605Y0134811D02*
X0253972Y0135178D01*
X0254706Y0135178D01*
X0255073Y0134811D01*
X0255073Y0134444D01*
X0253605Y0132976D01*
X0255073Y0132976D01*
X0255815Y0132976D02*
X0257282Y0134444D01*
X0257282Y0134811D01*
X0256915Y0135178D01*
X0256181Y0135178D01*
X0255815Y0134811D01*
X0255815Y0132976D02*
X0257282Y0132976D01*
X0252798Y0130178D02*
X0252798Y0127976D01*
X0252065Y0127976D02*
X0253532Y0127976D01*
X0252065Y0129444D02*
X0252798Y0130178D01*
X0251323Y0129811D02*
X0249855Y0128343D01*
X0250222Y0127976D01*
X0250956Y0127976D01*
X0251323Y0128343D01*
X0251323Y0129811D01*
X0250956Y0130178D01*
X0250222Y0130178D01*
X0249855Y0129811D01*
X0249855Y0128343D01*
X0249113Y0127976D02*
X0247645Y0127976D01*
X0248379Y0127976D02*
X0248379Y0130178D01*
X0247645Y0129444D01*
X0246903Y0127976D02*
X0245435Y0127976D01*
X0246169Y0127976D02*
X0246169Y0130178D01*
X0245435Y0129444D01*
X0244693Y0129811D02*
X0244693Y0129077D01*
X0244326Y0128710D01*
X0243225Y0128710D01*
X0243225Y0127976D02*
X0243225Y0130178D01*
X0244326Y0130178D01*
X0244693Y0129811D01*
X0243959Y0128710D02*
X0244693Y0127976D01*
X0257342Y0113928D02*
X0256975Y0113561D01*
X0256975Y0113194D01*
X0257342Y0112827D01*
X0258076Y0112827D01*
X0258443Y0112460D01*
X0258443Y0112093D01*
X0258076Y0111726D01*
X0257342Y0111726D01*
X0256975Y0112093D01*
X0257342Y0113928D02*
X0258076Y0113928D01*
X0258443Y0113561D01*
X0259185Y0113561D02*
X0259552Y0113928D01*
X0260286Y0113928D01*
X0260653Y0113561D01*
X0259185Y0112093D01*
X0259552Y0111726D01*
X0260286Y0111726D01*
X0260653Y0112093D01*
X0260653Y0113561D01*
X0261395Y0113561D02*
X0261762Y0113928D01*
X0262496Y0113928D01*
X0262863Y0113561D01*
X0262863Y0113194D01*
X0261395Y0111726D01*
X0262863Y0111726D01*
X0263605Y0111726D02*
X0265073Y0111726D01*
X0264339Y0111726D02*
X0264339Y0113928D01*
X0263605Y0113194D01*
X0265815Y0113561D02*
X0266181Y0113928D01*
X0266915Y0113928D01*
X0267282Y0113561D01*
X0267282Y0113194D01*
X0265815Y0111726D01*
X0267282Y0111726D01*
X0267020Y0119226D02*
X0268488Y0120694D01*
X0268488Y0121061D01*
X0268121Y0121428D01*
X0267387Y0121428D01*
X0267020Y0121061D01*
X0266278Y0121061D02*
X0264810Y0119593D01*
X0265177Y0119226D01*
X0265911Y0119226D01*
X0266278Y0119593D01*
X0266278Y0121061D01*
X0265911Y0121428D01*
X0265177Y0121428D01*
X0264810Y0121061D01*
X0264810Y0119593D01*
X0264068Y0119593D02*
X0263701Y0119226D01*
X0262967Y0119226D01*
X0262600Y0119593D01*
X0262600Y0121061D01*
X0262967Y0121428D01*
X0263701Y0121428D01*
X0264068Y0121061D01*
X0267020Y0119226D02*
X0268488Y0119226D01*
X0269230Y0119226D02*
X0270698Y0119226D01*
X0269964Y0119226D02*
X0269964Y0121428D01*
X0269230Y0120694D01*
X0271440Y0121061D02*
X0271806Y0121428D01*
X0272540Y0121428D01*
X0272907Y0121061D01*
X0272907Y0120694D01*
X0272540Y0120327D01*
X0272907Y0119960D01*
X0272907Y0119593D01*
X0272540Y0119226D01*
X0271806Y0119226D01*
X0271440Y0119593D01*
X0272173Y0120327D02*
X0272540Y0120327D01*
X0280823Y0126726D02*
X0280823Y0127827D01*
X0281190Y0128194D01*
X0281924Y0128194D01*
X0282291Y0127827D01*
X0282291Y0126726D01*
X0283025Y0126726D02*
X0280823Y0126726D01*
X0282291Y0127460D02*
X0283025Y0128194D01*
X0282658Y0128936D02*
X0281190Y0130404D01*
X0282658Y0130404D01*
X0283025Y0130037D01*
X0283025Y0129303D01*
X0282658Y0128936D01*
X0281190Y0128936D01*
X0280823Y0129303D01*
X0280823Y0130037D01*
X0281190Y0130404D01*
X0281924Y0131146D02*
X0281924Y0132247D01*
X0282291Y0132614D01*
X0282658Y0132614D01*
X0283025Y0132247D01*
X0283025Y0131513D01*
X0282658Y0131146D01*
X0281924Y0131146D01*
X0281190Y0131880D01*
X0280823Y0132614D01*
X0281190Y0133356D02*
X0280823Y0133723D01*
X0280823Y0134457D01*
X0281190Y0134824D01*
X0281557Y0134824D01*
X0283025Y0133356D01*
X0283025Y0134824D01*
X0283025Y0135566D02*
X0283025Y0137034D01*
X0283025Y0136300D02*
X0280823Y0136300D01*
X0281557Y0135566D01*
X0293690Y0122034D02*
X0294057Y0122034D01*
X0294424Y0121667D01*
X0294791Y0122034D01*
X0295158Y0122034D01*
X0295525Y0121667D01*
X0295525Y0120933D01*
X0295158Y0120566D01*
X0295525Y0119824D02*
X0295525Y0118356D01*
X0294057Y0119824D01*
X0293690Y0119824D01*
X0293323Y0119457D01*
X0293323Y0118723D01*
X0293690Y0118356D01*
X0293323Y0117614D02*
X0293690Y0116880D01*
X0294424Y0116146D01*
X0294424Y0117247D01*
X0294791Y0117614D01*
X0295158Y0117614D01*
X0295525Y0117247D01*
X0295525Y0116513D01*
X0295158Y0116146D01*
X0294424Y0116146D01*
X0293690Y0115404D02*
X0295158Y0113936D01*
X0295525Y0114303D01*
X0295525Y0115037D01*
X0295158Y0115404D01*
X0293690Y0115404D01*
X0293323Y0115037D01*
X0293323Y0114303D01*
X0293690Y0113936D01*
X0295158Y0113936D01*
X0295525Y0113194D02*
X0294791Y0112460D01*
X0294791Y0112827D02*
X0294791Y0111726D01*
X0295525Y0111726D02*
X0293323Y0111726D01*
X0293323Y0112827D01*
X0293690Y0113194D01*
X0294424Y0113194D01*
X0294791Y0112827D01*
X0298323Y0112827D02*
X0298690Y0113194D01*
X0299424Y0113194D01*
X0299791Y0112827D01*
X0299791Y0111726D01*
X0300525Y0111726D02*
X0298323Y0111726D01*
X0298323Y0112827D01*
X0298690Y0113936D02*
X0298323Y0114303D01*
X0298323Y0115037D01*
X0298690Y0115404D01*
X0300158Y0113936D01*
X0300525Y0114303D01*
X0300525Y0115037D01*
X0300158Y0115404D01*
X0298690Y0115404D01*
X0299424Y0116146D02*
X0299424Y0117247D01*
X0299791Y0117614D01*
X0300158Y0117614D01*
X0300525Y0117247D01*
X0300525Y0116513D01*
X0300158Y0116146D01*
X0299424Y0116146D01*
X0298690Y0116880D01*
X0298323Y0117614D01*
X0298690Y0118356D02*
X0298323Y0118723D01*
X0298323Y0119457D01*
X0298690Y0119824D01*
X0299057Y0119824D01*
X0300525Y0118356D01*
X0300525Y0119824D01*
X0299424Y0120566D02*
X0299424Y0122034D01*
X0298323Y0121667D02*
X0299424Y0120566D01*
X0300525Y0121667D02*
X0298323Y0121667D01*
X0294424Y0121667D02*
X0294424Y0121300D01*
X0293690Y0122034D02*
X0293323Y0121667D01*
X0293323Y0120933D01*
X0293690Y0120566D01*
X0298690Y0113936D02*
X0300158Y0113936D01*
X0300525Y0113194D02*
X0299791Y0112460D01*
X0304573Y0112827D02*
X0304940Y0113194D01*
X0305674Y0113194D01*
X0306041Y0112827D01*
X0306041Y0111726D01*
X0306775Y0111726D02*
X0304573Y0111726D01*
X0304573Y0112827D01*
X0304940Y0113936D02*
X0304573Y0114303D01*
X0304573Y0115037D01*
X0304940Y0115404D01*
X0306408Y0113936D01*
X0306775Y0114303D01*
X0306775Y0115037D01*
X0306408Y0115404D01*
X0304940Y0115404D01*
X0304940Y0116146D02*
X0305307Y0116146D01*
X0305674Y0116513D01*
X0305674Y0117247D01*
X0306041Y0117614D01*
X0306408Y0117614D01*
X0306775Y0117247D01*
X0306775Y0116513D01*
X0306408Y0116146D01*
X0306041Y0116146D01*
X0305674Y0116513D01*
X0305674Y0117247D02*
X0305307Y0117614D01*
X0304940Y0117614D01*
X0304573Y0117247D01*
X0304573Y0116513D01*
X0304940Y0116146D01*
X0304940Y0113936D02*
X0306408Y0113936D01*
X0306775Y0113194D02*
X0306041Y0112460D01*
X0306775Y0118356D02*
X0305307Y0119824D01*
X0304940Y0119824D01*
X0304573Y0119457D01*
X0304573Y0118723D01*
X0304940Y0118356D01*
X0306775Y0118356D02*
X0306775Y0119824D01*
X0305674Y0120566D02*
X0305674Y0122034D01*
X0306775Y0121667D02*
X0304573Y0121667D01*
X0305674Y0120566D01*
X0323225Y0132976D02*
X0323225Y0135178D01*
X0324326Y0135178D01*
X0324693Y0134811D01*
X0324693Y0134077D01*
X0324326Y0133710D01*
X0323225Y0133710D01*
X0323959Y0133710D02*
X0324693Y0132976D01*
X0325435Y0133343D02*
X0326903Y0134811D01*
X0326903Y0133343D01*
X0326536Y0132976D01*
X0325802Y0132976D01*
X0325435Y0133343D01*
X0325435Y0134811D01*
X0325802Y0135178D01*
X0326536Y0135178D01*
X0326903Y0134811D01*
X0327645Y0134077D02*
X0328746Y0134077D01*
X0329113Y0133710D01*
X0329113Y0133343D01*
X0328746Y0132976D01*
X0328012Y0132976D01*
X0327645Y0133343D01*
X0327645Y0134077D01*
X0328379Y0134811D01*
X0329113Y0135178D01*
X0329855Y0134811D02*
X0330222Y0135178D01*
X0330956Y0135178D01*
X0331323Y0134811D01*
X0331323Y0134444D01*
X0329855Y0132976D01*
X0331323Y0132976D01*
X0332065Y0133343D02*
X0332431Y0132976D01*
X0333165Y0132976D01*
X0333532Y0133343D01*
X0333532Y0133710D01*
X0333165Y0134077D01*
X0332065Y0134077D01*
X0332065Y0133343D01*
X0332065Y0134077D02*
X0332798Y0134811D01*
X0333532Y0135178D01*
X0333165Y0149226D02*
X0332431Y0149226D01*
X0332065Y0149593D01*
X0331323Y0149593D02*
X0330956Y0149226D01*
X0330222Y0149226D01*
X0329855Y0149593D01*
X0331323Y0151061D01*
X0331323Y0149593D01*
X0331323Y0151061D02*
X0330956Y0151428D01*
X0330222Y0151428D01*
X0329855Y0151061D01*
X0329855Y0149593D01*
X0329113Y0149593D02*
X0328746Y0149226D01*
X0328012Y0149226D01*
X0327645Y0149593D01*
X0329113Y0151061D01*
X0329113Y0149593D01*
X0327645Y0149593D02*
X0327645Y0151061D01*
X0328012Y0151428D01*
X0328746Y0151428D01*
X0329113Y0151061D01*
X0326903Y0149226D02*
X0325435Y0149226D01*
X0326169Y0149226D02*
X0326169Y0151428D01*
X0325435Y0150694D01*
X0324693Y0150327D02*
X0324326Y0149960D01*
X0323225Y0149960D01*
X0323225Y0149226D02*
X0323225Y0151428D01*
X0324326Y0151428D01*
X0324693Y0151061D01*
X0324693Y0150327D01*
X0323959Y0149960D02*
X0324693Y0149226D01*
X0332065Y0151061D02*
X0332431Y0151428D01*
X0333165Y0151428D01*
X0333532Y0151061D01*
X0333532Y0150694D01*
X0333165Y0150327D01*
X0333532Y0149960D01*
X0333532Y0149593D01*
X0333165Y0149226D01*
X0333165Y0150327D02*
X0332798Y0150327D01*
X0361975Y0167976D02*
X0361975Y0170178D01*
X0363076Y0170178D01*
X0363443Y0169811D01*
X0363443Y0169077D01*
X0363076Y0168710D01*
X0361975Y0168710D01*
X0364185Y0169077D02*
X0364919Y0169077D01*
X0364185Y0167976D02*
X0364185Y0170178D01*
X0365653Y0170178D01*
X0366395Y0169444D02*
X0367129Y0170178D01*
X0367129Y0167976D01*
X0366395Y0167976D02*
X0367863Y0167976D01*
X0368605Y0169077D02*
X0370073Y0169077D01*
X0370815Y0169444D02*
X0371548Y0170178D01*
X0371548Y0167976D01*
X0370815Y0167976D02*
X0372282Y0167976D01*
X0373024Y0167976D02*
X0374492Y0167976D01*
X0373758Y0167976D02*
X0373758Y0170178D01*
X0373024Y0169444D01*
X0369706Y0170178D02*
X0368605Y0169077D01*
X0369706Y0167976D02*
X0369706Y0170178D01*
X0313025Y0204226D02*
X0310823Y0204226D01*
X0310823Y0205327D01*
X0311190Y0205694D01*
X0311924Y0205694D01*
X0312291Y0205327D01*
X0312291Y0204226D01*
X0312291Y0204960D02*
X0313025Y0205694D01*
X0312658Y0206436D02*
X0311190Y0207904D01*
X0312658Y0207904D01*
X0313025Y0207537D01*
X0313025Y0206803D01*
X0312658Y0206436D01*
X0311190Y0206436D01*
X0310823Y0206803D01*
X0310823Y0207537D01*
X0311190Y0207904D01*
X0310823Y0208646D02*
X0311924Y0208646D01*
X0311557Y0209380D01*
X0311557Y0209747D01*
X0311924Y0210114D01*
X0312658Y0210114D01*
X0313025Y0209747D01*
X0313025Y0209013D01*
X0312658Y0208646D01*
X0310823Y0208646D02*
X0310823Y0210114D01*
X0311557Y0210856D02*
X0310823Y0211590D01*
X0313025Y0211590D01*
X0313025Y0210856D02*
X0313025Y0212324D01*
X0313025Y0213066D02*
X0311557Y0214534D01*
X0311190Y0214534D01*
X0310823Y0214167D01*
X0310823Y0213433D01*
X0311190Y0213066D01*
X0313025Y0213066D02*
X0313025Y0214534D01*
X0308025Y0214534D02*
X0308025Y0213066D01*
X0308025Y0213800D02*
X0305823Y0213800D01*
X0306557Y0213066D01*
X0308025Y0212324D02*
X0308025Y0210856D01*
X0308025Y0211590D02*
X0305823Y0211590D01*
X0306557Y0210856D01*
X0306924Y0210114D02*
X0307658Y0210114D01*
X0308025Y0209747D01*
X0308025Y0209013D01*
X0307658Y0208646D01*
X0306924Y0208646D02*
X0306557Y0209380D01*
X0306557Y0209747D01*
X0306924Y0210114D01*
X0305823Y0210114D02*
X0305823Y0208646D01*
X0306924Y0208646D01*
X0306190Y0207904D02*
X0307658Y0206436D01*
X0308025Y0206803D01*
X0308025Y0207537D01*
X0307658Y0207904D01*
X0306190Y0207904D01*
X0305823Y0207537D01*
X0305823Y0206803D01*
X0306190Y0206436D01*
X0307658Y0206436D01*
X0308025Y0205694D02*
X0307291Y0204960D01*
X0307291Y0205327D02*
X0307291Y0204226D01*
X0308025Y0204226D02*
X0305823Y0204226D01*
X0305823Y0205327D01*
X0306190Y0205694D01*
X0306924Y0205694D01*
X0307291Y0205327D01*
X0270525Y0204747D02*
X0268323Y0204747D01*
X0269424Y0203646D01*
X0269424Y0205114D01*
X0269424Y0205856D02*
X0269057Y0206590D01*
X0269057Y0206957D01*
X0269424Y0207324D01*
X0270158Y0207324D01*
X0270525Y0206957D01*
X0270525Y0206223D01*
X0270158Y0205856D01*
X0269424Y0205856D02*
X0268323Y0205856D01*
X0268323Y0207324D01*
X0269057Y0208066D02*
X0268323Y0208800D01*
X0270525Y0208800D01*
X0270525Y0208066D02*
X0270525Y0209534D01*
X0270158Y0202904D02*
X0270525Y0202537D01*
X0270525Y0201803D01*
X0270158Y0201436D01*
X0268690Y0202904D01*
X0270158Y0202904D01*
X0270158Y0201436D02*
X0268690Y0201436D01*
X0268323Y0201803D01*
X0268323Y0202537D01*
X0268690Y0202904D01*
X0268690Y0200694D02*
X0268323Y0200327D01*
X0268323Y0199593D01*
X0268690Y0199226D01*
X0270158Y0199226D01*
X0270525Y0199593D01*
X0270525Y0200327D01*
X0270158Y0200694D01*
X0240728Y0170164D02*
X0241095Y0169797D01*
X0241095Y0168329D01*
X0240728Y0167962D01*
X0239995Y0167962D01*
X0239628Y0168329D01*
X0239628Y0169797D01*
X0239995Y0170164D01*
X0240728Y0170164D01*
X0240362Y0168696D02*
X0241095Y0167962D01*
X0260725Y0163928D02*
X0261826Y0163928D01*
X0262193Y0163561D01*
X0262193Y0162827D01*
X0261826Y0162460D01*
X0260725Y0162460D01*
X0260725Y0161726D02*
X0260725Y0163928D01*
X0261459Y0162460D02*
X0262193Y0161726D01*
X0262935Y0162093D02*
X0264403Y0163561D01*
X0264403Y0162093D01*
X0264036Y0161726D01*
X0263302Y0161726D01*
X0262935Y0162093D01*
X0262935Y0163561D01*
X0263302Y0163928D01*
X0264036Y0163928D01*
X0264403Y0163561D01*
X0265145Y0163561D02*
X0265145Y0163194D01*
X0265512Y0162827D01*
X0266613Y0162827D01*
X0266613Y0162093D02*
X0266613Y0163561D01*
X0266246Y0163928D01*
X0265512Y0163928D01*
X0265145Y0163561D01*
X0265145Y0162093D02*
X0265512Y0161726D01*
X0266246Y0161726D01*
X0266613Y0162093D01*
X0267355Y0161726D02*
X0268823Y0163194D01*
X0268823Y0163561D01*
X0268456Y0163928D01*
X0267722Y0163928D01*
X0267355Y0163561D01*
X0267355Y0161726D02*
X0268823Y0161726D01*
X0269565Y0161726D02*
X0271032Y0161726D01*
X0270298Y0161726D02*
X0270298Y0163928D01*
X0269565Y0163194D01*
X0214275Y0154534D02*
X0214275Y0153066D01*
X0212807Y0154534D01*
X0212440Y0154534D01*
X0212073Y0154167D01*
X0212073Y0153433D01*
X0212440Y0153066D01*
X0212440Y0152324D02*
X0213908Y0150856D01*
X0214275Y0151223D01*
X0214275Y0151957D01*
X0213908Y0152324D01*
X0212440Y0152324D01*
X0212073Y0151957D01*
X0212073Y0151223D01*
X0212440Y0150856D01*
X0213908Y0150856D01*
X0214275Y0150114D02*
X0214275Y0148646D01*
X0214275Y0149380D02*
X0212073Y0149380D01*
X0212807Y0148646D01*
X0214275Y0147904D02*
X0214275Y0146436D01*
X0214275Y0147170D02*
X0212073Y0147170D01*
X0212807Y0146436D01*
X0212440Y0145694D02*
X0212073Y0145327D01*
X0212073Y0144593D01*
X0212440Y0144226D01*
X0213908Y0144226D01*
X0214275Y0144593D01*
X0214275Y0145327D01*
X0213908Y0145694D01*
X0213456Y0137678D02*
X0213823Y0137311D01*
X0212355Y0135843D01*
X0212722Y0135476D01*
X0213456Y0135476D01*
X0213823Y0135843D01*
X0213823Y0137311D01*
X0213456Y0137678D02*
X0212722Y0137678D01*
X0212355Y0137311D01*
X0212355Y0135843D01*
X0211613Y0135476D02*
X0210145Y0135476D01*
X0210879Y0135476D02*
X0210879Y0137678D01*
X0210145Y0136944D01*
X0209403Y0135476D02*
X0207935Y0135476D01*
X0208669Y0135476D02*
X0208669Y0137678D01*
X0207935Y0136944D01*
X0207193Y0137311D02*
X0206826Y0137678D01*
X0206092Y0137678D01*
X0205725Y0137311D01*
X0205725Y0135843D01*
X0206092Y0135476D01*
X0206826Y0135476D01*
X0207193Y0135843D01*
X0203775Y0138343D02*
X0203775Y0139077D01*
X0203408Y0139444D01*
X0201573Y0139444D01*
X0202307Y0140186D02*
X0201573Y0140920D01*
X0203775Y0140920D01*
X0203775Y0140186D02*
X0203775Y0141654D01*
X0203775Y0142396D02*
X0203775Y0143864D01*
X0203775Y0143130D02*
X0201573Y0143130D01*
X0202307Y0142396D01*
X0201940Y0144606D02*
X0201573Y0144973D01*
X0201573Y0145707D01*
X0201940Y0146074D01*
X0203408Y0144606D01*
X0203775Y0144973D01*
X0203775Y0145707D01*
X0203408Y0146074D01*
X0201940Y0146074D01*
X0202307Y0146816D02*
X0201573Y0147550D01*
X0203775Y0147550D01*
X0203775Y0146816D02*
X0203775Y0148284D01*
X0203408Y0144606D02*
X0201940Y0144606D01*
X0203775Y0138343D02*
X0203408Y0137976D01*
X0201573Y0137976D01*
X0214565Y0136944D02*
X0215298Y0137678D01*
X0215298Y0135476D01*
X0214565Y0135476D02*
X0216032Y0135476D01*
X0174275Y0124534D02*
X0174275Y0123066D01*
X0172807Y0124534D01*
X0172440Y0124534D01*
X0172073Y0124167D01*
X0172073Y0123433D01*
X0172440Y0123066D01*
X0172440Y0122324D02*
X0173908Y0120856D01*
X0174275Y0121223D01*
X0174275Y0121957D01*
X0173908Y0122324D01*
X0172440Y0122324D01*
X0172073Y0121957D01*
X0172073Y0121223D01*
X0172440Y0120856D01*
X0173908Y0120856D01*
X0174275Y0120114D02*
X0174275Y0118646D01*
X0174275Y0119380D02*
X0172073Y0119380D01*
X0172807Y0118646D01*
X0174275Y0117904D02*
X0174275Y0116436D01*
X0174275Y0117170D02*
X0172073Y0117170D01*
X0172807Y0116436D01*
X0172440Y0115694D02*
X0173174Y0115694D01*
X0173541Y0115327D01*
X0173541Y0114226D01*
X0174275Y0114226D02*
X0172073Y0114226D01*
X0172073Y0115327D01*
X0172440Y0115694D01*
X0173541Y0114960D02*
X0174275Y0115694D01*
X0159275Y0120476D02*
X0157073Y0120476D01*
X0157073Y0121577D01*
X0157440Y0121944D01*
X0158174Y0121944D01*
X0158541Y0121577D01*
X0158541Y0120476D01*
X0158541Y0121210D02*
X0159275Y0121944D01*
X0159275Y0122686D02*
X0159275Y0124154D01*
X0159275Y0123420D02*
X0157073Y0123420D01*
X0157807Y0122686D01*
X0157807Y0124896D02*
X0157073Y0125630D01*
X0159275Y0125630D01*
X0159275Y0124896D02*
X0159275Y0126364D01*
X0158908Y0127106D02*
X0157440Y0128574D01*
X0158908Y0128574D01*
X0159275Y0128207D01*
X0159275Y0127473D01*
X0158908Y0127106D01*
X0157440Y0127106D01*
X0157073Y0127473D01*
X0157073Y0128207D01*
X0157440Y0128574D01*
X0158174Y0129316D02*
X0157073Y0130417D01*
X0159275Y0130417D01*
X0158174Y0130784D02*
X0158174Y0129316D01*
X0161092Y0170476D02*
X0161826Y0170476D01*
X0162193Y0170843D01*
X0162935Y0170476D02*
X0164403Y0170476D01*
X0163669Y0170476D02*
X0163669Y0172678D01*
X0162935Y0171944D01*
X0162193Y0172311D02*
X0161826Y0172678D01*
X0161092Y0172678D01*
X0160725Y0172311D01*
X0160725Y0170843D01*
X0161092Y0170476D01*
X0165145Y0170476D02*
X0166613Y0170476D01*
X0165879Y0170476D02*
X0165879Y0172678D01*
X0165145Y0171944D01*
X0167355Y0172311D02*
X0167722Y0172678D01*
X0168456Y0172678D01*
X0168823Y0172311D01*
X0167355Y0170843D01*
X0167722Y0170476D01*
X0168456Y0170476D01*
X0168823Y0170843D01*
X0168823Y0172311D01*
X0169565Y0172678D02*
X0169565Y0171577D01*
X0170298Y0171944D01*
X0170665Y0171944D01*
X0171032Y0171577D01*
X0171032Y0170843D01*
X0170665Y0170476D01*
X0169931Y0170476D01*
X0169565Y0170843D01*
X0169565Y0172678D02*
X0171032Y0172678D01*
X0167355Y0172311D02*
X0167355Y0170843D01*
X0180725Y0170843D02*
X0181092Y0170476D01*
X0181826Y0170476D01*
X0182193Y0170843D01*
X0182935Y0170476D02*
X0184403Y0170476D01*
X0183669Y0170476D02*
X0183669Y0172678D01*
X0182935Y0171944D01*
X0182193Y0172311D02*
X0181826Y0172678D01*
X0181092Y0172678D01*
X0180725Y0172311D01*
X0180725Y0170843D01*
X0185145Y0170476D02*
X0186613Y0170476D01*
X0185879Y0170476D02*
X0185879Y0172678D01*
X0185145Y0171944D01*
X0187355Y0172311D02*
X0187722Y0172678D01*
X0188456Y0172678D01*
X0188823Y0172311D01*
X0187355Y0170843D01*
X0187722Y0170476D01*
X0188456Y0170476D01*
X0188823Y0170843D01*
X0188823Y0172311D01*
X0189565Y0172311D02*
X0189931Y0172678D01*
X0190665Y0172678D01*
X0191032Y0172311D01*
X0191032Y0171944D01*
X0190665Y0171577D01*
X0191032Y0171210D01*
X0191032Y0170843D01*
X0190665Y0170476D01*
X0189931Y0170476D01*
X0189565Y0170843D01*
X0190298Y0171577D02*
X0190665Y0171577D01*
X0187355Y0170843D02*
X0187355Y0172311D01*
X0200725Y0172311D02*
X0200725Y0170843D01*
X0201092Y0170476D01*
X0201826Y0170476D01*
X0202193Y0170843D01*
X0202935Y0170476D02*
X0204403Y0170476D01*
X0203669Y0170476D02*
X0203669Y0172678D01*
X0202935Y0171944D01*
X0202193Y0172311D02*
X0201826Y0172678D01*
X0201092Y0172678D01*
X0200725Y0172311D01*
X0205145Y0171944D02*
X0205879Y0172678D01*
X0205879Y0170476D01*
X0205145Y0170476D02*
X0206613Y0170476D01*
X0207355Y0170843D02*
X0208823Y0172311D01*
X0208823Y0170843D01*
X0208456Y0170476D01*
X0207722Y0170476D01*
X0207355Y0170843D01*
X0207355Y0172311D01*
X0207722Y0172678D01*
X0208456Y0172678D01*
X0208823Y0172311D01*
X0209565Y0171577D02*
X0211032Y0171577D01*
X0210665Y0170476D02*
X0210665Y0172678D01*
X0209565Y0171577D01*
X0259185Y0113561D02*
X0259185Y0112093D01*
X0329225Y0101944D02*
X0329959Y0102678D01*
X0329959Y0100476D01*
X0329225Y0100476D02*
X0330693Y0100476D01*
X0283908Y0244226D02*
X0284275Y0244593D01*
X0284275Y0245327D01*
X0283908Y0245694D01*
X0283908Y0246436D02*
X0282440Y0247904D01*
X0283908Y0247904D01*
X0284275Y0247537D01*
X0284275Y0246803D01*
X0283908Y0246436D01*
X0282440Y0246436D01*
X0282073Y0246803D01*
X0282073Y0247537D01*
X0282440Y0247904D01*
X0282440Y0248646D02*
X0282807Y0248646D01*
X0283174Y0249013D01*
X0283174Y0249747D01*
X0283541Y0250114D01*
X0283908Y0250114D01*
X0284275Y0249747D01*
X0284275Y0249013D01*
X0283908Y0248646D01*
X0283541Y0248646D01*
X0283174Y0249013D01*
X0283174Y0249747D02*
X0282807Y0250114D01*
X0282440Y0250114D01*
X0282073Y0249747D01*
X0282073Y0249013D01*
X0282440Y0248646D01*
X0282440Y0250856D02*
X0282073Y0251223D01*
X0282073Y0251957D01*
X0282440Y0252324D01*
X0283908Y0250856D01*
X0284275Y0251223D01*
X0284275Y0251957D01*
X0283908Y0252324D01*
X0282440Y0252324D01*
X0282440Y0253066D02*
X0282073Y0253433D01*
X0282073Y0254167D01*
X0282440Y0254534D01*
X0282807Y0254534D01*
X0283174Y0254167D01*
X0283541Y0254534D01*
X0283908Y0254534D01*
X0284275Y0254167D01*
X0284275Y0253433D01*
X0283908Y0253066D01*
X0283174Y0253800D02*
X0283174Y0254167D01*
X0283908Y0250856D02*
X0282440Y0250856D01*
X0276775Y0251223D02*
X0276408Y0250856D01*
X0274940Y0252324D01*
X0276408Y0252324D01*
X0276775Y0251957D01*
X0276775Y0251223D01*
X0276408Y0250856D02*
X0274940Y0250856D01*
X0274573Y0251223D01*
X0274573Y0251957D01*
X0274940Y0252324D01*
X0274940Y0253066D02*
X0274573Y0253433D01*
X0274573Y0254167D01*
X0274940Y0254534D01*
X0275307Y0254534D01*
X0276775Y0253066D01*
X0276775Y0254534D01*
X0276408Y0250114D02*
X0276775Y0249747D01*
X0276775Y0249013D01*
X0276408Y0248646D01*
X0276041Y0248646D01*
X0275674Y0249013D01*
X0275674Y0249747D01*
X0276041Y0250114D01*
X0276408Y0250114D01*
X0275674Y0249747D02*
X0275307Y0250114D01*
X0274940Y0250114D01*
X0274573Y0249747D01*
X0274573Y0249013D01*
X0274940Y0248646D01*
X0275307Y0248646D01*
X0275674Y0249013D01*
X0274940Y0247904D02*
X0276408Y0247904D01*
X0276775Y0247537D01*
X0276775Y0246803D01*
X0276408Y0246436D01*
X0274940Y0247904D01*
X0274573Y0247537D01*
X0274573Y0246803D01*
X0274940Y0246436D01*
X0276408Y0246436D01*
X0276408Y0245694D02*
X0276775Y0245327D01*
X0276775Y0244593D01*
X0276408Y0244226D01*
X0274940Y0244226D01*
X0274573Y0244593D01*
X0274573Y0245327D01*
X0274940Y0245694D01*
X0266775Y0245327D02*
X0266408Y0245694D01*
X0266775Y0245327D02*
X0266775Y0244593D01*
X0266408Y0244226D01*
X0264940Y0244226D01*
X0264573Y0244593D01*
X0264573Y0245327D01*
X0264940Y0245694D01*
X0264940Y0246436D02*
X0264573Y0246803D01*
X0264573Y0247537D01*
X0264940Y0247904D01*
X0266408Y0246436D01*
X0266775Y0246803D01*
X0266775Y0247537D01*
X0266408Y0247904D01*
X0264940Y0247904D01*
X0264940Y0248646D02*
X0265307Y0248646D01*
X0265674Y0249013D01*
X0265674Y0249747D01*
X0266041Y0250114D01*
X0266408Y0250114D01*
X0266775Y0249747D01*
X0266775Y0249013D01*
X0266408Y0248646D01*
X0266041Y0248646D01*
X0265674Y0249013D01*
X0265674Y0249747D02*
X0265307Y0250114D01*
X0264940Y0250114D01*
X0264573Y0249747D01*
X0264573Y0249013D01*
X0264940Y0248646D01*
X0264940Y0246436D02*
X0266408Y0246436D01*
X0266408Y0250856D02*
X0264940Y0252324D01*
X0266408Y0252324D01*
X0266775Y0251957D01*
X0266775Y0251223D01*
X0266408Y0250856D01*
X0264940Y0250856D01*
X0264573Y0251223D01*
X0264573Y0251957D01*
X0264940Y0252324D01*
X0265307Y0253066D02*
X0264573Y0253800D01*
X0266775Y0253800D01*
X0266775Y0253066D02*
X0266775Y0254534D01*
X0282073Y0245327D02*
X0282073Y0244593D01*
X0282440Y0244226D01*
X0283908Y0244226D01*
X0282440Y0245694D02*
X0282073Y0245327D01*
X0317600Y0252093D02*
X0317967Y0251726D01*
X0318701Y0251726D01*
X0319068Y0252093D01*
X0319810Y0251726D02*
X0321278Y0251726D01*
X0320544Y0251726D02*
X0320544Y0253928D01*
X0319810Y0253194D01*
X0319068Y0253561D02*
X0318701Y0253928D01*
X0317967Y0253928D01*
X0317600Y0253561D01*
X0317600Y0252093D01*
X0322020Y0252093D02*
X0323488Y0253561D01*
X0323488Y0252093D01*
X0323121Y0251726D01*
X0322387Y0251726D01*
X0322020Y0252093D01*
X0322020Y0253561D01*
X0322387Y0253928D01*
X0323121Y0253928D01*
X0323488Y0253561D01*
X0324230Y0253561D02*
X0324597Y0253928D01*
X0325331Y0253928D01*
X0325698Y0253561D01*
X0324230Y0252093D01*
X0324597Y0251726D01*
X0325331Y0251726D01*
X0325698Y0252093D01*
X0325698Y0253561D01*
X0326440Y0253928D02*
X0326440Y0252827D01*
X0327173Y0253194D01*
X0327540Y0253194D01*
X0327907Y0252827D01*
X0327907Y0252093D01*
X0327540Y0251726D01*
X0326806Y0251726D01*
X0326440Y0252093D01*
X0326440Y0253928D02*
X0327907Y0253928D01*
X0324230Y0253561D02*
X0324230Y0252093D01*
X0323908Y0256726D02*
X0324275Y0257093D01*
X0324275Y0257827D01*
X0323908Y0258194D01*
X0324275Y0258936D02*
X0324275Y0260404D01*
X0324275Y0259670D02*
X0322073Y0259670D01*
X0322807Y0258936D01*
X0322440Y0258194D02*
X0322073Y0257827D01*
X0322073Y0257093D01*
X0322440Y0256726D01*
X0323908Y0256726D01*
X0323908Y0261146D02*
X0322440Y0262614D01*
X0323908Y0262614D01*
X0324275Y0262247D01*
X0324275Y0261513D01*
X0323908Y0261146D01*
X0322440Y0261146D01*
X0322073Y0261513D01*
X0322073Y0262247D01*
X0322440Y0262614D01*
X0322440Y0263356D02*
X0322073Y0263723D01*
X0322073Y0264457D01*
X0322440Y0264824D01*
X0323908Y0263356D01*
X0324275Y0263723D01*
X0324275Y0264457D01*
X0323908Y0264824D01*
X0322440Y0264824D01*
X0322440Y0265566D02*
X0322073Y0265933D01*
X0322073Y0266667D01*
X0322440Y0267034D01*
X0322807Y0267034D01*
X0323174Y0266667D01*
X0323541Y0267034D01*
X0323908Y0267034D01*
X0324275Y0266667D01*
X0324275Y0265933D01*
X0323908Y0265566D01*
X0323174Y0266300D02*
X0323174Y0266667D01*
X0323908Y0263356D02*
X0322440Y0263356D01*
X0322440Y0272976D02*
X0323908Y0272976D01*
X0324275Y0273343D01*
X0324275Y0274077D01*
X0323908Y0274444D01*
X0324275Y0275186D02*
X0324275Y0276654D01*
X0324275Y0275920D02*
X0322073Y0275920D01*
X0322807Y0275186D01*
X0322440Y0274444D02*
X0322073Y0274077D01*
X0322073Y0273343D01*
X0322440Y0272976D01*
X0322440Y0277396D02*
X0322073Y0277763D01*
X0322073Y0278497D01*
X0322440Y0278864D01*
X0323908Y0277396D01*
X0324275Y0277763D01*
X0324275Y0278497D01*
X0323908Y0278864D01*
X0322440Y0278864D01*
X0322440Y0279606D02*
X0322073Y0279973D01*
X0322073Y0280707D01*
X0322440Y0281074D01*
X0323908Y0279606D01*
X0324275Y0279973D01*
X0324275Y0280707D01*
X0323908Y0281074D01*
X0322440Y0281074D01*
X0322440Y0281816D02*
X0322073Y0282183D01*
X0322073Y0282917D01*
X0322440Y0283284D01*
X0322807Y0283284D01*
X0324275Y0281816D01*
X0324275Y0283284D01*
X0323908Y0279606D02*
X0322440Y0279606D01*
X0322440Y0277396D02*
X0323908Y0277396D01*
X0338592Y0291726D02*
X0339326Y0291726D01*
X0339693Y0292093D01*
X0340435Y0291726D02*
X0341903Y0291726D01*
X0341169Y0291726D02*
X0341169Y0293928D01*
X0340435Y0293194D01*
X0339693Y0293561D02*
X0339326Y0293928D01*
X0338592Y0293928D01*
X0338225Y0293561D01*
X0338225Y0292093D01*
X0338592Y0291726D01*
X0342645Y0292093D02*
X0344113Y0293561D01*
X0344113Y0292093D01*
X0343746Y0291726D01*
X0343012Y0291726D01*
X0342645Y0292093D01*
X0342645Y0293561D01*
X0343012Y0293928D01*
X0343746Y0293928D01*
X0344113Y0293561D01*
X0344855Y0293561D02*
X0345222Y0293928D01*
X0345956Y0293928D01*
X0346323Y0293561D01*
X0344855Y0292093D01*
X0345222Y0291726D01*
X0345956Y0291726D01*
X0346323Y0292093D01*
X0346323Y0293561D01*
X0347065Y0292827D02*
X0348532Y0292827D01*
X0348165Y0291726D02*
X0348165Y0293928D01*
X0347065Y0292827D01*
X0344855Y0292093D02*
X0344855Y0293561D01*
X0346350Y0285053D02*
X0346350Y0283218D01*
X0346717Y0282851D01*
X0347451Y0282851D01*
X0347818Y0283218D01*
X0347818Y0285053D01*
X0348560Y0284319D02*
X0349294Y0285053D01*
X0349294Y0282851D01*
X0348560Y0282851D02*
X0350028Y0282851D01*
X0350770Y0283218D02*
X0352238Y0284686D01*
X0352238Y0283218D01*
X0351871Y0282851D01*
X0351137Y0282851D01*
X0350770Y0283218D01*
X0350770Y0284686D01*
X0351137Y0285053D01*
X0351871Y0285053D01*
X0352238Y0284686D01*
X0352980Y0284686D02*
X0353347Y0285053D01*
X0354081Y0285053D01*
X0354448Y0284686D01*
X0352980Y0283218D01*
X0353347Y0282851D01*
X0354081Y0282851D01*
X0354448Y0283218D01*
X0354448Y0284686D01*
X0355190Y0284319D02*
X0355923Y0285053D01*
X0355923Y0282851D01*
X0355190Y0282851D02*
X0356657Y0282851D01*
X0352980Y0283218D02*
X0352980Y0284686D01*
X0357342Y0291726D02*
X0358076Y0291726D01*
X0358443Y0292093D01*
X0359185Y0291726D02*
X0360653Y0291726D01*
X0359919Y0291726D02*
X0359919Y0293928D01*
X0359185Y0293194D01*
X0358443Y0293561D02*
X0358076Y0293928D01*
X0357342Y0293928D01*
X0356975Y0293561D01*
X0356975Y0292093D01*
X0357342Y0291726D01*
X0361395Y0292093D02*
X0362863Y0293561D01*
X0362863Y0292093D01*
X0362496Y0291726D01*
X0361762Y0291726D01*
X0361395Y0292093D01*
X0361395Y0293561D01*
X0361762Y0293928D01*
X0362496Y0293928D01*
X0362863Y0293561D01*
X0363605Y0293561D02*
X0363972Y0293928D01*
X0364706Y0293928D01*
X0365073Y0293561D01*
X0363605Y0292093D01*
X0363972Y0291726D01*
X0364706Y0291726D01*
X0365073Y0292093D01*
X0365073Y0293561D01*
X0365815Y0293194D02*
X0366548Y0293928D01*
X0366548Y0291726D01*
X0365815Y0291726D02*
X0367282Y0291726D01*
X0363605Y0292093D02*
X0363605Y0293561D01*
X0368225Y0253928D02*
X0369326Y0253928D01*
X0369693Y0253561D01*
X0369693Y0252827D01*
X0369326Y0252460D01*
X0368225Y0252460D01*
X0368225Y0251726D02*
X0368225Y0253928D01*
X0368959Y0252460D02*
X0369693Y0251726D01*
X0370435Y0251726D02*
X0371903Y0251726D01*
X0371169Y0251726D02*
X0371169Y0253928D01*
X0370435Y0253194D01*
X0372645Y0253561D02*
X0373012Y0253928D01*
X0373746Y0253928D01*
X0374113Y0253561D01*
X0372645Y0252093D01*
X0373012Y0251726D01*
X0373746Y0251726D01*
X0374113Y0252093D01*
X0374113Y0253561D01*
X0374855Y0253561D02*
X0375222Y0253928D01*
X0375956Y0253928D01*
X0376323Y0253561D01*
X0374855Y0252093D01*
X0375222Y0251726D01*
X0375956Y0251726D01*
X0376323Y0252093D01*
X0376323Y0253561D01*
X0377065Y0253561D02*
X0377431Y0253928D01*
X0378165Y0253928D01*
X0378532Y0253561D01*
X0378532Y0253194D01*
X0377065Y0251726D01*
X0378532Y0251726D01*
X0378165Y0248928D02*
X0377065Y0247827D01*
X0378532Y0247827D01*
X0378165Y0246726D02*
X0378165Y0248928D01*
X0376323Y0248561D02*
X0374855Y0247093D01*
X0375222Y0246726D01*
X0375956Y0246726D01*
X0376323Y0247093D01*
X0376323Y0248561D01*
X0375956Y0248928D01*
X0375222Y0248928D01*
X0374855Y0248561D01*
X0374855Y0247093D01*
X0374113Y0247093D02*
X0373746Y0246726D01*
X0373012Y0246726D01*
X0372645Y0247093D01*
X0374113Y0248561D01*
X0374113Y0247093D01*
X0372645Y0247093D02*
X0372645Y0248561D01*
X0373012Y0248928D01*
X0373746Y0248928D01*
X0374113Y0248561D01*
X0371903Y0246726D02*
X0370435Y0246726D01*
X0371169Y0246726D02*
X0371169Y0248928D01*
X0370435Y0248194D01*
X0369693Y0247827D02*
X0369326Y0247460D01*
X0368225Y0247460D01*
X0368225Y0246726D02*
X0368225Y0248928D01*
X0369326Y0248928D01*
X0369693Y0248561D01*
X0369693Y0247827D01*
X0368959Y0247460D02*
X0369693Y0246726D01*
X0372645Y0252093D02*
X0372645Y0253561D01*
X0374855Y0253561D02*
X0374855Y0252093D01*
X0281775Y0316726D02*
X0279573Y0316726D01*
X0279573Y0317827D01*
X0279940Y0318194D01*
X0280674Y0318194D01*
X0281041Y0317827D01*
X0281041Y0316726D01*
X0281041Y0317460D02*
X0281775Y0318194D01*
X0281408Y0318936D02*
X0279940Y0320404D01*
X0281408Y0320404D01*
X0281775Y0320037D01*
X0281775Y0319303D01*
X0281408Y0318936D01*
X0279940Y0318936D01*
X0279573Y0319303D01*
X0279573Y0320037D01*
X0279940Y0320404D01*
X0279940Y0321146D02*
X0280307Y0321146D01*
X0280674Y0321513D01*
X0280674Y0322247D01*
X0281041Y0322614D01*
X0281408Y0322614D01*
X0281775Y0322247D01*
X0281775Y0321513D01*
X0281408Y0321146D01*
X0281041Y0321146D01*
X0280674Y0321513D01*
X0280674Y0322247D02*
X0280307Y0322614D01*
X0279940Y0322614D01*
X0279573Y0322247D01*
X0279573Y0321513D01*
X0279940Y0321146D01*
X0280307Y0323356D02*
X0279573Y0324090D01*
X0281775Y0324090D01*
X0281775Y0323356D02*
X0281775Y0324824D01*
X0281775Y0325566D02*
X0281775Y0327034D01*
X0281775Y0326300D02*
X0279573Y0326300D01*
X0280307Y0325566D01*
X0257466Y0296975D02*
X0257466Y0295507D01*
X0257466Y0296241D02*
X0255264Y0296241D01*
X0255998Y0295507D01*
X0255631Y0294765D02*
X0257099Y0294765D01*
X0257466Y0294398D01*
X0257466Y0293664D01*
X0257099Y0293297D01*
X0255631Y0294765D01*
X0255264Y0294398D01*
X0255264Y0293664D01*
X0255631Y0293297D01*
X0257099Y0293297D01*
X0257099Y0292555D02*
X0257466Y0292188D01*
X0257466Y0291454D01*
X0257099Y0291087D01*
X0256732Y0291087D01*
X0256365Y0291454D01*
X0256365Y0292188D01*
X0256732Y0292555D01*
X0257099Y0292555D01*
X0256365Y0292188D02*
X0255998Y0292555D01*
X0255631Y0292555D01*
X0255264Y0292188D01*
X0255264Y0291454D01*
X0255631Y0291087D01*
X0255998Y0291087D01*
X0256365Y0291454D01*
X0255631Y0290345D02*
X0257099Y0290345D01*
X0257466Y0289978D01*
X0257466Y0289244D01*
X0257099Y0288877D01*
X0255631Y0290345D01*
X0255264Y0289978D01*
X0255264Y0289244D01*
X0255631Y0288877D01*
X0257099Y0288877D01*
X0257099Y0288135D02*
X0255264Y0288135D01*
X0255264Y0286667D02*
X0257099Y0286667D01*
X0257466Y0287034D01*
X0257466Y0287768D01*
X0257099Y0288135D01*
X0216775Y0316726D02*
X0214573Y0316726D01*
X0214573Y0317827D01*
X0214940Y0318194D01*
X0215674Y0318194D01*
X0216041Y0317827D01*
X0216041Y0316726D01*
X0216041Y0317460D02*
X0216775Y0318194D01*
X0216408Y0318936D02*
X0216775Y0319303D01*
X0216775Y0320037D01*
X0216408Y0320404D01*
X0214940Y0320404D01*
X0216408Y0318936D01*
X0214940Y0318936D01*
X0214573Y0319303D01*
X0214573Y0320037D01*
X0214940Y0320404D01*
X0214573Y0321146D02*
X0214573Y0322614D01*
X0214940Y0322614D01*
X0216408Y0321146D01*
X0216775Y0321146D01*
X0216775Y0323356D02*
X0216775Y0324824D01*
X0216775Y0324090D02*
X0214573Y0324090D01*
X0215307Y0323356D01*
X0215307Y0325566D02*
X0214573Y0326300D01*
X0216775Y0326300D01*
X0216775Y0325566D02*
X0216775Y0327034D01*
X0192466Y0296975D02*
X0192466Y0295507D01*
X0192466Y0296241D02*
X0190264Y0296241D01*
X0190998Y0295507D01*
X0190631Y0294765D02*
X0192099Y0293297D01*
X0192466Y0293664D01*
X0192466Y0294398D01*
X0192099Y0294765D01*
X0190631Y0294765D01*
X0190264Y0294398D01*
X0190264Y0293664D01*
X0190631Y0293297D01*
X0192099Y0293297D01*
X0190631Y0292555D02*
X0192099Y0291087D01*
X0192466Y0291087D01*
X0192099Y0290345D02*
X0192466Y0289978D01*
X0192466Y0289244D01*
X0192099Y0288877D01*
X0190631Y0290345D01*
X0192099Y0290345D01*
X0192099Y0288877D02*
X0190631Y0288877D01*
X0190264Y0289244D01*
X0190264Y0289978D01*
X0190631Y0290345D01*
X0190264Y0291087D02*
X0190264Y0292555D01*
X0190631Y0292555D01*
X0190264Y0288135D02*
X0192099Y0288135D01*
X0192466Y0287768D01*
X0192466Y0287034D01*
X0192099Y0286667D01*
X0190264Y0286667D01*
X0151775Y0316726D02*
X0149573Y0316726D01*
X0149573Y0317827D01*
X0149940Y0318194D01*
X0150674Y0318194D01*
X0151041Y0317827D01*
X0151041Y0316726D01*
X0151041Y0317460D02*
X0151775Y0318194D01*
X0151408Y0318936D02*
X0149940Y0320404D01*
X0151408Y0320404D01*
X0151775Y0320037D01*
X0151775Y0319303D01*
X0151408Y0318936D01*
X0149940Y0318936D01*
X0149573Y0319303D01*
X0149573Y0320037D01*
X0149940Y0320404D01*
X0150674Y0321146D02*
X0150674Y0322247D01*
X0151041Y0322614D01*
X0151408Y0322614D01*
X0151775Y0322247D01*
X0151775Y0321513D01*
X0151408Y0321146D01*
X0150674Y0321146D01*
X0149940Y0321880D01*
X0149573Y0322614D01*
X0150307Y0323356D02*
X0149573Y0324090D01*
X0151775Y0324090D01*
X0151775Y0323356D02*
X0151775Y0324824D01*
X0151775Y0325566D02*
X0151775Y0327034D01*
X0151775Y0326300D02*
X0149573Y0326300D01*
X0150307Y0325566D01*
X0127466Y0296975D02*
X0127466Y0295507D01*
X0127466Y0296241D02*
X0125264Y0296241D01*
X0125998Y0295507D01*
X0125631Y0294765D02*
X0127099Y0293297D01*
X0127466Y0293664D01*
X0127466Y0294398D01*
X0127099Y0294765D01*
X0125631Y0294765D01*
X0125264Y0294398D01*
X0125264Y0293664D01*
X0125631Y0293297D01*
X0127099Y0293297D01*
X0127099Y0292555D02*
X0126732Y0292555D01*
X0126365Y0292188D01*
X0126365Y0291087D01*
X0127099Y0291087D01*
X0127466Y0291454D01*
X0127466Y0292188D01*
X0127099Y0292555D01*
X0125631Y0291821D02*
X0126365Y0291087D01*
X0125631Y0291821D02*
X0125264Y0292555D01*
X0125631Y0290345D02*
X0127099Y0288877D01*
X0127466Y0289244D01*
X0127466Y0289978D01*
X0127099Y0290345D01*
X0125631Y0290345D01*
X0125264Y0289978D01*
X0125264Y0289244D01*
X0125631Y0288877D01*
X0127099Y0288877D01*
X0127099Y0288135D02*
X0125264Y0288135D01*
X0125264Y0286667D02*
X0127099Y0286667D01*
X0127466Y0287034D01*
X0127466Y0287768D01*
X0127099Y0288135D01*
X0112400Y0289593D02*
X0112400Y0290327D01*
X0112033Y0290694D01*
X0112400Y0291436D02*
X0112400Y0292904D01*
X0112400Y0292170D02*
X0110198Y0292170D01*
X0110932Y0291436D01*
X0110565Y0290694D02*
X0110198Y0290327D01*
X0110198Y0289593D01*
X0110565Y0289226D01*
X0112033Y0289226D01*
X0112400Y0289593D01*
X0112400Y0293646D02*
X0110932Y0295114D01*
X0110565Y0295114D01*
X0110198Y0294747D01*
X0110198Y0294013D01*
X0110565Y0293646D01*
X0112400Y0293646D02*
X0112400Y0295114D01*
X0112400Y0295856D02*
X0112400Y0297324D01*
X0112400Y0296590D02*
X0110198Y0296590D01*
X0110932Y0295856D01*
X0110932Y0298066D02*
X0110198Y0298800D01*
X0112400Y0298800D01*
X0112400Y0298066D02*
X0112400Y0299534D01*
X0112033Y0301726D02*
X0112400Y0302093D01*
X0112400Y0302827D01*
X0112033Y0303194D01*
X0112400Y0303936D02*
X0112400Y0305404D01*
X0112400Y0304670D02*
X0110198Y0304670D01*
X0110932Y0303936D01*
X0110565Y0303194D02*
X0110198Y0302827D01*
X0110198Y0302093D01*
X0110565Y0301726D01*
X0112033Y0301726D01*
X0112400Y0306146D02*
X0110932Y0307614D01*
X0110565Y0307614D01*
X0110198Y0307247D01*
X0110198Y0306513D01*
X0110565Y0306146D01*
X0112400Y0306146D02*
X0112400Y0307614D01*
X0112033Y0308356D02*
X0110565Y0309824D01*
X0112033Y0309824D01*
X0112400Y0309457D01*
X0112400Y0308723D01*
X0112033Y0308356D01*
X0110565Y0308356D01*
X0110198Y0308723D01*
X0110198Y0309457D01*
X0110565Y0309824D01*
X0110198Y0310566D02*
X0111299Y0310566D01*
X0110932Y0311300D01*
X0110932Y0311667D01*
X0111299Y0312034D01*
X0112033Y0312034D01*
X0112400Y0311667D01*
X0112400Y0310933D01*
X0112033Y0310566D01*
X0110198Y0310566D02*
X0110198Y0312034D01*
X0086958Y0317483D02*
X0085490Y0317483D01*
X0086224Y0317483D02*
X0086224Y0319685D01*
X0085490Y0318951D01*
X0084748Y0319318D02*
X0083280Y0317850D01*
X0083647Y0317483D01*
X0084381Y0317483D01*
X0084748Y0317850D01*
X0084748Y0319318D01*
X0084381Y0319685D01*
X0083647Y0319685D01*
X0083280Y0319318D01*
X0083280Y0317850D01*
X0082538Y0317483D02*
X0081070Y0317483D01*
X0082538Y0318951D01*
X0082538Y0319318D01*
X0082171Y0319685D01*
X0081437Y0319685D01*
X0081070Y0319318D01*
X0079594Y0319685D02*
X0079594Y0317483D01*
X0078860Y0317483D02*
X0080328Y0317483D01*
X0078860Y0318951D02*
X0079594Y0319685D01*
X0078119Y0319685D02*
X0078119Y0317850D01*
X0077752Y0317483D01*
X0077018Y0317483D01*
X0076651Y0317850D01*
X0076651Y0319685D01*
X0075725Y0260178D02*
X0075725Y0257976D01*
X0077193Y0257976D01*
X0077935Y0257976D02*
X0079403Y0257976D01*
X0078669Y0257976D02*
X0078669Y0260178D01*
X0077935Y0259444D01*
X0080145Y0259811D02*
X0080512Y0260178D01*
X0081246Y0260178D01*
X0081613Y0259811D01*
X0081613Y0259444D01*
X0080145Y0257976D01*
X0081613Y0257976D01*
X0082355Y0257976D02*
X0083823Y0257976D01*
X0083089Y0257976D02*
X0083089Y0260178D01*
X0082355Y0259444D01*
X0084565Y0259444D02*
X0085298Y0260178D01*
X0085298Y0257976D01*
X0084565Y0257976D02*
X0086032Y0257976D01*
X0092751Y0245162D02*
X0094953Y0245162D01*
X0094953Y0244428D02*
X0094953Y0245896D01*
X0093485Y0244428D02*
X0092751Y0245162D01*
X0093118Y0243686D02*
X0094586Y0242218D01*
X0094953Y0242585D01*
X0094953Y0243319D01*
X0094586Y0243686D01*
X0093118Y0243686D01*
X0092751Y0243319D01*
X0092751Y0242585D01*
X0093118Y0242218D01*
X0094586Y0242218D01*
X0094586Y0241476D02*
X0094953Y0241109D01*
X0094953Y0240375D01*
X0094586Y0240008D01*
X0094953Y0239266D02*
X0094953Y0237798D01*
X0094953Y0238532D02*
X0092751Y0238532D01*
X0093485Y0237798D01*
X0092751Y0237056D02*
X0094586Y0237056D01*
X0094953Y0236689D01*
X0094953Y0235955D01*
X0094586Y0235588D01*
X0092751Y0235588D01*
X0093118Y0240008D02*
X0092751Y0240375D01*
X0092751Y0241109D01*
X0093118Y0241476D01*
X0093485Y0241476D01*
X0093852Y0241109D01*
X0094219Y0241476D01*
X0094586Y0241476D01*
X0093852Y0241109D02*
X0093852Y0240742D01*
X0106975Y0241428D02*
X0106975Y0239226D01*
X0108443Y0239226D01*
X0109185Y0239226D02*
X0110653Y0239226D01*
X0109919Y0239226D02*
X0109919Y0241428D01*
X0109185Y0240694D01*
X0111395Y0241061D02*
X0111762Y0241428D01*
X0112496Y0241428D01*
X0112863Y0241061D01*
X0112863Y0240694D01*
X0112496Y0240327D01*
X0112863Y0239960D01*
X0112863Y0239593D01*
X0112496Y0239226D01*
X0111762Y0239226D01*
X0111395Y0239593D01*
X0112129Y0240327D02*
X0112496Y0240327D01*
X0113605Y0240694D02*
X0114339Y0241428D01*
X0114339Y0239226D01*
X0113605Y0239226D02*
X0115073Y0239226D01*
X0115815Y0239226D02*
X0117282Y0239226D01*
X0116548Y0239226D02*
X0116548Y0241428D01*
X0115815Y0240694D01*
X0130823Y0236300D02*
X0133025Y0236300D01*
X0133025Y0235566D02*
X0133025Y0237034D01*
X0131557Y0235566D02*
X0130823Y0236300D01*
X0130823Y0234090D02*
X0133025Y0234090D01*
X0133025Y0233356D02*
X0133025Y0234824D01*
X0131557Y0233356D02*
X0130823Y0234090D01*
X0131190Y0232614D02*
X0131557Y0232614D01*
X0131924Y0232247D01*
X0132291Y0232614D01*
X0132658Y0232614D01*
X0133025Y0232247D01*
X0133025Y0231513D01*
X0132658Y0231146D01*
X0133025Y0230404D02*
X0133025Y0228936D01*
X0133025Y0229670D02*
X0130823Y0229670D01*
X0131557Y0228936D01*
X0131190Y0228194D02*
X0130823Y0227827D01*
X0130823Y0227093D01*
X0131190Y0226726D01*
X0132658Y0226726D01*
X0133025Y0227093D01*
X0133025Y0227827D01*
X0132658Y0228194D01*
X0131190Y0231146D02*
X0130823Y0231513D01*
X0130823Y0232247D01*
X0131190Y0232614D01*
X0131924Y0232247D02*
X0131924Y0231880D01*
X0134940Y0244226D02*
X0136408Y0244226D01*
X0136775Y0244593D01*
X0136775Y0245327D01*
X0136408Y0245694D01*
X0136408Y0246436D02*
X0134940Y0247904D01*
X0136408Y0247904D01*
X0136775Y0247537D01*
X0136775Y0246803D01*
X0136408Y0246436D01*
X0134940Y0246436D01*
X0134573Y0246803D01*
X0134573Y0247537D01*
X0134940Y0247904D01*
X0135674Y0248646D02*
X0135674Y0249747D01*
X0136041Y0250114D01*
X0136408Y0250114D01*
X0136775Y0249747D01*
X0136775Y0249013D01*
X0136408Y0248646D01*
X0135674Y0248646D01*
X0134940Y0249380D01*
X0134573Y0250114D01*
X0134940Y0250856D02*
X0134573Y0251223D01*
X0134573Y0251957D01*
X0134940Y0252324D01*
X0136408Y0250856D01*
X0136775Y0251223D01*
X0136775Y0251957D01*
X0136408Y0252324D01*
X0134940Y0252324D01*
X0135307Y0253066D02*
X0134573Y0253800D01*
X0136775Y0253800D01*
X0136775Y0253066D02*
X0136775Y0254534D01*
X0136408Y0250856D02*
X0134940Y0250856D01*
X0134940Y0245694D02*
X0134573Y0245327D01*
X0134573Y0244593D01*
X0134940Y0244226D01*
X0144573Y0244593D02*
X0144940Y0244226D01*
X0146408Y0244226D01*
X0146775Y0244593D01*
X0146775Y0245327D01*
X0146408Y0245694D01*
X0146408Y0246436D02*
X0144940Y0247904D01*
X0146408Y0247904D01*
X0146775Y0247537D01*
X0146775Y0246803D01*
X0146408Y0246436D01*
X0144940Y0246436D01*
X0144573Y0246803D01*
X0144573Y0247537D01*
X0144940Y0247904D01*
X0145674Y0248646D02*
X0145674Y0249747D01*
X0146041Y0250114D01*
X0146408Y0250114D01*
X0146775Y0249747D01*
X0146775Y0249013D01*
X0146408Y0248646D01*
X0145674Y0248646D01*
X0144940Y0249380D01*
X0144573Y0250114D01*
X0144940Y0250856D02*
X0144573Y0251223D01*
X0144573Y0251957D01*
X0144940Y0252324D01*
X0146408Y0250856D01*
X0146775Y0251223D01*
X0146775Y0251957D01*
X0146408Y0252324D01*
X0144940Y0252324D01*
X0144940Y0253066D02*
X0144573Y0253433D01*
X0144573Y0254167D01*
X0144940Y0254534D01*
X0145307Y0254534D01*
X0146775Y0253066D01*
X0146775Y0254534D01*
X0146408Y0250856D02*
X0144940Y0250856D01*
X0152073Y0251223D02*
X0152073Y0251957D01*
X0152440Y0252324D01*
X0153908Y0250856D01*
X0154275Y0251223D01*
X0154275Y0251957D01*
X0153908Y0252324D01*
X0152440Y0252324D01*
X0152440Y0253066D02*
X0152073Y0253433D01*
X0152073Y0254167D01*
X0152440Y0254534D01*
X0152807Y0254534D01*
X0153174Y0254167D01*
X0153541Y0254534D01*
X0153908Y0254534D01*
X0154275Y0254167D01*
X0154275Y0253433D01*
X0153908Y0253066D01*
X0153174Y0253800D02*
X0153174Y0254167D01*
X0152073Y0251223D02*
X0152440Y0250856D01*
X0153908Y0250856D01*
X0153908Y0250114D02*
X0153541Y0250114D01*
X0153174Y0249747D01*
X0153174Y0248646D01*
X0153908Y0248646D01*
X0154275Y0249013D01*
X0154275Y0249747D01*
X0153908Y0250114D01*
X0152440Y0249380D02*
X0153174Y0248646D01*
X0152440Y0249380D02*
X0152073Y0250114D01*
X0152440Y0247904D02*
X0153908Y0246436D01*
X0154275Y0246803D01*
X0154275Y0247537D01*
X0153908Y0247904D01*
X0152440Y0247904D01*
X0152073Y0247537D01*
X0152073Y0246803D01*
X0152440Y0246436D01*
X0153908Y0246436D01*
X0153908Y0245694D02*
X0154275Y0245327D01*
X0154275Y0244593D01*
X0153908Y0244226D01*
X0152440Y0244226D01*
X0152073Y0244593D01*
X0152073Y0245327D01*
X0152440Y0245694D01*
X0144940Y0245694D02*
X0144573Y0245327D01*
X0144573Y0244593D01*
X0199573Y0244593D02*
X0199940Y0244226D01*
X0201408Y0244226D01*
X0201775Y0244593D01*
X0201775Y0245327D01*
X0201408Y0245694D01*
X0201408Y0246436D02*
X0199940Y0247904D01*
X0201408Y0247904D01*
X0201775Y0247537D01*
X0201775Y0246803D01*
X0201408Y0246436D01*
X0199940Y0246436D01*
X0199573Y0246803D01*
X0199573Y0247537D01*
X0199940Y0247904D01*
X0199573Y0248646D02*
X0199573Y0250114D01*
X0199940Y0250114D01*
X0201408Y0248646D01*
X0201775Y0248646D01*
X0201408Y0250856D02*
X0199940Y0252324D01*
X0201408Y0252324D01*
X0201775Y0251957D01*
X0201775Y0251223D01*
X0201408Y0250856D01*
X0199940Y0250856D01*
X0199573Y0251223D01*
X0199573Y0251957D01*
X0199940Y0252324D01*
X0200307Y0253066D02*
X0199573Y0253800D01*
X0201775Y0253800D01*
X0201775Y0253066D02*
X0201775Y0254534D01*
X0209573Y0254167D02*
X0209573Y0253433D01*
X0209940Y0253066D01*
X0209940Y0252324D02*
X0211408Y0250856D01*
X0211775Y0251223D01*
X0211775Y0251957D01*
X0211408Y0252324D01*
X0209940Y0252324D01*
X0209573Y0251957D01*
X0209573Y0251223D01*
X0209940Y0250856D01*
X0211408Y0250856D01*
X0209940Y0250114D02*
X0211408Y0248646D01*
X0211775Y0248646D01*
X0211408Y0247904D02*
X0211775Y0247537D01*
X0211775Y0246803D01*
X0211408Y0246436D01*
X0209940Y0247904D01*
X0211408Y0247904D01*
X0211408Y0246436D02*
X0209940Y0246436D01*
X0209573Y0246803D01*
X0209573Y0247537D01*
X0209940Y0247904D01*
X0209573Y0248646D02*
X0209573Y0250114D01*
X0209940Y0250114D01*
X0211775Y0253066D02*
X0210307Y0254534D01*
X0209940Y0254534D01*
X0209573Y0254167D01*
X0211775Y0254534D02*
X0211775Y0253066D01*
X0217073Y0253433D02*
X0217073Y0254167D01*
X0217440Y0254534D01*
X0217807Y0254534D01*
X0218174Y0254167D01*
X0218541Y0254534D01*
X0218908Y0254534D01*
X0219275Y0254167D01*
X0219275Y0253433D01*
X0218908Y0253066D01*
X0218908Y0252324D02*
X0219275Y0251957D01*
X0219275Y0251223D01*
X0218908Y0250856D01*
X0217440Y0252324D01*
X0218908Y0252324D01*
X0217440Y0252324D02*
X0217073Y0251957D01*
X0217073Y0251223D01*
X0217440Y0250856D01*
X0218908Y0250856D01*
X0217440Y0250114D02*
X0218908Y0248646D01*
X0219275Y0248646D01*
X0218908Y0247904D02*
X0219275Y0247537D01*
X0219275Y0246803D01*
X0218908Y0246436D01*
X0217440Y0247904D01*
X0218908Y0247904D01*
X0218908Y0246436D02*
X0217440Y0246436D01*
X0217073Y0246803D01*
X0217073Y0247537D01*
X0217440Y0247904D01*
X0217073Y0248646D02*
X0217073Y0250114D01*
X0217440Y0250114D01*
X0217440Y0253066D02*
X0217073Y0253433D01*
X0218174Y0253800D02*
X0218174Y0254167D01*
X0217440Y0245694D02*
X0217073Y0245327D01*
X0217073Y0244593D01*
X0217440Y0244226D01*
X0218908Y0244226D01*
X0219275Y0244593D01*
X0219275Y0245327D01*
X0218908Y0245694D01*
X0211775Y0245327D02*
X0211408Y0245694D01*
X0211775Y0245327D02*
X0211775Y0244593D01*
X0211408Y0244226D01*
X0209940Y0244226D01*
X0209573Y0244593D01*
X0209573Y0245327D01*
X0209940Y0245694D01*
X0199940Y0245694D02*
X0199573Y0245327D01*
X0199573Y0244593D01*
X0086775Y0184534D02*
X0086775Y0183066D01*
X0086775Y0183800D02*
X0084573Y0183800D01*
X0085307Y0183066D01*
X0084573Y0182324D02*
X0084940Y0181590D01*
X0085674Y0180856D01*
X0085674Y0181957D01*
X0086041Y0182324D01*
X0086408Y0182324D01*
X0086775Y0181957D01*
X0086775Y0181223D01*
X0086408Y0180856D01*
X0085674Y0180856D01*
X0085674Y0180114D02*
X0085674Y0179013D01*
X0085307Y0178646D01*
X0084940Y0178646D01*
X0084573Y0179013D01*
X0084573Y0179747D01*
X0084940Y0180114D01*
X0086408Y0180114D01*
X0086775Y0179747D01*
X0086775Y0179013D01*
X0086408Y0178646D01*
X0086408Y0177904D02*
X0086775Y0177537D01*
X0086775Y0176803D01*
X0086408Y0176436D01*
X0084940Y0177904D01*
X0086408Y0177904D01*
X0086408Y0176436D02*
X0084940Y0176436D01*
X0084573Y0176803D01*
X0084573Y0177537D01*
X0084940Y0177904D01*
X0084940Y0175694D02*
X0085674Y0175694D01*
X0086041Y0175327D01*
X0086041Y0174226D01*
X0086775Y0174226D02*
X0084573Y0174226D01*
X0084573Y0175327D01*
X0084940Y0175694D01*
X0086041Y0174960D02*
X0086775Y0175694D01*
X0081775Y0175327D02*
X0081408Y0175694D01*
X0079940Y0175694D01*
X0079573Y0175327D01*
X0079573Y0174226D01*
X0081775Y0174226D01*
X0081775Y0175327D01*
X0081408Y0176436D02*
X0079940Y0177904D01*
X0081408Y0177904D01*
X0081775Y0177537D01*
X0081775Y0176803D01*
X0081408Y0176436D01*
X0079940Y0176436D01*
X0079573Y0176803D01*
X0079573Y0177537D01*
X0079940Y0177904D01*
X0079940Y0178646D02*
X0080307Y0178646D01*
X0080674Y0179013D01*
X0080674Y0180114D01*
X0079940Y0180114D02*
X0079573Y0179747D01*
X0079573Y0179013D01*
X0079940Y0178646D01*
X0081408Y0178646D02*
X0081775Y0179013D01*
X0081775Y0179747D01*
X0081408Y0180114D01*
X0079940Y0180114D01*
X0080674Y0180856D02*
X0080674Y0181957D01*
X0081041Y0182324D01*
X0081408Y0182324D01*
X0081775Y0181957D01*
X0081775Y0181223D01*
X0081408Y0180856D01*
X0080674Y0180856D01*
X0079940Y0181590D01*
X0079573Y0182324D01*
X0080307Y0183066D02*
X0079573Y0183800D01*
X0081775Y0183800D01*
X0081775Y0183066D02*
X0081775Y0184534D01*
X0076775Y0184534D02*
X0076775Y0183066D01*
X0076775Y0183800D02*
X0074573Y0183800D01*
X0075307Y0183066D01*
X0075674Y0182324D02*
X0076408Y0182324D01*
X0076775Y0181957D01*
X0076775Y0181223D01*
X0076408Y0180856D01*
X0075674Y0180856D02*
X0075307Y0181590D01*
X0075307Y0181957D01*
X0075674Y0182324D01*
X0074573Y0182324D02*
X0074573Y0180856D01*
X0075674Y0180856D01*
X0075674Y0180114D02*
X0075674Y0179013D01*
X0075307Y0178646D01*
X0074940Y0178646D01*
X0074573Y0179013D01*
X0074573Y0179747D01*
X0074940Y0180114D01*
X0076408Y0180114D01*
X0076775Y0179747D01*
X0076775Y0179013D01*
X0076408Y0178646D01*
X0076408Y0177904D02*
X0076775Y0177537D01*
X0076775Y0176803D01*
X0076408Y0176436D01*
X0074940Y0177904D01*
X0076408Y0177904D01*
X0076408Y0176436D02*
X0074940Y0176436D01*
X0074573Y0176803D01*
X0074573Y0177537D01*
X0074940Y0177904D01*
X0074940Y0175694D02*
X0074573Y0175327D01*
X0074573Y0174226D01*
X0076775Y0174226D01*
X0076775Y0175327D01*
X0076408Y0175694D01*
X0074940Y0175694D01*
X0048782Y0186226D02*
X0047315Y0186226D01*
X0048048Y0186226D02*
X0048048Y0188428D01*
X0047315Y0187694D01*
X0046573Y0188061D02*
X0045105Y0186593D01*
X0045472Y0186226D01*
X0046206Y0186226D01*
X0046573Y0186593D01*
X0046573Y0188061D01*
X0046206Y0188428D01*
X0045472Y0188428D01*
X0045105Y0188061D01*
X0045105Y0186593D01*
X0044363Y0186593D02*
X0044363Y0188061D01*
X0043996Y0188428D01*
X0043262Y0188428D01*
X0042895Y0188061D01*
X0042895Y0187694D01*
X0043262Y0187327D01*
X0044363Y0187327D01*
X0044363Y0186593D02*
X0043996Y0186226D01*
X0043262Y0186226D01*
X0042895Y0186593D01*
X0042153Y0186593D02*
X0041786Y0186226D01*
X0041052Y0186226D01*
X0040685Y0186593D01*
X0042153Y0188061D01*
X0042153Y0186593D01*
X0040685Y0186593D02*
X0040685Y0188061D01*
X0041052Y0188428D01*
X0041786Y0188428D01*
X0042153Y0188061D01*
X0039943Y0188061D02*
X0039576Y0188428D01*
X0038475Y0188428D01*
X0038475Y0186226D01*
X0039576Y0186226D01*
X0039943Y0186593D01*
X0039943Y0188061D01*
X0039693Y0191726D02*
X0038959Y0192460D01*
X0039326Y0192460D02*
X0038225Y0192460D01*
X0038225Y0191726D02*
X0038225Y0193928D01*
X0039326Y0193928D01*
X0039693Y0193561D01*
X0039693Y0192827D01*
X0039326Y0192460D01*
X0040435Y0192093D02*
X0040802Y0191726D01*
X0041536Y0191726D01*
X0041903Y0192093D01*
X0041903Y0193561D01*
X0040435Y0192093D01*
X0040435Y0193561D01*
X0040802Y0193928D01*
X0041536Y0193928D01*
X0041903Y0193561D01*
X0042645Y0193561D02*
X0042645Y0193194D01*
X0043012Y0192827D01*
X0044113Y0192827D01*
X0044113Y0192093D02*
X0044113Y0193561D01*
X0043746Y0193928D01*
X0043012Y0193928D01*
X0042645Y0193561D01*
X0042645Y0192093D02*
X0043012Y0191726D01*
X0043746Y0191726D01*
X0044113Y0192093D01*
X0044855Y0192093D02*
X0045222Y0191726D01*
X0045956Y0191726D01*
X0046323Y0192093D01*
X0046323Y0193561D01*
X0044855Y0192093D01*
X0044855Y0193561D01*
X0045222Y0193928D01*
X0045956Y0193928D01*
X0046323Y0193561D01*
X0047065Y0193561D02*
X0047431Y0193928D01*
X0048165Y0193928D01*
X0048532Y0193561D01*
X0048532Y0193194D01*
X0048165Y0192827D01*
X0048532Y0192460D01*
X0048532Y0192093D01*
X0048165Y0191726D01*
X0047431Y0191726D01*
X0047065Y0192093D01*
X0047798Y0192827D02*
X0048165Y0192827D01*
X0048165Y0205476D02*
X0047431Y0205476D01*
X0047065Y0205843D01*
X0046323Y0205476D02*
X0044855Y0205476D01*
X0045589Y0205476D02*
X0045589Y0207678D01*
X0044855Y0206944D01*
X0044113Y0206577D02*
X0043012Y0206577D01*
X0042645Y0206944D01*
X0042645Y0207311D01*
X0043012Y0207678D01*
X0043746Y0207678D01*
X0044113Y0207311D01*
X0044113Y0205843D01*
X0043746Y0205476D01*
X0043012Y0205476D01*
X0042645Y0205843D01*
X0041903Y0205843D02*
X0041536Y0205476D01*
X0040802Y0205476D01*
X0040435Y0205843D01*
X0041903Y0207311D01*
X0041903Y0205843D01*
X0040435Y0205843D02*
X0040435Y0207311D01*
X0040802Y0207678D01*
X0041536Y0207678D01*
X0041903Y0207311D01*
X0039693Y0207311D02*
X0039693Y0206577D01*
X0039326Y0206210D01*
X0038225Y0206210D01*
X0038225Y0205476D02*
X0038225Y0207678D01*
X0039326Y0207678D01*
X0039693Y0207311D01*
X0038959Y0206210D02*
X0039693Y0205476D01*
X0039576Y0209976D02*
X0038475Y0209976D01*
X0038475Y0212178D01*
X0039576Y0212178D01*
X0039943Y0211811D01*
X0039943Y0210343D01*
X0039576Y0209976D01*
X0040685Y0210343D02*
X0042153Y0211811D01*
X0042153Y0210343D01*
X0041786Y0209976D01*
X0041052Y0209976D01*
X0040685Y0210343D01*
X0040685Y0211811D01*
X0041052Y0212178D01*
X0041786Y0212178D01*
X0042153Y0211811D01*
X0042895Y0211811D02*
X0042895Y0211444D01*
X0043262Y0211077D01*
X0044363Y0211077D01*
X0044363Y0210343D02*
X0044363Y0211811D01*
X0043996Y0212178D01*
X0043262Y0212178D01*
X0042895Y0211811D01*
X0042895Y0210343D02*
X0043262Y0209976D01*
X0043996Y0209976D01*
X0044363Y0210343D01*
X0045105Y0209976D02*
X0046573Y0209976D01*
X0045839Y0209976D02*
X0045839Y0212178D01*
X0045105Y0211444D01*
X0047315Y0211444D02*
X0048048Y0212178D01*
X0048048Y0209976D01*
X0047315Y0209976D02*
X0048782Y0209976D01*
X0048165Y0207678D02*
X0048532Y0207311D01*
X0048532Y0206944D01*
X0048165Y0206577D01*
X0048532Y0206210D01*
X0048532Y0205843D01*
X0048165Y0205476D01*
X0048165Y0206577D02*
X0047798Y0206577D01*
X0047065Y0207311D02*
X0047431Y0207678D01*
X0048165Y0207678D01*
D18*
X0259375Y0171626D03*
D19*
G36*
X0252290Y0189678D02*
X0251177Y0190791D01*
X0253960Y0193574D01*
X0255073Y0192461D01*
X0252290Y0189678D01*
G37*
D20*
X0268814Y0114107D02*
X0292436Y0114107D01*
X0292436Y0108595D01*
X0292436Y0104658D02*
X0292436Y0099146D01*
X0268814Y0099146D01*
X0268814Y0104658D01*
X0268814Y0108595D02*
X0268814Y0114107D01*
X0276885Y0106626D02*
X0276887Y0106748D01*
X0276893Y0106869D01*
X0276903Y0106991D01*
X0276917Y0107112D01*
X0276934Y0107232D01*
X0276956Y0107352D01*
X0276982Y0107471D01*
X0277011Y0107589D01*
X0277044Y0107706D01*
X0277081Y0107822D01*
X0277122Y0107937D01*
X0277167Y0108050D01*
X0277215Y0108162D01*
X0277267Y0108272D01*
X0277322Y0108381D01*
X0277381Y0108487D01*
X0277443Y0108592D01*
X0277509Y0108694D01*
X0277578Y0108795D01*
X0277650Y0108893D01*
X0277726Y0108988D01*
X0277804Y0109081D01*
X0277885Y0109172D01*
X0277970Y0109260D01*
X0278057Y0109345D01*
X0278147Y0109427D01*
X0278239Y0109506D01*
X0278334Y0109582D01*
X0278432Y0109655D01*
X0278531Y0109725D01*
X0278633Y0109792D01*
X0278737Y0109855D01*
X0278844Y0109914D01*
X0278952Y0109971D01*
X0279061Y0110023D01*
X0279173Y0110073D01*
X0279286Y0110118D01*
X0279400Y0110160D01*
X0279516Y0110198D01*
X0279633Y0110232D01*
X0279750Y0110262D01*
X0279869Y0110289D01*
X0279989Y0110312D01*
X0280109Y0110330D01*
X0280230Y0110345D01*
X0280351Y0110356D01*
X0280473Y0110363D01*
X0280595Y0110366D01*
X0280716Y0110365D01*
X0280838Y0110360D01*
X0280959Y0110351D01*
X0281080Y0110338D01*
X0281201Y0110321D01*
X0281321Y0110301D01*
X0281440Y0110276D01*
X0281559Y0110248D01*
X0281676Y0110215D01*
X0281792Y0110179D01*
X0281907Y0110139D01*
X0282021Y0110096D01*
X0282133Y0110048D01*
X0282244Y0109998D01*
X0282353Y0109943D01*
X0282460Y0109885D01*
X0282565Y0109824D01*
X0282668Y0109759D01*
X0282769Y0109691D01*
X0282867Y0109619D01*
X0282964Y0109545D01*
X0283057Y0109467D01*
X0283149Y0109386D01*
X0283237Y0109303D01*
X0283323Y0109216D01*
X0283406Y0109127D01*
X0283486Y0109035D01*
X0283563Y0108941D01*
X0283636Y0108844D01*
X0283707Y0108745D01*
X0283774Y0108643D01*
X0283838Y0108540D01*
X0283899Y0108434D01*
X0283956Y0108327D01*
X0284010Y0108217D01*
X0284060Y0108106D01*
X0284106Y0107994D01*
X0284149Y0107880D01*
X0284188Y0107764D01*
X0284223Y0107648D01*
X0284254Y0107530D01*
X0284282Y0107412D01*
X0284305Y0107292D01*
X0284325Y0107172D01*
X0284341Y0107051D01*
X0284353Y0106930D01*
X0284361Y0106809D01*
X0284365Y0106687D01*
X0284365Y0106565D01*
X0284361Y0106443D01*
X0284353Y0106322D01*
X0284341Y0106201D01*
X0284325Y0106080D01*
X0284305Y0105960D01*
X0284282Y0105840D01*
X0284254Y0105722D01*
X0284223Y0105604D01*
X0284188Y0105488D01*
X0284149Y0105372D01*
X0284106Y0105258D01*
X0284060Y0105146D01*
X0284010Y0105035D01*
X0283956Y0104925D01*
X0283899Y0104818D01*
X0283838Y0104712D01*
X0283774Y0104609D01*
X0283707Y0104507D01*
X0283636Y0104408D01*
X0283563Y0104311D01*
X0283486Y0104217D01*
X0283406Y0104125D01*
X0283323Y0104036D01*
X0283237Y0103949D01*
X0283149Y0103866D01*
X0283057Y0103785D01*
X0282964Y0103707D01*
X0282867Y0103633D01*
X0282769Y0103561D01*
X0282668Y0103493D01*
X0282565Y0103428D01*
X0282460Y0103367D01*
X0282353Y0103309D01*
X0282244Y0103254D01*
X0282133Y0103204D01*
X0282021Y0103156D01*
X0281907Y0103113D01*
X0281792Y0103073D01*
X0281676Y0103037D01*
X0281559Y0103004D01*
X0281440Y0102976D01*
X0281321Y0102951D01*
X0281201Y0102931D01*
X0281080Y0102914D01*
X0280959Y0102901D01*
X0280838Y0102892D01*
X0280716Y0102887D01*
X0280595Y0102886D01*
X0280473Y0102889D01*
X0280351Y0102896D01*
X0280230Y0102907D01*
X0280109Y0102922D01*
X0279989Y0102940D01*
X0279869Y0102963D01*
X0279750Y0102990D01*
X0279633Y0103020D01*
X0279516Y0103054D01*
X0279400Y0103092D01*
X0279286Y0103134D01*
X0279173Y0103179D01*
X0279061Y0103229D01*
X0278952Y0103281D01*
X0278844Y0103338D01*
X0278737Y0103397D01*
X0278633Y0103460D01*
X0278531Y0103527D01*
X0278432Y0103597D01*
X0278334Y0103670D01*
X0278239Y0103746D01*
X0278147Y0103825D01*
X0278057Y0103907D01*
X0277970Y0103992D01*
X0277885Y0104080D01*
X0277804Y0104171D01*
X0277726Y0104264D01*
X0277650Y0104359D01*
X0277578Y0104457D01*
X0277509Y0104558D01*
X0277443Y0104660D01*
X0277381Y0104765D01*
X0277322Y0104871D01*
X0277267Y0104980D01*
X0277215Y0105090D01*
X0277167Y0105202D01*
X0277122Y0105315D01*
X0277081Y0105430D01*
X0277044Y0105546D01*
X0277011Y0105663D01*
X0276982Y0105781D01*
X0276956Y0105900D01*
X0276934Y0106020D01*
X0276917Y0106140D01*
X0276903Y0106261D01*
X0276893Y0106383D01*
X0276887Y0106504D01*
X0276885Y0106626D01*
X0277869Y0106626D02*
X0277871Y0106731D01*
X0277877Y0106836D01*
X0277887Y0106940D01*
X0277901Y0107044D01*
X0277919Y0107148D01*
X0277941Y0107250D01*
X0277966Y0107352D01*
X0277996Y0107453D01*
X0278029Y0107552D01*
X0278066Y0107650D01*
X0278107Y0107747D01*
X0278152Y0107842D01*
X0278200Y0107935D01*
X0278251Y0108027D01*
X0278307Y0108116D01*
X0278365Y0108203D01*
X0278427Y0108288D01*
X0278491Y0108371D01*
X0278559Y0108451D01*
X0278630Y0108528D01*
X0278704Y0108602D01*
X0278781Y0108674D01*
X0278860Y0108743D01*
X0278942Y0108808D01*
X0279026Y0108871D01*
X0279113Y0108930D01*
X0279202Y0108986D01*
X0279293Y0109039D01*
X0279386Y0109088D01*
X0279480Y0109133D01*
X0279576Y0109175D01*
X0279674Y0109213D01*
X0279773Y0109247D01*
X0279874Y0109278D01*
X0279975Y0109304D01*
X0280078Y0109327D01*
X0280181Y0109346D01*
X0280285Y0109361D01*
X0280389Y0109372D01*
X0280494Y0109379D01*
X0280599Y0109382D01*
X0280704Y0109381D01*
X0280809Y0109376D01*
X0280913Y0109367D01*
X0281017Y0109354D01*
X0281121Y0109337D01*
X0281224Y0109316D01*
X0281326Y0109291D01*
X0281427Y0109263D01*
X0281526Y0109230D01*
X0281625Y0109194D01*
X0281722Y0109154D01*
X0281817Y0109111D01*
X0281911Y0109063D01*
X0282003Y0109013D01*
X0282093Y0108959D01*
X0282181Y0108901D01*
X0282266Y0108840D01*
X0282349Y0108776D01*
X0282430Y0108709D01*
X0282508Y0108639D01*
X0282583Y0108565D01*
X0282655Y0108490D01*
X0282725Y0108411D01*
X0282791Y0108330D01*
X0282855Y0108246D01*
X0282915Y0108160D01*
X0282971Y0108072D01*
X0283025Y0107981D01*
X0283075Y0107889D01*
X0283121Y0107795D01*
X0283164Y0107699D01*
X0283203Y0107601D01*
X0283238Y0107503D01*
X0283269Y0107402D01*
X0283297Y0107301D01*
X0283321Y0107199D01*
X0283341Y0107096D01*
X0283357Y0106992D01*
X0283369Y0106888D01*
X0283377Y0106783D01*
X0283381Y0106678D01*
X0283381Y0106574D01*
X0283377Y0106469D01*
X0283369Y0106364D01*
X0283357Y0106260D01*
X0283341Y0106156D01*
X0283321Y0106053D01*
X0283297Y0105951D01*
X0283269Y0105850D01*
X0283238Y0105749D01*
X0283203Y0105651D01*
X0283164Y0105553D01*
X0283121Y0105457D01*
X0283075Y0105363D01*
X0283025Y0105271D01*
X0282971Y0105180D01*
X0282915Y0105092D01*
X0282855Y0105006D01*
X0282791Y0104922D01*
X0282725Y0104841D01*
X0282655Y0104762D01*
X0282583Y0104687D01*
X0282508Y0104613D01*
X0282430Y0104543D01*
X0282349Y0104476D01*
X0282266Y0104412D01*
X0282181Y0104351D01*
X0282093Y0104293D01*
X0282003Y0104239D01*
X0281911Y0104189D01*
X0281817Y0104141D01*
X0281722Y0104098D01*
X0281625Y0104058D01*
X0281526Y0104022D01*
X0281427Y0103989D01*
X0281326Y0103961D01*
X0281224Y0103936D01*
X0281121Y0103915D01*
X0281017Y0103898D01*
X0280913Y0103885D01*
X0280809Y0103876D01*
X0280704Y0103871D01*
X0280599Y0103870D01*
X0280494Y0103873D01*
X0280389Y0103880D01*
X0280285Y0103891D01*
X0280181Y0103906D01*
X0280078Y0103925D01*
X0279975Y0103948D01*
X0279874Y0103974D01*
X0279773Y0104005D01*
X0279674Y0104039D01*
X0279576Y0104077D01*
X0279480Y0104119D01*
X0279386Y0104164D01*
X0279293Y0104213D01*
X0279202Y0104266D01*
X0279113Y0104322D01*
X0279026Y0104381D01*
X0278942Y0104444D01*
X0278860Y0104509D01*
X0278781Y0104578D01*
X0278704Y0104650D01*
X0278630Y0104724D01*
X0278559Y0104801D01*
X0278491Y0104881D01*
X0278427Y0104964D01*
X0278365Y0105049D01*
X0278307Y0105136D01*
X0278251Y0105225D01*
X0278200Y0105317D01*
X0278152Y0105410D01*
X0278107Y0105505D01*
X0278066Y0105602D01*
X0278029Y0105700D01*
X0277996Y0105799D01*
X0277966Y0105900D01*
X0277941Y0106002D01*
X0277919Y0106104D01*
X0277901Y0106208D01*
X0277887Y0106312D01*
X0277877Y0106416D01*
X0277871Y0106521D01*
X0277869Y0106626D01*
X0215425Y0112223D02*
X0215425Y0115292D01*
X0215425Y0113757D02*
X0210821Y0113757D01*
X0212356Y0112223D01*
X0170425Y0112223D02*
X0170425Y0115292D01*
X0170425Y0113757D02*
X0165821Y0113757D01*
X0167356Y0112223D01*
X0125425Y0112223D02*
X0125425Y0115292D01*
X0125425Y0113757D02*
X0120821Y0113757D01*
X0122356Y0112223D01*
X0054290Y0296826D02*
X0051221Y0296826D01*
X0052756Y0296826D02*
X0052756Y0301430D01*
X0051221Y0299896D01*
X0375825Y0289896D02*
X0377360Y0291430D01*
X0377360Y0286826D01*
X0378894Y0286826D02*
X0375825Y0286826D01*
X0377360Y0246430D02*
X0377360Y0241826D01*
X0378894Y0241826D02*
X0375825Y0241826D01*
X0375825Y0244896D02*
X0377360Y0246430D01*
X0377360Y0331826D02*
X0377360Y0336430D01*
X0375825Y0334896D01*
X0375825Y0331826D02*
X0378894Y0331826D01*
D21*
X0291452Y0106626D03*
X0269798Y0106626D03*
D22*
X0228326Y0101626D02*
X0228328Y0101784D01*
X0228334Y0101942D01*
X0228344Y0102100D01*
X0228358Y0102258D01*
X0228376Y0102415D01*
X0228397Y0102572D01*
X0228423Y0102728D01*
X0228453Y0102884D01*
X0228486Y0103039D01*
X0228524Y0103192D01*
X0228565Y0103345D01*
X0228610Y0103497D01*
X0228659Y0103648D01*
X0228712Y0103797D01*
X0228768Y0103945D01*
X0228828Y0104091D01*
X0228892Y0104236D01*
X0228960Y0104379D01*
X0229031Y0104521D01*
X0229105Y0104661D01*
X0229183Y0104798D01*
X0229265Y0104934D01*
X0229349Y0105068D01*
X0229438Y0105199D01*
X0229529Y0105328D01*
X0229624Y0105455D01*
X0229721Y0105580D01*
X0229822Y0105702D01*
X0229926Y0105821D01*
X0230033Y0105938D01*
X0230143Y0106052D01*
X0230256Y0106163D01*
X0230371Y0106272D01*
X0230489Y0106377D01*
X0230610Y0106479D01*
X0230733Y0106579D01*
X0230859Y0106675D01*
X0230987Y0106768D01*
X0231117Y0106858D01*
X0231250Y0106944D01*
X0231385Y0107028D01*
X0231521Y0107107D01*
X0231660Y0107184D01*
X0231801Y0107256D01*
X0231943Y0107326D01*
X0232087Y0107391D01*
X0232233Y0107453D01*
X0232380Y0107511D01*
X0232529Y0107566D01*
X0232679Y0107617D01*
X0232830Y0107664D01*
X0232982Y0107707D01*
X0233135Y0107746D01*
X0233290Y0107782D01*
X0233445Y0107813D01*
X0233601Y0107841D01*
X0233757Y0107865D01*
X0233914Y0107885D01*
X0234072Y0107901D01*
X0234229Y0107913D01*
X0234388Y0107921D01*
X0234546Y0107925D01*
X0234704Y0107925D01*
X0234862Y0107921D01*
X0235021Y0107913D01*
X0235178Y0107901D01*
X0235336Y0107885D01*
X0235493Y0107865D01*
X0235649Y0107841D01*
X0235805Y0107813D01*
X0235960Y0107782D01*
X0236115Y0107746D01*
X0236268Y0107707D01*
X0236420Y0107664D01*
X0236571Y0107617D01*
X0236721Y0107566D01*
X0236870Y0107511D01*
X0237017Y0107453D01*
X0237163Y0107391D01*
X0237307Y0107326D01*
X0237449Y0107256D01*
X0237590Y0107184D01*
X0237729Y0107107D01*
X0237865Y0107028D01*
X0238000Y0106944D01*
X0238133Y0106858D01*
X0238263Y0106768D01*
X0238391Y0106675D01*
X0238517Y0106579D01*
X0238640Y0106479D01*
X0238761Y0106377D01*
X0238879Y0106272D01*
X0238994Y0106163D01*
X0239107Y0106052D01*
X0239217Y0105938D01*
X0239324Y0105821D01*
X0239428Y0105702D01*
X0239529Y0105580D01*
X0239626Y0105455D01*
X0239721Y0105328D01*
X0239812Y0105199D01*
X0239901Y0105068D01*
X0239985Y0104934D01*
X0240067Y0104798D01*
X0240145Y0104661D01*
X0240219Y0104521D01*
X0240290Y0104379D01*
X0240358Y0104236D01*
X0240422Y0104091D01*
X0240482Y0103945D01*
X0240538Y0103797D01*
X0240591Y0103648D01*
X0240640Y0103497D01*
X0240685Y0103345D01*
X0240726Y0103192D01*
X0240764Y0103039D01*
X0240797Y0102884D01*
X0240827Y0102728D01*
X0240853Y0102572D01*
X0240874Y0102415D01*
X0240892Y0102258D01*
X0240906Y0102100D01*
X0240916Y0101942D01*
X0240922Y0101784D01*
X0240924Y0101626D01*
X0240922Y0101468D01*
X0240916Y0101310D01*
X0240906Y0101152D01*
X0240892Y0100994D01*
X0240874Y0100837D01*
X0240853Y0100680D01*
X0240827Y0100524D01*
X0240797Y0100368D01*
X0240764Y0100213D01*
X0240726Y0100060D01*
X0240685Y0099907D01*
X0240640Y0099755D01*
X0240591Y0099604D01*
X0240538Y0099455D01*
X0240482Y0099307D01*
X0240422Y0099161D01*
X0240358Y0099016D01*
X0240290Y0098873D01*
X0240219Y0098731D01*
X0240145Y0098591D01*
X0240067Y0098454D01*
X0239985Y0098318D01*
X0239901Y0098184D01*
X0239812Y0098053D01*
X0239721Y0097924D01*
X0239626Y0097797D01*
X0239529Y0097672D01*
X0239428Y0097550D01*
X0239324Y0097431D01*
X0239217Y0097314D01*
X0239107Y0097200D01*
X0238994Y0097089D01*
X0238879Y0096980D01*
X0238761Y0096875D01*
X0238640Y0096773D01*
X0238517Y0096673D01*
X0238391Y0096577D01*
X0238263Y0096484D01*
X0238133Y0096394D01*
X0238000Y0096308D01*
X0237865Y0096224D01*
X0237729Y0096145D01*
X0237590Y0096068D01*
X0237449Y0095996D01*
X0237307Y0095926D01*
X0237163Y0095861D01*
X0237017Y0095799D01*
X0236870Y0095741D01*
X0236721Y0095686D01*
X0236571Y0095635D01*
X0236420Y0095588D01*
X0236268Y0095545D01*
X0236115Y0095506D01*
X0235960Y0095470D01*
X0235805Y0095439D01*
X0235649Y0095411D01*
X0235493Y0095387D01*
X0235336Y0095367D01*
X0235178Y0095351D01*
X0235021Y0095339D01*
X0234862Y0095331D01*
X0234704Y0095327D01*
X0234546Y0095327D01*
X0234388Y0095331D01*
X0234229Y0095339D01*
X0234072Y0095351D01*
X0233914Y0095367D01*
X0233757Y0095387D01*
X0233601Y0095411D01*
X0233445Y0095439D01*
X0233290Y0095470D01*
X0233135Y0095506D01*
X0232982Y0095545D01*
X0232830Y0095588D01*
X0232679Y0095635D01*
X0232529Y0095686D01*
X0232380Y0095741D01*
X0232233Y0095799D01*
X0232087Y0095861D01*
X0231943Y0095926D01*
X0231801Y0095996D01*
X0231660Y0096068D01*
X0231521Y0096145D01*
X0231385Y0096224D01*
X0231250Y0096308D01*
X0231117Y0096394D01*
X0230987Y0096484D01*
X0230859Y0096577D01*
X0230733Y0096673D01*
X0230610Y0096773D01*
X0230489Y0096875D01*
X0230371Y0096980D01*
X0230256Y0097089D01*
X0230143Y0097200D01*
X0230033Y0097314D01*
X0229926Y0097431D01*
X0229822Y0097550D01*
X0229721Y0097672D01*
X0229624Y0097797D01*
X0229529Y0097924D01*
X0229438Y0098053D01*
X0229349Y0098184D01*
X0229265Y0098318D01*
X0229183Y0098454D01*
X0229105Y0098591D01*
X0229031Y0098731D01*
X0228960Y0098873D01*
X0228892Y0099016D01*
X0228828Y0099161D01*
X0228768Y0099307D01*
X0228712Y0099455D01*
X0228659Y0099604D01*
X0228610Y0099755D01*
X0228565Y0099907D01*
X0228524Y0100060D01*
X0228486Y0100213D01*
X0228453Y0100368D01*
X0228423Y0100524D01*
X0228397Y0100680D01*
X0228376Y0100837D01*
X0228358Y0100994D01*
X0228344Y0101152D01*
X0228334Y0101310D01*
X0228328Y0101468D01*
X0228326Y0101626D01*
X0161176Y0147138D02*
X0161176Y0149107D01*
X0052094Y0181626D02*
X0048156Y0183989D01*
X0048156Y0179264D01*
X0052094Y0181626D01*
X0053094Y0214264D02*
X0053094Y0218989D01*
X0049156Y0216626D01*
X0053094Y0214264D01*
X0128971Y0276863D02*
X0128971Y0303437D01*
X0172279Y0303437D01*
X0172279Y0306390D02*
X0172279Y0276863D01*
X0128971Y0276863D01*
X0128971Y0303437D02*
X0128971Y0306390D01*
X0172279Y0306390D01*
X0193971Y0306390D02*
X0193971Y0303437D01*
X0237279Y0303437D01*
X0237279Y0306390D02*
X0237279Y0276863D01*
X0193971Y0276863D01*
X0193971Y0303437D01*
X0193971Y0306390D02*
X0237279Y0306390D01*
X0258971Y0306390D02*
X0258971Y0303437D01*
X0302279Y0303437D01*
X0302279Y0306390D02*
X0302279Y0276863D01*
X0258971Y0276863D01*
X0258971Y0303437D01*
X0258971Y0306390D02*
X0302279Y0306390D01*
X0343145Y0242178D02*
X0345113Y0242178D01*
X0384326Y0359126D02*
X0384328Y0359284D01*
X0384334Y0359442D01*
X0384344Y0359600D01*
X0384358Y0359758D01*
X0384376Y0359915D01*
X0384397Y0360072D01*
X0384423Y0360228D01*
X0384453Y0360384D01*
X0384486Y0360539D01*
X0384524Y0360692D01*
X0384565Y0360845D01*
X0384610Y0360997D01*
X0384659Y0361148D01*
X0384712Y0361297D01*
X0384768Y0361445D01*
X0384828Y0361591D01*
X0384892Y0361736D01*
X0384960Y0361879D01*
X0385031Y0362021D01*
X0385105Y0362161D01*
X0385183Y0362298D01*
X0385265Y0362434D01*
X0385349Y0362568D01*
X0385438Y0362699D01*
X0385529Y0362828D01*
X0385624Y0362955D01*
X0385721Y0363080D01*
X0385822Y0363202D01*
X0385926Y0363321D01*
X0386033Y0363438D01*
X0386143Y0363552D01*
X0386256Y0363663D01*
X0386371Y0363772D01*
X0386489Y0363877D01*
X0386610Y0363979D01*
X0386733Y0364079D01*
X0386859Y0364175D01*
X0386987Y0364268D01*
X0387117Y0364358D01*
X0387250Y0364444D01*
X0387385Y0364528D01*
X0387521Y0364607D01*
X0387660Y0364684D01*
X0387801Y0364756D01*
X0387943Y0364826D01*
X0388087Y0364891D01*
X0388233Y0364953D01*
X0388380Y0365011D01*
X0388529Y0365066D01*
X0388679Y0365117D01*
X0388830Y0365164D01*
X0388982Y0365207D01*
X0389135Y0365246D01*
X0389290Y0365282D01*
X0389445Y0365313D01*
X0389601Y0365341D01*
X0389757Y0365365D01*
X0389914Y0365385D01*
X0390072Y0365401D01*
X0390229Y0365413D01*
X0390388Y0365421D01*
X0390546Y0365425D01*
X0390704Y0365425D01*
X0390862Y0365421D01*
X0391021Y0365413D01*
X0391178Y0365401D01*
X0391336Y0365385D01*
X0391493Y0365365D01*
X0391649Y0365341D01*
X0391805Y0365313D01*
X0391960Y0365282D01*
X0392115Y0365246D01*
X0392268Y0365207D01*
X0392420Y0365164D01*
X0392571Y0365117D01*
X0392721Y0365066D01*
X0392870Y0365011D01*
X0393017Y0364953D01*
X0393163Y0364891D01*
X0393307Y0364826D01*
X0393449Y0364756D01*
X0393590Y0364684D01*
X0393729Y0364607D01*
X0393865Y0364528D01*
X0394000Y0364444D01*
X0394133Y0364358D01*
X0394263Y0364268D01*
X0394391Y0364175D01*
X0394517Y0364079D01*
X0394640Y0363979D01*
X0394761Y0363877D01*
X0394879Y0363772D01*
X0394994Y0363663D01*
X0395107Y0363552D01*
X0395217Y0363438D01*
X0395324Y0363321D01*
X0395428Y0363202D01*
X0395529Y0363080D01*
X0395626Y0362955D01*
X0395721Y0362828D01*
X0395812Y0362699D01*
X0395901Y0362568D01*
X0395985Y0362434D01*
X0396067Y0362298D01*
X0396145Y0362161D01*
X0396219Y0362021D01*
X0396290Y0361879D01*
X0396358Y0361736D01*
X0396422Y0361591D01*
X0396482Y0361445D01*
X0396538Y0361297D01*
X0396591Y0361148D01*
X0396640Y0360997D01*
X0396685Y0360845D01*
X0396726Y0360692D01*
X0396764Y0360539D01*
X0396797Y0360384D01*
X0396827Y0360228D01*
X0396853Y0360072D01*
X0396874Y0359915D01*
X0396892Y0359758D01*
X0396906Y0359600D01*
X0396916Y0359442D01*
X0396922Y0359284D01*
X0396924Y0359126D01*
X0396922Y0358968D01*
X0396916Y0358810D01*
X0396906Y0358652D01*
X0396892Y0358494D01*
X0396874Y0358337D01*
X0396853Y0358180D01*
X0396827Y0358024D01*
X0396797Y0357868D01*
X0396764Y0357713D01*
X0396726Y0357560D01*
X0396685Y0357407D01*
X0396640Y0357255D01*
X0396591Y0357104D01*
X0396538Y0356955D01*
X0396482Y0356807D01*
X0396422Y0356661D01*
X0396358Y0356516D01*
X0396290Y0356373D01*
X0396219Y0356231D01*
X0396145Y0356091D01*
X0396067Y0355954D01*
X0395985Y0355818D01*
X0395901Y0355684D01*
X0395812Y0355553D01*
X0395721Y0355424D01*
X0395626Y0355297D01*
X0395529Y0355172D01*
X0395428Y0355050D01*
X0395324Y0354931D01*
X0395217Y0354814D01*
X0395107Y0354700D01*
X0394994Y0354589D01*
X0394879Y0354480D01*
X0394761Y0354375D01*
X0394640Y0354273D01*
X0394517Y0354173D01*
X0394391Y0354077D01*
X0394263Y0353984D01*
X0394133Y0353894D01*
X0394000Y0353808D01*
X0393865Y0353724D01*
X0393729Y0353645D01*
X0393590Y0353568D01*
X0393449Y0353496D01*
X0393307Y0353426D01*
X0393163Y0353361D01*
X0393017Y0353299D01*
X0392870Y0353241D01*
X0392721Y0353186D01*
X0392571Y0353135D01*
X0392420Y0353088D01*
X0392268Y0353045D01*
X0392115Y0353006D01*
X0391960Y0352970D01*
X0391805Y0352939D01*
X0391649Y0352911D01*
X0391493Y0352887D01*
X0391336Y0352867D01*
X0391178Y0352851D01*
X0391021Y0352839D01*
X0390862Y0352831D01*
X0390704Y0352827D01*
X0390546Y0352827D01*
X0390388Y0352831D01*
X0390229Y0352839D01*
X0390072Y0352851D01*
X0389914Y0352867D01*
X0389757Y0352887D01*
X0389601Y0352911D01*
X0389445Y0352939D01*
X0389290Y0352970D01*
X0389135Y0353006D01*
X0388982Y0353045D01*
X0388830Y0353088D01*
X0388679Y0353135D01*
X0388529Y0353186D01*
X0388380Y0353241D01*
X0388233Y0353299D01*
X0388087Y0353361D01*
X0387943Y0353426D01*
X0387801Y0353496D01*
X0387660Y0353568D01*
X0387521Y0353645D01*
X0387385Y0353724D01*
X0387250Y0353808D01*
X0387117Y0353894D01*
X0386987Y0353984D01*
X0386859Y0354077D01*
X0386733Y0354173D01*
X0386610Y0354273D01*
X0386489Y0354375D01*
X0386371Y0354480D01*
X0386256Y0354589D01*
X0386143Y0354700D01*
X0386033Y0354814D01*
X0385926Y0354931D01*
X0385822Y0355050D01*
X0385721Y0355172D01*
X0385624Y0355297D01*
X0385529Y0355424D01*
X0385438Y0355553D01*
X0385349Y0355684D01*
X0385265Y0355818D01*
X0385183Y0355954D01*
X0385105Y0356091D01*
X0385031Y0356231D01*
X0384960Y0356373D01*
X0384892Y0356516D01*
X0384828Y0356661D01*
X0384768Y0356807D01*
X0384712Y0356955D01*
X0384659Y0357104D01*
X0384610Y0357255D01*
X0384565Y0357407D01*
X0384524Y0357560D01*
X0384486Y0357713D01*
X0384453Y0357868D01*
X0384423Y0358024D01*
X0384397Y0358180D01*
X0384376Y0358337D01*
X0384358Y0358494D01*
X0384344Y0358652D01*
X0384334Y0358810D01*
X0384328Y0358968D01*
X0384326Y0359126D01*
X0090536Y0313969D02*
X0090536Y0294284D01*
X0073214Y0294284D01*
X0073214Y0313969D01*
X0090536Y0313969D01*
X0034326Y0359126D02*
X0034328Y0359284D01*
X0034334Y0359442D01*
X0034344Y0359600D01*
X0034358Y0359758D01*
X0034376Y0359915D01*
X0034397Y0360072D01*
X0034423Y0360228D01*
X0034453Y0360384D01*
X0034486Y0360539D01*
X0034524Y0360692D01*
X0034565Y0360845D01*
X0034610Y0360997D01*
X0034659Y0361148D01*
X0034712Y0361297D01*
X0034768Y0361445D01*
X0034828Y0361591D01*
X0034892Y0361736D01*
X0034960Y0361879D01*
X0035031Y0362021D01*
X0035105Y0362161D01*
X0035183Y0362298D01*
X0035265Y0362434D01*
X0035349Y0362568D01*
X0035438Y0362699D01*
X0035529Y0362828D01*
X0035624Y0362955D01*
X0035721Y0363080D01*
X0035822Y0363202D01*
X0035926Y0363321D01*
X0036033Y0363438D01*
X0036143Y0363552D01*
X0036256Y0363663D01*
X0036371Y0363772D01*
X0036489Y0363877D01*
X0036610Y0363979D01*
X0036733Y0364079D01*
X0036859Y0364175D01*
X0036987Y0364268D01*
X0037117Y0364358D01*
X0037250Y0364444D01*
X0037385Y0364528D01*
X0037521Y0364607D01*
X0037660Y0364684D01*
X0037801Y0364756D01*
X0037943Y0364826D01*
X0038087Y0364891D01*
X0038233Y0364953D01*
X0038380Y0365011D01*
X0038529Y0365066D01*
X0038679Y0365117D01*
X0038830Y0365164D01*
X0038982Y0365207D01*
X0039135Y0365246D01*
X0039290Y0365282D01*
X0039445Y0365313D01*
X0039601Y0365341D01*
X0039757Y0365365D01*
X0039914Y0365385D01*
X0040072Y0365401D01*
X0040229Y0365413D01*
X0040388Y0365421D01*
X0040546Y0365425D01*
X0040704Y0365425D01*
X0040862Y0365421D01*
X0041021Y0365413D01*
X0041178Y0365401D01*
X0041336Y0365385D01*
X0041493Y0365365D01*
X0041649Y0365341D01*
X0041805Y0365313D01*
X0041960Y0365282D01*
X0042115Y0365246D01*
X0042268Y0365207D01*
X0042420Y0365164D01*
X0042571Y0365117D01*
X0042721Y0365066D01*
X0042870Y0365011D01*
X0043017Y0364953D01*
X0043163Y0364891D01*
X0043307Y0364826D01*
X0043449Y0364756D01*
X0043590Y0364684D01*
X0043729Y0364607D01*
X0043865Y0364528D01*
X0044000Y0364444D01*
X0044133Y0364358D01*
X0044263Y0364268D01*
X0044391Y0364175D01*
X0044517Y0364079D01*
X0044640Y0363979D01*
X0044761Y0363877D01*
X0044879Y0363772D01*
X0044994Y0363663D01*
X0045107Y0363552D01*
X0045217Y0363438D01*
X0045324Y0363321D01*
X0045428Y0363202D01*
X0045529Y0363080D01*
X0045626Y0362955D01*
X0045721Y0362828D01*
X0045812Y0362699D01*
X0045901Y0362568D01*
X0045985Y0362434D01*
X0046067Y0362298D01*
X0046145Y0362161D01*
X0046219Y0362021D01*
X0046290Y0361879D01*
X0046358Y0361736D01*
X0046422Y0361591D01*
X0046482Y0361445D01*
X0046538Y0361297D01*
X0046591Y0361148D01*
X0046640Y0360997D01*
X0046685Y0360845D01*
X0046726Y0360692D01*
X0046764Y0360539D01*
X0046797Y0360384D01*
X0046827Y0360228D01*
X0046853Y0360072D01*
X0046874Y0359915D01*
X0046892Y0359758D01*
X0046906Y0359600D01*
X0046916Y0359442D01*
X0046922Y0359284D01*
X0046924Y0359126D01*
X0046922Y0358968D01*
X0046916Y0358810D01*
X0046906Y0358652D01*
X0046892Y0358494D01*
X0046874Y0358337D01*
X0046853Y0358180D01*
X0046827Y0358024D01*
X0046797Y0357868D01*
X0046764Y0357713D01*
X0046726Y0357560D01*
X0046685Y0357407D01*
X0046640Y0357255D01*
X0046591Y0357104D01*
X0046538Y0356955D01*
X0046482Y0356807D01*
X0046422Y0356661D01*
X0046358Y0356516D01*
X0046290Y0356373D01*
X0046219Y0356231D01*
X0046145Y0356091D01*
X0046067Y0355954D01*
X0045985Y0355818D01*
X0045901Y0355684D01*
X0045812Y0355553D01*
X0045721Y0355424D01*
X0045626Y0355297D01*
X0045529Y0355172D01*
X0045428Y0355050D01*
X0045324Y0354931D01*
X0045217Y0354814D01*
X0045107Y0354700D01*
X0044994Y0354589D01*
X0044879Y0354480D01*
X0044761Y0354375D01*
X0044640Y0354273D01*
X0044517Y0354173D01*
X0044391Y0354077D01*
X0044263Y0353984D01*
X0044133Y0353894D01*
X0044000Y0353808D01*
X0043865Y0353724D01*
X0043729Y0353645D01*
X0043590Y0353568D01*
X0043449Y0353496D01*
X0043307Y0353426D01*
X0043163Y0353361D01*
X0043017Y0353299D01*
X0042870Y0353241D01*
X0042721Y0353186D01*
X0042571Y0353135D01*
X0042420Y0353088D01*
X0042268Y0353045D01*
X0042115Y0353006D01*
X0041960Y0352970D01*
X0041805Y0352939D01*
X0041649Y0352911D01*
X0041493Y0352887D01*
X0041336Y0352867D01*
X0041178Y0352851D01*
X0041021Y0352839D01*
X0040862Y0352831D01*
X0040704Y0352827D01*
X0040546Y0352827D01*
X0040388Y0352831D01*
X0040229Y0352839D01*
X0040072Y0352851D01*
X0039914Y0352867D01*
X0039757Y0352887D01*
X0039601Y0352911D01*
X0039445Y0352939D01*
X0039290Y0352970D01*
X0039135Y0353006D01*
X0038982Y0353045D01*
X0038830Y0353088D01*
X0038679Y0353135D01*
X0038529Y0353186D01*
X0038380Y0353241D01*
X0038233Y0353299D01*
X0038087Y0353361D01*
X0037943Y0353426D01*
X0037801Y0353496D01*
X0037660Y0353568D01*
X0037521Y0353645D01*
X0037385Y0353724D01*
X0037250Y0353808D01*
X0037117Y0353894D01*
X0036987Y0353984D01*
X0036859Y0354077D01*
X0036733Y0354173D01*
X0036610Y0354273D01*
X0036489Y0354375D01*
X0036371Y0354480D01*
X0036256Y0354589D01*
X0036143Y0354700D01*
X0036033Y0354814D01*
X0035926Y0354931D01*
X0035822Y0355050D01*
X0035721Y0355172D01*
X0035624Y0355297D01*
X0035529Y0355424D01*
X0035438Y0355553D01*
X0035349Y0355684D01*
X0035265Y0355818D01*
X0035183Y0355954D01*
X0035105Y0356091D01*
X0035031Y0356231D01*
X0034960Y0356373D01*
X0034892Y0356516D01*
X0034828Y0356661D01*
X0034768Y0356807D01*
X0034712Y0356955D01*
X0034659Y0357104D01*
X0034610Y0357255D01*
X0034565Y0357407D01*
X0034524Y0357560D01*
X0034486Y0357713D01*
X0034453Y0357868D01*
X0034423Y0358024D01*
X0034397Y0358180D01*
X0034376Y0358337D01*
X0034358Y0358494D01*
X0034344Y0358652D01*
X0034334Y0358810D01*
X0034328Y0358968D01*
X0034326Y0359126D01*
X0034326Y0101626D02*
X0034328Y0101784D01*
X0034334Y0101942D01*
X0034344Y0102100D01*
X0034358Y0102258D01*
X0034376Y0102415D01*
X0034397Y0102572D01*
X0034423Y0102728D01*
X0034453Y0102884D01*
X0034486Y0103039D01*
X0034524Y0103192D01*
X0034565Y0103345D01*
X0034610Y0103497D01*
X0034659Y0103648D01*
X0034712Y0103797D01*
X0034768Y0103945D01*
X0034828Y0104091D01*
X0034892Y0104236D01*
X0034960Y0104379D01*
X0035031Y0104521D01*
X0035105Y0104661D01*
X0035183Y0104798D01*
X0035265Y0104934D01*
X0035349Y0105068D01*
X0035438Y0105199D01*
X0035529Y0105328D01*
X0035624Y0105455D01*
X0035721Y0105580D01*
X0035822Y0105702D01*
X0035926Y0105821D01*
X0036033Y0105938D01*
X0036143Y0106052D01*
X0036256Y0106163D01*
X0036371Y0106272D01*
X0036489Y0106377D01*
X0036610Y0106479D01*
X0036733Y0106579D01*
X0036859Y0106675D01*
X0036987Y0106768D01*
X0037117Y0106858D01*
X0037250Y0106944D01*
X0037385Y0107028D01*
X0037521Y0107107D01*
X0037660Y0107184D01*
X0037801Y0107256D01*
X0037943Y0107326D01*
X0038087Y0107391D01*
X0038233Y0107453D01*
X0038380Y0107511D01*
X0038529Y0107566D01*
X0038679Y0107617D01*
X0038830Y0107664D01*
X0038982Y0107707D01*
X0039135Y0107746D01*
X0039290Y0107782D01*
X0039445Y0107813D01*
X0039601Y0107841D01*
X0039757Y0107865D01*
X0039914Y0107885D01*
X0040072Y0107901D01*
X0040229Y0107913D01*
X0040388Y0107921D01*
X0040546Y0107925D01*
X0040704Y0107925D01*
X0040862Y0107921D01*
X0041021Y0107913D01*
X0041178Y0107901D01*
X0041336Y0107885D01*
X0041493Y0107865D01*
X0041649Y0107841D01*
X0041805Y0107813D01*
X0041960Y0107782D01*
X0042115Y0107746D01*
X0042268Y0107707D01*
X0042420Y0107664D01*
X0042571Y0107617D01*
X0042721Y0107566D01*
X0042870Y0107511D01*
X0043017Y0107453D01*
X0043163Y0107391D01*
X0043307Y0107326D01*
X0043449Y0107256D01*
X0043590Y0107184D01*
X0043729Y0107107D01*
X0043865Y0107028D01*
X0044000Y0106944D01*
X0044133Y0106858D01*
X0044263Y0106768D01*
X0044391Y0106675D01*
X0044517Y0106579D01*
X0044640Y0106479D01*
X0044761Y0106377D01*
X0044879Y0106272D01*
X0044994Y0106163D01*
X0045107Y0106052D01*
X0045217Y0105938D01*
X0045324Y0105821D01*
X0045428Y0105702D01*
X0045529Y0105580D01*
X0045626Y0105455D01*
X0045721Y0105328D01*
X0045812Y0105199D01*
X0045901Y0105068D01*
X0045985Y0104934D01*
X0046067Y0104798D01*
X0046145Y0104661D01*
X0046219Y0104521D01*
X0046290Y0104379D01*
X0046358Y0104236D01*
X0046422Y0104091D01*
X0046482Y0103945D01*
X0046538Y0103797D01*
X0046591Y0103648D01*
X0046640Y0103497D01*
X0046685Y0103345D01*
X0046726Y0103192D01*
X0046764Y0103039D01*
X0046797Y0102884D01*
X0046827Y0102728D01*
X0046853Y0102572D01*
X0046874Y0102415D01*
X0046892Y0102258D01*
X0046906Y0102100D01*
X0046916Y0101942D01*
X0046922Y0101784D01*
X0046924Y0101626D01*
X0046922Y0101468D01*
X0046916Y0101310D01*
X0046906Y0101152D01*
X0046892Y0100994D01*
X0046874Y0100837D01*
X0046853Y0100680D01*
X0046827Y0100524D01*
X0046797Y0100368D01*
X0046764Y0100213D01*
X0046726Y0100060D01*
X0046685Y0099907D01*
X0046640Y0099755D01*
X0046591Y0099604D01*
X0046538Y0099455D01*
X0046482Y0099307D01*
X0046422Y0099161D01*
X0046358Y0099016D01*
X0046290Y0098873D01*
X0046219Y0098731D01*
X0046145Y0098591D01*
X0046067Y0098454D01*
X0045985Y0098318D01*
X0045901Y0098184D01*
X0045812Y0098053D01*
X0045721Y0097924D01*
X0045626Y0097797D01*
X0045529Y0097672D01*
X0045428Y0097550D01*
X0045324Y0097431D01*
X0045217Y0097314D01*
X0045107Y0097200D01*
X0044994Y0097089D01*
X0044879Y0096980D01*
X0044761Y0096875D01*
X0044640Y0096773D01*
X0044517Y0096673D01*
X0044391Y0096577D01*
X0044263Y0096484D01*
X0044133Y0096394D01*
X0044000Y0096308D01*
X0043865Y0096224D01*
X0043729Y0096145D01*
X0043590Y0096068D01*
X0043449Y0095996D01*
X0043307Y0095926D01*
X0043163Y0095861D01*
X0043017Y0095799D01*
X0042870Y0095741D01*
X0042721Y0095686D01*
X0042571Y0095635D01*
X0042420Y0095588D01*
X0042268Y0095545D01*
X0042115Y0095506D01*
X0041960Y0095470D01*
X0041805Y0095439D01*
X0041649Y0095411D01*
X0041493Y0095387D01*
X0041336Y0095367D01*
X0041178Y0095351D01*
X0041021Y0095339D01*
X0040862Y0095331D01*
X0040704Y0095327D01*
X0040546Y0095327D01*
X0040388Y0095331D01*
X0040229Y0095339D01*
X0040072Y0095351D01*
X0039914Y0095367D01*
X0039757Y0095387D01*
X0039601Y0095411D01*
X0039445Y0095439D01*
X0039290Y0095470D01*
X0039135Y0095506D01*
X0038982Y0095545D01*
X0038830Y0095588D01*
X0038679Y0095635D01*
X0038529Y0095686D01*
X0038380Y0095741D01*
X0038233Y0095799D01*
X0038087Y0095861D01*
X0037943Y0095926D01*
X0037801Y0095996D01*
X0037660Y0096068D01*
X0037521Y0096145D01*
X0037385Y0096224D01*
X0037250Y0096308D01*
X0037117Y0096394D01*
X0036987Y0096484D01*
X0036859Y0096577D01*
X0036733Y0096673D01*
X0036610Y0096773D01*
X0036489Y0096875D01*
X0036371Y0096980D01*
X0036256Y0097089D01*
X0036143Y0097200D01*
X0036033Y0097314D01*
X0035926Y0097431D01*
X0035822Y0097550D01*
X0035721Y0097672D01*
X0035624Y0097797D01*
X0035529Y0097924D01*
X0035438Y0098053D01*
X0035349Y0098184D01*
X0035265Y0098318D01*
X0035183Y0098454D01*
X0035105Y0098591D01*
X0035031Y0098731D01*
X0034960Y0098873D01*
X0034892Y0099016D01*
X0034828Y0099161D01*
X0034768Y0099307D01*
X0034712Y0099455D01*
X0034659Y0099604D01*
X0034610Y0099755D01*
X0034565Y0099907D01*
X0034524Y0100060D01*
X0034486Y0100213D01*
X0034453Y0100368D01*
X0034423Y0100524D01*
X0034397Y0100680D01*
X0034376Y0100837D01*
X0034358Y0100994D01*
X0034344Y0101152D01*
X0034334Y0101310D01*
X0034328Y0101468D01*
X0034326Y0101626D01*
X0384326Y0101626D02*
X0384328Y0101784D01*
X0384334Y0101942D01*
X0384344Y0102100D01*
X0384358Y0102258D01*
X0384376Y0102415D01*
X0384397Y0102572D01*
X0384423Y0102728D01*
X0384453Y0102884D01*
X0384486Y0103039D01*
X0384524Y0103192D01*
X0384565Y0103345D01*
X0384610Y0103497D01*
X0384659Y0103648D01*
X0384712Y0103797D01*
X0384768Y0103945D01*
X0384828Y0104091D01*
X0384892Y0104236D01*
X0384960Y0104379D01*
X0385031Y0104521D01*
X0385105Y0104661D01*
X0385183Y0104798D01*
X0385265Y0104934D01*
X0385349Y0105068D01*
X0385438Y0105199D01*
X0385529Y0105328D01*
X0385624Y0105455D01*
X0385721Y0105580D01*
X0385822Y0105702D01*
X0385926Y0105821D01*
X0386033Y0105938D01*
X0386143Y0106052D01*
X0386256Y0106163D01*
X0386371Y0106272D01*
X0386489Y0106377D01*
X0386610Y0106479D01*
X0386733Y0106579D01*
X0386859Y0106675D01*
X0386987Y0106768D01*
X0387117Y0106858D01*
X0387250Y0106944D01*
X0387385Y0107028D01*
X0387521Y0107107D01*
X0387660Y0107184D01*
X0387801Y0107256D01*
X0387943Y0107326D01*
X0388087Y0107391D01*
X0388233Y0107453D01*
X0388380Y0107511D01*
X0388529Y0107566D01*
X0388679Y0107617D01*
X0388830Y0107664D01*
X0388982Y0107707D01*
X0389135Y0107746D01*
X0389290Y0107782D01*
X0389445Y0107813D01*
X0389601Y0107841D01*
X0389757Y0107865D01*
X0389914Y0107885D01*
X0390072Y0107901D01*
X0390229Y0107913D01*
X0390388Y0107921D01*
X0390546Y0107925D01*
X0390704Y0107925D01*
X0390862Y0107921D01*
X0391021Y0107913D01*
X0391178Y0107901D01*
X0391336Y0107885D01*
X0391493Y0107865D01*
X0391649Y0107841D01*
X0391805Y0107813D01*
X0391960Y0107782D01*
X0392115Y0107746D01*
X0392268Y0107707D01*
X0392420Y0107664D01*
X0392571Y0107617D01*
X0392721Y0107566D01*
X0392870Y0107511D01*
X0393017Y0107453D01*
X0393163Y0107391D01*
X0393307Y0107326D01*
X0393449Y0107256D01*
X0393590Y0107184D01*
X0393729Y0107107D01*
X0393865Y0107028D01*
X0394000Y0106944D01*
X0394133Y0106858D01*
X0394263Y0106768D01*
X0394391Y0106675D01*
X0394517Y0106579D01*
X0394640Y0106479D01*
X0394761Y0106377D01*
X0394879Y0106272D01*
X0394994Y0106163D01*
X0395107Y0106052D01*
X0395217Y0105938D01*
X0395324Y0105821D01*
X0395428Y0105702D01*
X0395529Y0105580D01*
X0395626Y0105455D01*
X0395721Y0105328D01*
X0395812Y0105199D01*
X0395901Y0105068D01*
X0395985Y0104934D01*
X0396067Y0104798D01*
X0396145Y0104661D01*
X0396219Y0104521D01*
X0396290Y0104379D01*
X0396358Y0104236D01*
X0396422Y0104091D01*
X0396482Y0103945D01*
X0396538Y0103797D01*
X0396591Y0103648D01*
X0396640Y0103497D01*
X0396685Y0103345D01*
X0396726Y0103192D01*
X0396764Y0103039D01*
X0396797Y0102884D01*
X0396827Y0102728D01*
X0396853Y0102572D01*
X0396874Y0102415D01*
X0396892Y0102258D01*
X0396906Y0102100D01*
X0396916Y0101942D01*
X0396922Y0101784D01*
X0396924Y0101626D01*
X0396922Y0101468D01*
X0396916Y0101310D01*
X0396906Y0101152D01*
X0396892Y0100994D01*
X0396874Y0100837D01*
X0396853Y0100680D01*
X0396827Y0100524D01*
X0396797Y0100368D01*
X0396764Y0100213D01*
X0396726Y0100060D01*
X0396685Y0099907D01*
X0396640Y0099755D01*
X0396591Y0099604D01*
X0396538Y0099455D01*
X0396482Y0099307D01*
X0396422Y0099161D01*
X0396358Y0099016D01*
X0396290Y0098873D01*
X0396219Y0098731D01*
X0396145Y0098591D01*
X0396067Y0098454D01*
X0395985Y0098318D01*
X0395901Y0098184D01*
X0395812Y0098053D01*
X0395721Y0097924D01*
X0395626Y0097797D01*
X0395529Y0097672D01*
X0395428Y0097550D01*
X0395324Y0097431D01*
X0395217Y0097314D01*
X0395107Y0097200D01*
X0394994Y0097089D01*
X0394879Y0096980D01*
X0394761Y0096875D01*
X0394640Y0096773D01*
X0394517Y0096673D01*
X0394391Y0096577D01*
X0394263Y0096484D01*
X0394133Y0096394D01*
X0394000Y0096308D01*
X0393865Y0096224D01*
X0393729Y0096145D01*
X0393590Y0096068D01*
X0393449Y0095996D01*
X0393307Y0095926D01*
X0393163Y0095861D01*
X0393017Y0095799D01*
X0392870Y0095741D01*
X0392721Y0095686D01*
X0392571Y0095635D01*
X0392420Y0095588D01*
X0392268Y0095545D01*
X0392115Y0095506D01*
X0391960Y0095470D01*
X0391805Y0095439D01*
X0391649Y0095411D01*
X0391493Y0095387D01*
X0391336Y0095367D01*
X0391178Y0095351D01*
X0391021Y0095339D01*
X0390862Y0095331D01*
X0390704Y0095327D01*
X0390546Y0095327D01*
X0390388Y0095331D01*
X0390229Y0095339D01*
X0390072Y0095351D01*
X0389914Y0095367D01*
X0389757Y0095387D01*
X0389601Y0095411D01*
X0389445Y0095439D01*
X0389290Y0095470D01*
X0389135Y0095506D01*
X0388982Y0095545D01*
X0388830Y0095588D01*
X0388679Y0095635D01*
X0388529Y0095686D01*
X0388380Y0095741D01*
X0388233Y0095799D01*
X0388087Y0095861D01*
X0387943Y0095926D01*
X0387801Y0095996D01*
X0387660Y0096068D01*
X0387521Y0096145D01*
X0387385Y0096224D01*
X0387250Y0096308D01*
X0387117Y0096394D01*
X0386987Y0096484D01*
X0386859Y0096577D01*
X0386733Y0096673D01*
X0386610Y0096773D01*
X0386489Y0096875D01*
X0386371Y0096980D01*
X0386256Y0097089D01*
X0386143Y0097200D01*
X0386033Y0097314D01*
X0385926Y0097431D01*
X0385822Y0097550D01*
X0385721Y0097672D01*
X0385624Y0097797D01*
X0385529Y0097924D01*
X0385438Y0098053D01*
X0385349Y0098184D01*
X0385265Y0098318D01*
X0385183Y0098454D01*
X0385105Y0098591D01*
X0385031Y0098731D01*
X0384960Y0098873D01*
X0384892Y0099016D01*
X0384828Y0099161D01*
X0384768Y0099307D01*
X0384712Y0099455D01*
X0384659Y0099604D01*
X0384610Y0099755D01*
X0384565Y0099907D01*
X0384524Y0100060D01*
X0384486Y0100213D01*
X0384453Y0100368D01*
X0384423Y0100524D01*
X0384397Y0100680D01*
X0384376Y0100837D01*
X0384358Y0100994D01*
X0384344Y0101152D01*
X0384334Y0101310D01*
X0384328Y0101468D01*
X0384326Y0101626D01*
D23*
X0093198Y0290646D03*
D24*
X0046125Y0306626D03*
X0036125Y0306626D03*
X0036125Y0326626D03*
X0046125Y0326626D03*
X0385125Y0326626D03*
X0395125Y0326626D03*
X0395125Y0306626D03*
X0385125Y0306626D03*
X0385125Y0281626D03*
X0395125Y0281626D03*
X0395125Y0261626D03*
X0385125Y0261626D03*
X0385125Y0236626D03*
X0395125Y0236626D03*
X0395125Y0216626D03*
X0385125Y0216626D03*
D25*
X0303691Y0187976D02*
X0303691Y0185074D01*
X0304658Y0185074D02*
X0302723Y0185074D01*
X0301712Y0185557D02*
X0301228Y0185074D01*
X0300261Y0185074D01*
X0299777Y0185557D01*
X0301712Y0187492D01*
X0301712Y0185557D01*
X0302723Y0187009D02*
X0303691Y0187976D01*
X0301712Y0187492D02*
X0301228Y0187976D01*
X0300261Y0187976D01*
X0299777Y0187492D01*
X0299777Y0185557D01*
X0298765Y0185074D02*
X0296830Y0185074D01*
X0297798Y0185074D02*
X0297798Y0187976D01*
X0296830Y0187009D01*
X0295819Y0187492D02*
X0293884Y0185557D01*
X0294368Y0185074D01*
X0295335Y0185074D01*
X0295819Y0185557D01*
X0295819Y0187492D01*
X0295335Y0187976D01*
X0294368Y0187976D01*
X0293884Y0187492D01*
X0293884Y0185557D01*
X0292872Y0185557D02*
X0292872Y0187976D01*
X0290937Y0187976D02*
X0290937Y0185557D01*
X0291421Y0185074D01*
X0292389Y0185074D01*
X0292872Y0185557D01*
D26*
X0205625Y0107126D03*
X0205625Y0097126D03*
X0185625Y0097126D03*
X0185625Y0107126D03*
X0160625Y0107126D03*
X0160625Y0097126D03*
X0140625Y0097126D03*
X0140625Y0107126D03*
X0115625Y0107126D03*
X0115625Y0097126D03*
X0095625Y0097126D03*
X0095625Y0107126D03*
D27*
X0090625Y0341626D03*
X0100625Y0341626D03*
X0110625Y0341626D03*
X0120625Y0341626D03*
X0130625Y0341626D03*
X0140625Y0341626D03*
X0150625Y0341626D03*
X0160625Y0341626D03*
X0170625Y0341626D03*
X0180625Y0341626D03*
X0180625Y0351626D03*
X0170625Y0351626D03*
X0160625Y0351626D03*
X0150625Y0351626D03*
X0140625Y0351626D03*
X0130625Y0351626D03*
X0120625Y0351626D03*
X0110625Y0351626D03*
X0100625Y0351626D03*
X0090625Y0351626D03*
X0250625Y0351626D03*
X0250625Y0341626D03*
X0260625Y0341626D03*
X0270625Y0341626D03*
X0270625Y0351626D03*
X0260625Y0351626D03*
X0280625Y0351626D03*
X0280625Y0341626D03*
X0290625Y0341626D03*
X0300625Y0341626D03*
X0310625Y0341626D03*
X0320625Y0341626D03*
X0330625Y0341626D03*
X0340625Y0341626D03*
X0340625Y0351626D03*
X0330625Y0351626D03*
X0320625Y0351626D03*
X0310625Y0351626D03*
X0300625Y0351626D03*
X0290625Y0351626D03*
D28*
X0093007Y0248516D02*
X0093009Y0248560D01*
X0093015Y0248604D01*
X0093025Y0248647D01*
X0093038Y0248689D01*
X0093056Y0248729D01*
X0093077Y0248768D01*
X0093101Y0248805D01*
X0093128Y0248840D01*
X0093159Y0248872D01*
X0093192Y0248901D01*
X0093228Y0248927D01*
X0093266Y0248949D01*
X0093306Y0248968D01*
X0093347Y0248984D01*
X0093390Y0248996D01*
X0093433Y0249004D01*
X0093477Y0249008D01*
X0093521Y0249008D01*
X0093565Y0249004D01*
X0093608Y0248996D01*
X0093651Y0248984D01*
X0093692Y0248968D01*
X0093732Y0248949D01*
X0093770Y0248927D01*
X0093806Y0248901D01*
X0093839Y0248872D01*
X0093870Y0248840D01*
X0093897Y0248805D01*
X0093921Y0248768D01*
X0093942Y0248729D01*
X0093960Y0248689D01*
X0093973Y0248647D01*
X0093983Y0248604D01*
X0093989Y0248560D01*
X0093991Y0248516D01*
X0093989Y0248472D01*
X0093983Y0248428D01*
X0093973Y0248385D01*
X0093960Y0248343D01*
X0093942Y0248303D01*
X0093921Y0248264D01*
X0093897Y0248227D01*
X0093870Y0248192D01*
X0093839Y0248160D01*
X0093806Y0248131D01*
X0093770Y0248105D01*
X0093732Y0248083D01*
X0093692Y0248064D01*
X0093651Y0248048D01*
X0093608Y0248036D01*
X0093565Y0248028D01*
X0093521Y0248024D01*
X0093477Y0248024D01*
X0093433Y0248028D01*
X0093390Y0248036D01*
X0093347Y0248048D01*
X0093306Y0248064D01*
X0093266Y0248083D01*
X0093228Y0248105D01*
X0093192Y0248131D01*
X0093159Y0248160D01*
X0093128Y0248192D01*
X0093101Y0248227D01*
X0093077Y0248264D01*
X0093056Y0248303D01*
X0093038Y0248343D01*
X0093025Y0248385D01*
X0093015Y0248428D01*
X0093009Y0248472D01*
X0093007Y0248516D01*
D29*
X0048425Y0216626D03*
X0052825Y0181626D03*
M02*
